<svg width="416" height="560" viewBox="0 0 416 560" fill="none" xmlns="http://www.w3.org/2000/svg">
<path opacity="0.18" d="M255 552.922C261.815 555.834 270.13 554.063 277.862 554.268C278.921 554.296 280.041 554.38 280.89 554.882C281.74 555.384 282.157 556.204 282.74 556.897C284.906 559.494 289.345 560.329 293.226 559.888C297.107 559.448 300.666 557.99 304.32 556.88C310.65 554.959 317.886 554.087 324.13 556.179C324.703 556.371 325.306 556.591 325.92 556.516C327.289 556.345 327.697 554.953 328.653 554.158C330.387 552.722 334.136 553.111 334.893 551.219C335.339 550.118 334.314 548.973 333.2 548.215C328.932 545.317 322.828 544.839 317.243 545.286C311.658 545.733 306.167 546.967 300.553 546.971C293.559 546.971 286.801 545.079 279.875 544.304C275.077 543.766 269.841 543.832 265.343 545.405C260.481 547.127 259.406 550.968 255 552.922Z" fill="#C8C8C8"/>
<path d="M265.917 286.055C265.222 290.812 270.674 288.444 273.573 288.403C275.166 288.403 276.411 289.832 277.943 290.261C283.843 291.895 282.823 285.157 282.394 281.563C281.843 277.133 277.187 271.804 272.185 274.335C270.709 275.254 269.548 276.6 268.857 278.194C267.756 280.304 266.873 282.521 266.223 284.81C266.092 285.217 265.99 285.633 265.917 286.055Z" fill="#F4A28C"/>
<path d="M301.934 537.806C301.934 537.806 298.769 543.767 293.032 543.42C287.294 543.073 285.008 548.423 289.908 550.607C294.808 552.792 308.896 548.117 308.896 548.117L309.917 537.663L301.934 537.806Z" fill="#1BC6FC"/>
<path d="M327.027 156.402C327.027 156.402 325.965 168.347 327.946 176.31C328.359 177.853 329.359 179.173 330.733 179.989C332.106 180.806 333.743 181.053 335.296 180.679C337.808 180.189 340.124 178.984 341.968 177.209C343.812 175.435 345.104 173.166 345.689 170.675L349.303 160.2C349.827 158.024 349.659 155.738 348.82 153.663C347.982 151.587 346.516 149.825 344.627 148.623C337.869 143.805 327.313 149.093 327.027 156.402Z" fill="#F4A28C"/>
<path d="M348.691 162.098L354.775 200.953L333.132 202.791L337.4 173.777L348.691 162.098Z" fill="#F4A28C"/>
<path d="M330.008 156.913C333.71 157.057 337.416 156.777 341.054 156.076C339.985 157.708 339.416 159.617 339.416 161.568C339.416 163.52 339.985 165.428 341.054 167.061C342.063 168.661 343.595 169.861 345.39 170.456C347.185 171.052 349.131 171.007 350.896 170.328L350.732 154.912C350.785 152.712 350.243 150.539 349.166 148.62C348.088 146.702 346.513 145.109 344.607 144.009C342.952 143.048 341.233 142.202 339.462 141.477C335.031 139.681 328.518 142.641 324.557 139.619C324.155 139.321 323.682 139.132 323.186 139.071C322.689 139.01 322.185 139.078 321.722 139.269C321.26 139.46 320.855 139.768 320.546 140.162C320.238 140.556 320.037 141.023 319.963 141.518C319.248 146.194 319.963 153.585 326.415 156.158C327.565 156.598 328.778 156.853 330.008 156.913Z" fill="#24285B"/>
<path d="M339.748 166.694C339.748 166.694 339.748 162.079 343.321 162.447C346.894 162.814 346.69 169.491 341.973 170.104L339.748 166.694Z" fill="#F4A28C"/>
<path d="M326.741 163.957L323.393 168.571C323.201 168.832 323.078 169.137 323.036 169.459C322.994 169.78 323.034 170.107 323.152 170.408C323.27 170.71 323.463 170.977 323.712 171.184C323.961 171.391 324.259 171.532 324.577 171.593L329.171 172.471L326.741 163.957Z" fill="#F4A28C"/>
<path opacity="0.31" d="M336.195 180.088C338.885 179.442 341.327 178.023 343.219 176.004C343.219 176.004 342.892 183.191 335.052 190.297L336.195 180.088Z" fill="#CE8172"/>
<path d="M357.94 200.975L330.988 203.241C330.988 203.241 277.616 218.943 279.78 269.089C281.945 319.235 286.784 380.835 286.784 380.835L358.654 390.227C358.654 390.227 478.118 227.722 357.94 200.975Z" fill="#1BC6FC"/>
<path opacity="0.08" d="M358.675 234.378C358.675 234.378 343.954 245.751 345.75 276.275C347.547 306.8 354.775 341.469 323.291 337.937C291.807 334.405 282.802 324.4 282.802 324.4L286.886 380.978L358.757 390.37L365.229 380.978C365.229 380.978 412.047 276.827 358.675 234.378Z" fill="black"/>
<path d="M286.784 380.917L267.489 396.965C262.285 401.29 258.208 406.813 255.609 413.061C253.01 419.309 251.967 426.094 252.57 432.834C253.172 439.574 255.402 446.066 259.068 451.754C262.733 457.442 267.725 462.155 273.615 465.487L310.632 486.354L322.883 477.391L295.339 454.4C293.551 452.921 292.141 451.038 291.224 448.906C290.307 446.775 289.91 444.455 290.065 442.14C290.221 439.825 290.924 437.58 292.118 435.59C293.312 433.6 294.962 431.922 296.932 430.695L306.793 424.57C312.272 421.134 318.429 418.926 324.843 418.098C335.521 416.75 353.428 411.299 358.655 390.33L286.784 380.917Z" fill="#24285B"/>
<path d="M356.347 244.096C357.613 219.411 389.138 209.835 403.655 229.804C412.578 242.054 418.785 259.655 414.436 283.788C403.655 343.51 397.367 390.206 365.433 387.061C333.5 383.917 273.451 314.007 273.451 314.007L291.827 301.879C291.827 301.879 329.11 342.285 352.897 342.714C369.803 343 354.183 286.136 356.347 244.096Z" fill="#1BC6FC"/>
<path d="M268.193 264.552L249.895 270.477L260.573 303.461L278.872 297.536L268.193 264.552Z" fill="#002761"/>
<path opacity="0.44" d="M356.347 244.096C357.613 219.411 389.138 209.835 403.655 229.804C412.578 242.054 418.785 259.655 414.436 283.788C403.655 343.51 397.367 390.206 365.433 387.061C333.5 383.917 273.451 314.007 273.451 314.007L291.827 301.879C291.827 301.879 329.11 342.285 352.897 342.714C369.803 343 354.183 286.136 356.347 244.096Z" fill="white"/>
<path d="M277.82 311.066C277.82 311.066 264.59 300.857 268.796 293.282C273.002 285.707 289.805 303.164 289.805 303.164L277.82 311.066Z" fill="#F4A28C"/>
<path d="M358.654 390.309L309.917 537.663L297.667 537.541C297.667 537.541 314.287 439.209 312.49 397.904L358.654 390.309Z" fill="#24285B"/>
<rect width="280" height="178" rx="52" fill="#F2F2F2"/>
<path d="M52.23 121.26L49.69 120.97C49.08 120.9 48.48 121.11 48.05 121.54L46.21 123.38C43.38 121.94 41.06 119.63 39.62 116.79L41.47 114.94C41.9 114.51 42.11 113.91 42.04 113.3L41.75 110.78C41.63 109.77 40.78 109.01 39.76 109.01H38.03C36.9 109.01 35.96 109.95 36.03 111.08C36.56 119.62 43.39 126.44 51.92 126.97C53.05 127.04 53.99 126.1 53.99 124.97V123.24C54 122.23 53.24 121.38 52.23 121.26V121.26Z" fill="#313031"/>
<path d="M78.7393 118.048H82.3604V119.261H78.7393V123.005H77.5176V119.261H73.9141V118.048H77.5176V114.286H78.7393V118.048ZM92.626 117.635C92.626 122.662 90.6807 125.176 86.79 125.176C86.1104 125.176 85.5713 125.117 85.1729 125V123.743C85.6416 123.896 86.1748 123.972 86.7725 123.972C88.1787 123.972 89.2393 123.538 89.9541 122.671C90.6748 121.798 91.0674 120.462 91.1318 118.663H91.0264C90.7041 119.149 90.2764 119.521 89.7432 119.779C89.21 120.031 88.6094 120.157 87.9414 120.157C86.8047 120.157 85.9023 119.817 85.2344 119.138C84.5664 118.458 84.2324 117.509 84.2324 116.29C84.2324 114.954 84.6045 113.899 85.3486 113.126C86.0986 112.353 87.083 111.966 88.3018 111.966C89.1748 111.966 89.9365 112.191 90.5869 112.643C91.2432 113.088 91.7471 113.741 92.0986 114.603C92.4502 115.458 92.626 116.469 92.626 117.635ZM88.3018 113.214C87.4639 113.214 86.8164 113.483 86.3594 114.022C85.9023 114.562 85.6738 115.312 85.6738 116.272C85.6738 117.116 85.8848 117.781 86.3066 118.268C86.7285 118.748 87.3701 118.988 88.2314 118.988C88.7646 118.988 89.2539 118.88 89.6992 118.663C90.1504 118.446 90.5049 118.15 90.7627 117.775C91.0205 117.4 91.1494 117.008 91.1494 116.598C91.1494 115.982 91.0293 115.414 90.7891 114.893C90.5488 114.371 90.2119 113.961 89.7783 113.662C89.3506 113.363 88.8584 113.214 88.3018 113.214ZM94.6299 119.507C94.6299 116.981 95.1191 115.095 96.0977 113.847C97.082 112.593 98.5352 111.966 100.457 111.966C101.119 111.966 101.641 112.021 102.021 112.133V113.39C101.57 113.243 101.055 113.17 100.475 113.17C99.0977 113.17 98.0459 113.601 97.3193 114.462C96.5928 115.317 96.1943 116.665 96.124 118.505H96.2295C96.874 117.497 97.8936 116.993 99.2881 116.993C100.442 116.993 101.351 117.342 102.013 118.039C102.681 118.736 103.015 119.683 103.015 120.878C103.015 122.214 102.648 123.266 101.916 124.033C101.189 124.795 100.205 125.176 98.9629 125.176C97.6328 125.176 96.5781 124.678 95.7988 123.682C95.0195 122.68 94.6299 121.288 94.6299 119.507ZM98.9453 123.937C99.7773 123.937 100.422 123.676 100.879 123.154C101.342 122.627 101.573 121.868 101.573 120.878C101.573 120.028 101.359 119.36 100.932 118.874C100.504 118.388 99.8652 118.145 99.0156 118.145C98.4883 118.145 98.0049 118.253 97.5654 118.47C97.126 118.687 96.7744 118.985 96.5107 119.366C96.2529 119.747 96.124 120.143 96.124 120.553C96.124 121.156 96.2412 121.719 96.4756 122.24C96.71 122.762 97.041 123.175 97.4688 123.479C97.9023 123.784 98.3945 123.937 98.9453 123.937ZM110.187 125H108.763V115.842C108.763 115.08 108.786 114.359 108.833 113.68C108.71 113.803 108.572 113.932 108.42 114.066C108.268 114.201 107.57 114.772 106.328 115.78L105.555 114.778L108.956 112.15H110.187V125ZM121.384 125L126.71 113.495H119.705V112.15H128.257V113.319L123.001 125H121.384ZM134.312 111.966C135.484 111.966 136.413 112.238 137.099 112.783C137.784 113.328 138.127 114.081 138.127 115.042C138.127 115.675 137.931 116.252 137.538 116.773C137.146 117.295 136.519 117.77 135.657 118.197C136.7 118.695 137.441 119.22 137.881 119.771C138.32 120.315 138.54 120.948 138.54 121.669C138.54 122.735 138.168 123.588 137.424 124.227C136.68 124.859 135.66 125.176 134.365 125.176C132.994 125.176 131.939 124.877 131.201 124.279C130.463 123.676 130.094 122.823 130.094 121.722C130.094 120.251 130.99 119.105 132.783 118.285C131.975 117.828 131.395 117.336 131.043 116.809C130.691 116.275 130.516 115.681 130.516 115.024C130.516 114.093 130.858 113.352 131.544 112.801C132.235 112.244 133.158 111.966 134.312 111.966ZM131.535 121.757C131.535 122.46 131.778 123.008 132.265 123.4C132.757 123.793 133.445 123.989 134.33 123.989C135.203 123.989 135.883 123.784 136.369 123.374C136.855 122.964 137.099 122.401 137.099 121.687C137.099 121.118 136.87 120.614 136.413 120.175C135.956 119.729 135.159 119.299 134.022 118.883C133.149 119.258 132.517 119.674 132.124 120.131C131.731 120.582 131.535 121.124 131.535 121.757ZM134.295 113.152C133.562 113.152 132.988 113.328 132.572 113.68C132.156 114.031 131.948 114.5 131.948 115.086C131.948 115.625 132.121 116.088 132.467 116.475C132.812 116.861 133.451 117.248 134.383 117.635C135.221 117.283 135.812 116.905 136.158 116.501C136.51 116.097 136.686 115.625 136.686 115.086C136.686 114.494 136.472 114.025 136.044 113.68C135.622 113.328 135.039 113.152 134.295 113.152ZM153.481 117.635C153.481 122.662 151.536 125.176 147.646 125.176C146.966 125.176 146.427 125.117 146.028 125V123.743C146.497 123.896 147.03 123.972 147.628 123.972C149.034 123.972 150.095 123.538 150.81 122.671C151.53 121.798 151.923 120.462 151.987 118.663H151.882C151.56 119.149 151.132 119.521 150.599 119.779C150.065 120.031 149.465 120.157 148.797 120.157C147.66 120.157 146.758 119.817 146.09 119.138C145.422 118.458 145.088 117.509 145.088 116.29C145.088 114.954 145.46 113.899 146.204 113.126C146.954 112.353 147.938 111.966 149.157 111.966C150.03 111.966 150.792 112.191 151.442 112.643C152.099 113.088 152.603 113.741 152.954 114.603C153.306 115.458 153.481 116.469 153.481 117.635ZM149.157 113.214C148.319 113.214 147.672 113.483 147.215 114.022C146.758 114.562 146.529 115.312 146.529 116.272C146.529 117.116 146.74 117.781 147.162 118.268C147.584 118.748 148.226 118.988 149.087 118.988C149.62 118.988 150.109 118.88 150.555 118.663C151.006 118.446 151.36 118.15 151.618 117.775C151.876 117.4 152.005 117.008 152.005 116.598C152.005 115.982 151.885 115.414 151.645 114.893C151.404 114.371 151.067 113.961 150.634 113.662C150.206 113.363 149.714 113.214 149.157 113.214ZM156.962 125L162.288 113.495H155.283V112.15H163.835V113.319L158.579 125H156.962ZM171.042 125H169.618V115.842C169.618 115.08 169.642 114.359 169.688 113.68C169.565 113.803 169.428 113.932 169.275 114.066C169.123 114.201 168.426 114.772 167.184 115.78L166.41 114.778L169.812 112.15H171.042V125ZM189.13 118.558C189.13 120.778 188.778 122.437 188.075 123.532C187.378 124.628 186.309 125.176 184.867 125.176C183.484 125.176 182.433 124.616 181.712 123.497C180.991 122.372 180.631 120.726 180.631 118.558C180.631 116.319 180.979 114.658 181.677 113.574C182.374 112.49 183.438 111.948 184.867 111.948C186.262 111.948 187.319 112.514 188.04 113.645C188.767 114.775 189.13 116.413 189.13 118.558ZM182.107 118.558C182.107 120.427 182.327 121.789 182.767 122.645C183.206 123.494 183.906 123.919 184.867 123.919C185.84 123.919 186.543 123.488 186.977 122.627C187.416 121.76 187.636 120.403 187.636 118.558C187.636 116.712 187.416 115.361 186.977 114.506C186.543 113.645 185.84 113.214 184.867 113.214C183.906 113.214 183.206 113.639 182.767 114.488C182.327 115.332 182.107 116.688 182.107 118.558ZM192.54 125L197.866 113.495H190.861V112.15H199.413V113.319L194.157 125H192.54ZM209.178 115.174C209.178 115.994 208.946 116.665 208.483 117.187C208.026 117.708 207.376 118.057 206.532 118.232V118.303C207.563 118.432 208.328 118.76 208.826 119.287C209.324 119.814 209.573 120.506 209.573 121.361C209.573 122.586 209.148 123.529 208.299 124.191C207.449 124.848 206.242 125.176 204.678 125.176C203.998 125.176 203.374 125.123 202.806 125.018C202.243 124.918 201.695 124.739 201.162 124.481V123.093C201.719 123.368 202.311 123.579 202.938 123.726C203.57 123.866 204.168 123.937 204.73 123.937C206.951 123.937 208.062 123.066 208.062 121.326C208.062 119.768 206.837 118.988 204.388 118.988H203.122V117.731H204.405C205.407 117.731 206.201 117.512 206.787 117.072C207.373 116.627 207.666 116.012 207.666 115.227C207.666 114.6 207.449 114.107 207.016 113.75C206.588 113.393 206.005 113.214 205.267 113.214C204.704 113.214 204.174 113.29 203.676 113.442C203.178 113.595 202.609 113.876 201.971 114.286L201.232 113.302C201.76 112.886 202.366 112.561 203.052 112.326C203.743 112.086 204.47 111.966 205.231 111.966C206.479 111.966 207.449 112.253 208.141 112.827C208.832 113.396 209.178 114.178 209.178 115.174Z" fill="#313031"/>
<path d="M45 150C46.1 150 47 149.1 47 148C47 146.9 46.1 146 45 146C43.9 146 43 146.9 43 148C43 149.1 43.9 150 45 150ZM45 140C49.2 140 53 143.22 53 148.2C53 151.38 50.55 155.12 45.66 159.43C45.28 159.76 44.71 159.76 44.33 159.43C39.45 155.12 37 151.38 37 148.2C37 143.22 40.8 140 45 140Z" fill="#DF450D"/>
<path d="M78.7217 157H77.2275V145.478H73.1582V144.15H82.791V145.478H78.7217V157ZM82.9844 147.367H84.5488L86.6582 152.86C87.1211 154.114 87.4082 155.02 87.5195 155.576H87.5898C87.666 155.277 87.8242 154.768 88.0645 154.047C88.3105 153.32 89.1074 151.094 90.4551 147.367H92.0195L87.8799 158.336C87.4697 159.42 86.9893 160.188 86.4385 160.639C85.8936 161.096 85.2227 161.324 84.4258 161.324C83.9805 161.324 83.541 161.274 83.1074 161.175V160.006C83.4297 160.076 83.79 160.111 84.1885 160.111C85.1904 160.111 85.9053 159.549 86.333 158.424L86.8691 157.053L82.9844 147.367ZM97.9785 147.191C98.4062 147.191 98.79 147.227 99.1299 147.297L98.9277 148.65C98.5293 148.562 98.1777 148.519 97.873 148.519C97.0938 148.519 96.4258 148.835 95.8691 149.468C95.3184 150.101 95.043 150.889 95.043 151.832V157H93.584V147.367H94.7881L94.9551 149.151H95.0254C95.3828 148.524 95.8135 148.041 96.3174 147.701C96.8213 147.361 97.375 147.191 97.9785 147.191ZM105.001 157.176C103.577 157.176 102.452 156.742 101.626 155.875C100.806 155.008 100.396 153.804 100.396 152.263C100.396 150.71 100.776 149.477 101.538 148.562C102.306 147.648 103.334 147.191 104.623 147.191C105.83 147.191 106.785 147.59 107.488 148.387C108.191 149.178 108.543 150.224 108.543 151.524V152.447H101.907C101.937 153.578 102.221 154.437 102.76 155.022C103.305 155.608 104.069 155.901 105.054 155.901C106.091 155.901 107.116 155.685 108.13 155.251V156.552C107.614 156.774 107.125 156.933 106.662 157.026C106.205 157.126 105.651 157.176 105.001 157.176ZM104.605 148.413C103.832 148.413 103.214 148.665 102.751 149.169C102.294 149.673 102.024 150.37 101.942 151.261H106.979C106.979 150.341 106.773 149.638 106.363 149.151C105.953 148.659 105.367 148.413 104.605 148.413ZM112.568 154.908L112.7 155.11C112.548 155.696 112.328 156.376 112.041 157.149C111.754 157.929 111.455 158.652 111.145 159.32H110.046C110.204 158.711 110.377 157.958 110.564 157.062C110.758 156.165 110.893 155.447 110.969 154.908H112.568ZM127.598 153.581C127.598 154.712 127.188 155.594 126.367 156.227C125.547 156.859 124.434 157.176 123.027 157.176C121.504 157.176 120.332 156.979 119.512 156.587V155.146C120.039 155.368 120.613 155.544 121.234 155.673C121.855 155.802 122.471 155.866 123.08 155.866C124.076 155.866 124.826 155.679 125.33 155.304C125.834 154.923 126.086 154.396 126.086 153.722C126.086 153.276 125.995 152.913 125.813 152.632C125.638 152.345 125.339 152.081 124.917 151.841C124.501 151.601 123.865 151.328 123.01 151.023C121.814 150.596 120.959 150.089 120.443 149.503C119.934 148.917 119.679 148.152 119.679 147.209C119.679 146.219 120.051 145.431 120.795 144.845C121.539 144.259 122.523 143.966 123.748 143.966C125.025 143.966 126.2 144.2 127.272 144.669L126.807 145.97C125.746 145.524 124.715 145.302 123.713 145.302C122.922 145.302 122.304 145.472 121.858 145.812C121.413 146.151 121.19 146.623 121.19 147.227C121.19 147.672 121.272 148.038 121.437 148.325C121.601 148.606 121.876 148.867 122.263 149.107C122.655 149.342 123.253 149.603 124.056 149.89C125.403 150.37 126.329 150.886 126.833 151.437C127.343 151.987 127.598 152.702 127.598 153.581ZM138.32 152.175C138.32 153.745 137.925 154.973 137.134 155.857C136.343 156.736 135.25 157.176 133.855 157.176C132.994 157.176 132.229 156.974 131.562 156.569C130.894 156.165 130.378 155.585 130.015 154.829C129.651 154.073 129.47 153.188 129.47 152.175C129.47 150.604 129.862 149.383 130.647 148.51C131.433 147.631 132.522 147.191 133.917 147.191C135.265 147.191 136.334 147.64 137.125 148.536C137.922 149.433 138.32 150.646 138.32 152.175ZM130.981 152.175C130.981 153.405 131.228 154.343 131.72 154.987C132.212 155.632 132.936 155.954 133.891 155.954C134.846 155.954 135.569 155.635 136.062 154.996C136.56 154.352 136.809 153.411 136.809 152.175C136.809 150.95 136.56 150.021 136.062 149.389C135.569 148.75 134.84 148.431 133.873 148.431C132.918 148.431 132.197 148.744 131.711 149.371C131.225 149.998 130.981 150.933 130.981 152.175ZM142.258 147.367V153.616C142.258 154.401 142.437 154.987 142.794 155.374C143.151 155.761 143.711 155.954 144.473 155.954C145.48 155.954 146.216 155.679 146.679 155.128C147.147 154.577 147.382 153.678 147.382 152.43V147.367H148.841V157H147.637L147.426 155.708H147.347C147.048 156.183 146.632 156.546 146.099 156.798C145.571 157.05 144.968 157.176 144.288 157.176C143.116 157.176 142.237 156.897 141.651 156.341C141.071 155.784 140.781 154.894 140.781 153.669V147.367H142.258ZM155.055 155.972C155.312 155.972 155.562 155.954 155.802 155.919C156.042 155.878 156.232 155.837 156.373 155.796V156.912C156.215 156.988 155.98 157.05 155.67 157.097C155.365 157.149 155.09 157.176 154.844 157.176C152.98 157.176 152.049 156.194 152.049 154.231V148.501H150.669V147.798L152.049 147.191L152.664 145.135H153.508V147.367H156.303V148.501H153.508V154.17C153.508 154.75 153.646 155.195 153.921 155.506C154.196 155.816 154.574 155.972 155.055 155.972ZM164.898 157V150.769C164.898 149.983 164.72 149.397 164.362 149.011C164.005 148.624 163.445 148.431 162.684 148.431C161.67 148.431 160.929 148.706 160.46 149.257C159.997 149.808 159.766 150.71 159.766 151.964V157H158.307V143.324H159.766V147.464C159.766 147.962 159.742 148.375 159.695 148.703H159.783C160.07 148.24 160.478 147.877 161.005 147.613C161.538 147.344 162.145 147.209 162.824 147.209C164.002 147.209 164.884 147.49 165.47 148.053C166.062 148.609 166.357 149.497 166.357 150.716V157H164.898ZM174.259 157V144.15H175.753V155.646H181.422V157H174.259ZM187.46 157.176C186.036 157.176 184.911 156.742 184.085 155.875C183.265 155.008 182.854 153.804 182.854 152.263C182.854 150.71 183.235 149.477 183.997 148.562C184.765 147.648 185.793 147.191 187.082 147.191C188.289 147.191 189.244 147.59 189.947 148.387C190.65 149.178 191.002 150.224 191.002 151.524V152.447H184.366C184.396 153.578 184.68 154.437 185.219 155.022C185.764 155.608 186.528 155.901 187.513 155.901C188.55 155.901 189.575 155.685 190.589 155.251V156.552C190.073 156.774 189.584 156.933 189.121 157.026C188.664 157.126 188.11 157.176 187.46 157.176ZM187.064 148.413C186.291 148.413 185.673 148.665 185.21 149.169C184.753 149.673 184.483 150.37 184.401 151.261H189.438C189.438 150.341 189.232 149.638 188.822 149.151C188.412 148.659 187.826 148.413 187.064 148.413ZM197.98 147.209C199.246 147.209 200.228 147.643 200.925 148.51C201.628 149.371 201.979 150.593 201.979 152.175C201.979 153.757 201.625 154.987 200.916 155.866C200.213 156.739 199.234 157.176 197.98 157.176C197.354 157.176 196.779 157.062 196.258 156.833C195.742 156.599 195.309 156.241 194.957 155.761H194.852L194.544 157H193.498V143.324H194.957V146.646C194.957 147.391 194.934 148.059 194.887 148.65H194.957C195.637 147.689 196.645 147.209 197.98 147.209ZM197.77 148.431C196.773 148.431 196.056 148.718 195.616 149.292C195.177 149.86 194.957 150.821 194.957 152.175C194.957 153.528 195.183 154.498 195.634 155.084C196.085 155.664 196.809 155.954 197.805 155.954C198.701 155.954 199.369 155.629 199.809 154.979C200.248 154.322 200.468 153.382 200.468 152.157C200.468 150.903 200.248 149.969 199.809 149.354C199.369 148.738 198.689 148.431 197.77 148.431ZM210.461 157L210.171 155.629H210.101C209.62 156.232 209.14 156.643 208.659 156.859C208.185 157.07 207.59 157.176 206.875 157.176C205.92 157.176 205.17 156.93 204.625 156.438C204.086 155.945 203.816 155.245 203.816 154.337C203.816 152.392 205.372 151.372 208.483 151.278L210.118 151.226V150.628C210.118 149.872 209.954 149.315 209.626 148.958C209.304 148.595 208.785 148.413 208.07 148.413C207.268 148.413 206.359 148.659 205.346 149.151L204.897 148.035C205.372 147.777 205.891 147.575 206.453 147.429C207.021 147.282 207.59 147.209 208.158 147.209C209.307 147.209 210.156 147.464 210.707 147.974C211.264 148.483 211.542 149.301 211.542 150.426V157H210.461ZM207.165 155.972C208.073 155.972 208.785 155.723 209.301 155.225C209.822 154.727 210.083 154.029 210.083 153.133V152.263L208.624 152.324C207.464 152.365 206.626 152.547 206.11 152.869C205.601 153.186 205.346 153.681 205.346 154.354C205.346 154.882 205.504 155.283 205.82 155.559C206.143 155.834 206.591 155.972 207.165 155.972ZM221.148 157V150.769C221.148 149.983 220.97 149.397 220.612 149.011C220.255 148.624 219.695 148.431 218.934 148.431C217.926 148.431 217.188 148.703 216.719 149.248C216.25 149.793 216.016 150.692 216.016 151.946V157H214.557V147.367H215.743L215.98 148.686H216.051C216.35 148.211 216.769 147.845 217.308 147.587C217.847 147.323 218.447 147.191 219.109 147.191C220.27 147.191 221.143 147.473 221.729 148.035C222.314 148.592 222.607 149.485 222.607 150.716V157H221.148ZM233.928 152.175C233.928 153.745 233.532 154.973 232.741 155.857C231.95 156.736 230.857 157.176 229.463 157.176C228.602 157.176 227.837 156.974 227.169 156.569C226.501 156.165 225.985 155.585 225.622 154.829C225.259 154.073 225.077 153.188 225.077 152.175C225.077 150.604 225.47 149.383 226.255 148.51C227.04 147.631 228.13 147.191 229.524 147.191C230.872 147.191 231.941 147.64 232.732 148.536C233.529 149.433 233.928 150.646 233.928 152.175ZM226.589 152.175C226.589 153.405 226.835 154.343 227.327 154.987C227.819 155.632 228.543 155.954 229.498 155.954C230.453 155.954 231.177 155.635 231.669 154.996C232.167 154.352 232.416 153.411 232.416 152.175C232.416 150.95 232.167 150.021 231.669 149.389C231.177 148.75 230.447 148.431 229.48 148.431C228.525 148.431 227.805 148.744 227.318 149.371C226.832 149.998 226.589 150.933 226.589 152.175ZM243.086 157V150.769C243.086 149.983 242.907 149.397 242.55 149.011C242.192 148.624 241.633 148.431 240.871 148.431C239.863 148.431 239.125 148.703 238.656 149.248C238.188 149.793 237.953 150.692 237.953 151.946V157H236.494V147.367H237.681L237.918 148.686H237.988C238.287 148.211 238.706 147.845 239.245 147.587C239.784 147.323 240.385 147.191 241.047 147.191C242.207 147.191 243.08 147.473 243.666 148.035C244.252 148.592 244.545 149.485 244.545 150.716V157H243.086Z" fill="#313031"/>
<path d="M37.2332 26.3533C37.2332 27.5886 36.8103 28.54 35.9646 29.2077C35.1244 29.8699 33.9198 30.2009 32.3507 30.2009H30.9151V35H29.4963V22.7979H32.6595C35.7086 22.7979 37.2332 23.983 37.2332 26.3533ZM30.9151 28.9824H32.1921C33.4496 28.9824 34.3593 28.7793 34.9213 28.3731C35.4833 27.9669 35.7643 27.3159 35.7643 26.4201C35.7643 25.6133 35.5 25.0124 34.9714 24.6173C34.4428 24.2223 33.6193 24.0247 32.5009 24.0247H30.9151V28.9824ZM47.4823 30.4179C47.4823 31.9091 47.1068 33.0748 46.3556 33.915C45.6044 34.7496 44.5667 35.1669 43.2425 35.1669C42.4245 35.1669 41.6984 34.975 41.0641 34.591C40.4298 34.2071 39.9402 33.6563 39.5952 32.9385C39.2502 32.2207 39.0777 31.3805 39.0777 30.4179C39.0777 28.9267 39.4505 27.7666 40.1961 26.9376C40.9417 26.1029 41.9766 25.6856 43.3009 25.6856C44.5806 25.6856 45.5961 26.1113 46.3473 26.9626C47.104 27.8139 47.4823 28.9657 47.4823 30.4179ZM40.5133 30.4179C40.5133 31.5864 40.747 32.4767 41.2143 33.0887C41.6817 33.7008 42.3689 34.0068 43.2759 34.0068C44.1828 34.0068 44.87 33.7036 45.3374 33.0971C45.8103 32.485 46.0468 31.592 46.0468 30.4179C46.0468 29.255 45.8103 28.3731 45.3374 27.7722C44.87 27.1657 44.1772 26.8625 43.2592 26.8625C42.3522 26.8625 41.6678 27.1601 41.206 27.7555C40.7442 28.3509 40.5133 29.2383 40.5133 30.4179ZM57.3893 35L55.7117 29.6334C55.606 29.3051 55.4085 28.5595 55.1191 27.3966H55.0523C54.8298 28.3703 54.635 29.1215 54.4681 29.6501L52.7404 35H51.138L48.6425 25.8526H50.0947C50.6845 28.1505 51.1324 29.9005 51.4384 31.1023C51.75 32.3042 51.9281 33.1138 51.9726 33.5311H52.0394C52.1006 33.2139 52.1979 32.8049 52.3315 32.3042C52.4706 31.7978 52.5902 31.3972 52.6904 31.1023L54.368 25.8526H55.8703L57.5061 31.1023C57.8177 32.0594 58.0292 32.8634 58.1404 33.5144H58.2072C58.2295 33.3141 58.2879 33.0053 58.3825 32.5879C58.4826 32.1706 59.0641 29.9255 60.1268 25.8526H61.5624L59.0335 35H57.3893ZM67.0876 35.1669C65.7355 35.1669 64.6672 34.7552 63.8826 33.9317C63.1037 33.1082 62.7142 31.9648 62.7142 30.5014C62.7142 29.0269 63.0758 27.8557 63.7992 26.9876C64.5281 26.1196 65.5046 25.6856 66.7287 25.6856C67.8749 25.6856 68.7819 26.064 69.4495 26.8207C70.1172 27.5719 70.4511 28.5651 70.4511 29.8003V30.6767H64.1497C64.1775 31.7505 64.4474 32.5657 64.9593 33.1221C65.4768 33.6785 66.2029 33.9567 67.1376 33.9567C68.1225 33.9567 69.0962 33.7509 70.0588 33.3391V34.5743C69.5692 34.7858 69.1046 34.936 68.665 35.025C68.231 35.1196 67.7052 35.1669 67.0876 35.1669ZM66.712 26.8458C65.9775 26.8458 65.3905 27.085 64.9509 27.5635C64.5169 28.042 64.261 28.7042 64.1831 29.5499H68.9655C68.9655 28.6764 68.7707 28.0087 68.3812 27.5468C67.9917 27.0795 67.4353 26.8458 66.712 26.8458ZM76.9945 25.6856C77.4007 25.6856 77.7651 25.719 78.0879 25.7858L77.8959 27.0711C77.5175 26.9876 77.1837 26.9459 76.8944 26.9459C76.1543 26.9459 75.52 27.2464 74.9914 27.8473C74.4684 28.4482 74.2069 29.1966 74.2069 30.0924V35H72.8214V25.8526H73.9648L74.1234 27.5468H74.1902C74.5296 26.9515 74.9386 26.4924 75.4171 26.1697C75.8956 25.847 76.4214 25.6856 76.9945 25.6856ZM82.7868 25.8526H84.2724L86.2755 31.0689C86.7151 32.2597 86.9877 33.1193 87.0934 33.6479H87.1602C87.2325 33.3641 87.3828 32.8801 87.6109 32.1957C87.8446 31.5057 88.6013 29.3914 89.8811 25.8526H91.3667L87.4356 36.2686C87.0461 37.298 86.5899 38.0269 86.0668 38.4553C85.5494 38.8893 84.9123 39.1063 84.1556 39.1063C83.7327 39.1063 83.3154 39.059 82.9036 38.9644V37.8544C83.2097 37.9212 83.5518 37.9546 83.9302 37.9546C84.8817 37.9546 85.5605 37.4204 85.9667 36.3521L86.4758 35.0501L82.7868 25.8526ZM100.748 30.4179C100.748 31.9091 100.372 33.0748 99.6211 33.915C98.8699 34.7496 97.8322 35.1669 96.5079 35.1669C95.69 35.1669 94.9639 34.975 94.3296 34.591C93.6953 34.2071 93.2056 33.6563 92.8606 32.9385C92.5157 32.2207 92.3432 31.3805 92.3432 30.4179C92.3432 28.9267 92.716 27.7666 93.4616 26.9376C94.2072 26.1029 95.2421 25.6856 96.5664 25.6856C97.8461 25.6856 98.8616 26.1113 99.6127 26.9626C100.369 27.8139 100.748 28.9657 100.748 30.4179ZM93.7787 30.4179C93.7787 31.5864 94.0124 32.4767 94.4798 33.0887C94.9472 33.7008 95.6344 34.0068 96.5413 34.0068C97.4483 34.0068 98.1354 33.7036 98.6028 33.0971C99.0758 32.485 99.3123 31.592 99.3123 30.4179C99.3123 29.255 99.0758 28.3731 98.6028 27.7722C98.1354 27.1657 97.4427 26.8625 96.5246 26.8625C95.6177 26.8625 94.9333 27.1601 94.4715 27.7555C94.0096 28.3509 93.7787 29.2383 93.7787 30.4179ZM104.487 25.8526V31.7867C104.487 32.5323 104.657 33.0887 104.996 33.456C105.335 33.8232 105.867 34.0068 106.59 34.0068C107.547 34.0068 108.245 33.7453 108.685 33.2223C109.13 32.6992 109.353 31.8451 109.353 30.66V25.8526H110.738V35H109.595L109.394 33.7731H109.319C109.036 34.2238 108.641 34.5688 108.134 34.808C107.633 35.0473 107.06 35.1669 106.415 35.1669C105.302 35.1669 104.467 34.9026 103.911 34.374C103.36 33.8454 103.085 32.9997 103.085 31.8368V25.8526H104.487ZM117.858 25.6856C118.264 25.6856 118.628 25.719 118.951 25.7858L118.759 27.0711C118.381 26.9876 118.047 26.9459 117.757 26.9459C117.017 26.9459 116.383 27.2464 115.854 27.8473C115.331 28.4482 115.07 29.1966 115.07 30.0924V35H113.684V25.8526H114.828L114.986 27.5468H115.053C115.393 26.9515 115.802 26.4924 116.28 26.1697C116.759 25.847 117.284 25.6856 117.858 25.6856ZM129.359 25.7023C130.56 25.7023 131.492 26.1141 132.155 26.9376C132.822 27.7555 133.156 28.9156 133.156 30.4179C133.156 31.9203 132.819 33.0887 132.146 33.9233C131.479 34.7524 130.549 35.1669 129.359 35.1669C128.763 35.1669 128.218 35.0584 127.723 34.8414C127.233 34.6189 126.821 34.2794 126.487 33.8232H126.387L126.095 35H125.102V22.0133H126.487V25.1682C126.487 25.8748 126.465 26.5091 126.421 27.0711H126.487C127.133 26.1586 128.09 25.7023 129.359 25.7023ZM129.158 26.8625C128.212 26.8625 127.531 27.1351 127.113 27.6804C126.696 28.2201 126.487 29.1326 126.487 30.4179C126.487 31.7032 126.702 32.6241 127.13 33.1805C127.559 33.7314 128.246 34.0068 129.192 34.0068C130.043 34.0068 130.677 33.698 131.095 33.0804C131.512 32.4572 131.721 31.5641 131.721 30.4012C131.721 29.2105 131.512 28.323 131.095 27.7388C130.677 27.1546 130.032 26.8625 129.158 26.8625ZM136.887 25.8526V31.7867C136.887 32.5323 137.057 33.0887 137.396 33.456C137.735 33.8232 138.267 34.0068 138.99 34.0068C139.947 34.0068 140.645 33.7453 141.085 33.2223C141.53 32.6992 141.753 31.8451 141.753 30.66V25.8526H143.138V35H141.995L141.794 33.7731H141.719C141.436 34.2238 141.04 34.5688 140.534 34.808C140.033 35.0473 139.46 35.1669 138.815 35.1669C137.702 35.1669 136.867 34.9026 136.311 34.374C135.76 33.8454 135.485 32.9997 135.485 31.8368V25.8526H136.887ZM151.985 32.5045C151.985 33.3558 151.668 34.0124 151.034 34.4742C150.399 34.936 149.509 35.1669 148.363 35.1669C147.15 35.1669 146.204 34.975 145.525 34.591V33.3057C145.965 33.5283 146.435 33.7036 146.936 33.8315C147.442 33.9595 147.929 34.0235 148.396 34.0235C149.12 34.0235 149.676 33.9094 150.066 33.6813C150.455 33.4476 150.65 33.0943 150.65 32.6213C150.65 32.2652 150.494 31.962 150.182 31.7116C149.876 31.4556 149.275 31.1552 148.38 30.8102C147.528 30.4931 146.922 30.2176 146.56 29.9839C146.204 29.7447 145.937 29.4748 145.759 29.1744C145.586 28.8739 145.5 28.515 145.5 28.0977C145.5 27.3521 145.803 26.7651 146.41 26.3366C147.016 25.9026 147.848 25.6856 148.905 25.6856C149.89 25.6856 150.853 25.8859 151.793 26.2866L151.301 27.4133C150.383 27.0349 149.551 26.8458 148.805 26.8458C148.149 26.8458 147.653 26.9487 147.32 27.1546C146.986 27.3604 146.819 27.6442 146.819 28.0059C146.819 28.2507 146.88 28.4594 147.002 28.6318C147.13 28.8043 147.334 28.9685 147.612 29.1243C147.89 29.2801 148.424 29.5054 149.214 29.8003C150.299 30.1954 151.031 30.5932 151.409 30.9938C151.793 31.3944 151.985 31.898 151.985 32.5045ZM155.632 35H154.247V25.8526H155.632V35ZM154.13 23.3737C154.13 23.0566 154.208 22.8257 154.364 22.681C154.52 22.5308 154.714 22.4557 154.948 22.4557C155.171 22.4557 155.363 22.5308 155.524 22.681C155.685 22.8312 155.766 23.0621 155.766 23.3737C155.766 23.6853 155.685 23.919 155.524 24.0748C155.363 24.2251 155.171 24.3002 154.948 24.3002C154.714 24.3002 154.52 24.2251 154.364 24.0748C154.208 23.919 154.13 23.6853 154.13 23.3737ZM164.83 35V29.0825C164.83 28.3369 164.66 27.7805 164.321 27.4133C163.981 27.0461 163.45 26.8625 162.727 26.8625C161.77 26.8625 161.069 27.1212 160.623 27.6386C160.178 28.1561 159.956 29.0102 159.956 30.2009V35H158.57V25.8526H159.697L159.922 27.1045H159.989C160.273 26.6538 160.671 26.306 161.183 26.0612C161.695 25.8108 162.265 25.6856 162.894 25.6856C163.995 25.6856 164.824 25.9527 165.381 26.4869C165.937 27.0155 166.215 27.864 166.215 29.0325V35H164.83ZM172.934 35.1669C171.582 35.1669 170.514 34.7552 169.729 33.9317C168.95 33.1082 168.561 31.9648 168.561 30.5014C168.561 29.0269 168.922 27.8557 169.646 26.9876C170.375 26.1196 171.351 25.6856 172.575 25.6856C173.721 25.6856 174.628 26.064 175.296 26.8207C175.964 27.5719 176.298 28.5651 176.298 29.8003V30.6767H169.996C170.024 31.7505 170.294 32.5657 170.806 33.1221C171.323 33.6785 172.049 33.9567 172.984 33.9567C173.969 33.9567 174.943 33.7509 175.905 33.3391V34.5743C175.416 34.7858 174.951 34.936 174.512 35.025C174.078 35.1196 173.552 35.1669 172.934 35.1669ZM172.559 26.8458C171.824 26.8458 171.237 27.085 170.797 27.5635C170.363 28.042 170.108 28.7042 170.03 29.5499H174.812C174.812 28.6764 174.617 28.0087 174.228 27.5468C173.838 27.0795 173.282 26.8458 172.559 26.8458ZM184.569 32.5045C184.569 33.3558 184.252 34.0124 183.617 34.4742C182.983 34.936 182.093 35.1669 180.946 35.1669C179.733 35.1669 178.788 34.975 178.109 34.591V33.3057C178.548 33.5283 179.019 33.7036 179.519 33.8315C180.026 33.9595 180.512 34.0235 180.98 34.0235C181.703 34.0235 182.26 33.9094 182.649 33.6813C183.039 33.4476 183.233 33.0943 183.233 32.6213C183.233 32.2652 183.078 31.962 182.766 31.7116C182.46 31.4556 181.859 31.1552 180.963 30.8102C180.112 30.4931 179.505 30.2176 179.144 29.9839C178.788 29.7447 178.521 29.4748 178.342 29.1744C178.17 28.8739 178.084 28.515 178.084 28.0977C178.084 27.3521 178.387 26.7651 178.993 26.3366C179.6 25.9026 180.432 25.6856 181.489 25.6856C182.474 25.6856 183.436 25.8859 184.377 26.2866L183.884 27.4133C182.966 27.0349 182.134 26.8458 181.389 26.8458C180.732 26.8458 180.237 26.9487 179.903 27.1546C179.569 27.3604 179.402 27.6442 179.402 28.0059C179.402 28.2507 179.464 28.4594 179.586 28.6318C179.714 28.8043 179.917 28.9685 180.195 29.1243C180.474 29.2801 181.008 29.5054 181.798 29.8003C182.883 30.1954 183.614 30.5932 183.993 30.9938C184.377 31.3944 184.569 31.898 184.569 32.5045ZM192.731 32.5045C192.731 33.3558 192.414 34.0124 191.78 34.4742C191.146 34.936 190.255 35.1669 189.109 35.1669C187.896 35.1669 186.95 34.975 186.271 34.591V33.3057C186.711 33.5283 187.181 33.7036 187.682 33.8315C188.188 33.9595 188.675 34.0235 189.142 34.0235C189.866 34.0235 190.422 33.9094 190.812 33.6813C191.201 33.4476 191.396 33.0943 191.396 32.6213C191.396 32.2652 191.24 31.962 190.929 31.7116C190.622 31.4556 190.022 31.1552 189.126 30.8102C188.274 30.4931 187.668 30.2176 187.306 29.9839C186.95 29.7447 186.683 29.4748 186.505 29.1744C186.333 28.8739 186.246 28.515 186.246 28.0977C186.246 27.3521 186.55 26.7651 187.156 26.3366C187.763 25.9026 188.594 25.6856 189.652 25.6856C190.636 25.6856 191.599 25.8859 192.539 26.2866L192.047 27.4133C191.129 27.0349 190.297 26.8458 189.551 26.8458C188.895 26.8458 188.4 26.9487 188.066 27.1546C187.732 27.3604 187.565 27.6442 187.565 28.0059C187.565 28.2507 187.626 28.4594 187.749 28.6318C187.877 28.8043 188.08 28.9685 188.358 29.1243C188.636 29.2801 189.17 29.5054 189.96 29.8003C191.045 30.1954 191.777 30.5932 192.155 30.9938C192.539 31.3944 192.731 31.898 192.731 32.5045ZM202.388 34.0235C202.633 34.0235 202.869 34.0068 203.097 33.9734C203.325 33.9345 203.506 33.8955 203.64 33.8566V34.9165C203.49 34.9889 203.267 35.0473 202.972 35.0918C202.683 35.1419 202.421 35.1669 202.188 35.1669C200.418 35.1669 199.533 34.2349 199.533 32.3709V26.9292H198.223V26.2615L199.533 25.6856L200.118 23.7326H200.919V25.8526H203.573V26.9292H200.919V32.3125C200.919 32.8634 201.05 33.2862 201.311 33.5811C201.573 33.876 201.932 34.0235 202.388 34.0235ZM213.371 30.4179C213.371 31.9091 212.996 33.0748 212.245 33.915C211.494 34.7496 210.456 35.1669 209.132 35.1669C208.314 35.1669 207.588 34.975 206.953 34.591C206.319 34.2071 205.829 33.6563 205.484 32.9385C205.139 32.2207 204.967 31.3805 204.967 30.4179C204.967 28.9267 205.34 27.7666 206.085 26.9376C206.831 26.1029 207.866 25.6856 209.19 25.6856C210.47 25.6856 211.485 26.1113 212.236 26.9626C212.993 27.8139 213.371 28.9657 213.371 30.4179ZM206.402 30.4179C206.402 31.5864 206.636 32.4767 207.103 33.0887C207.571 33.7008 208.258 34.0068 209.165 34.0068C210.072 34.0068 210.759 33.7036 211.226 33.0971C211.699 32.485 211.936 31.592 211.936 30.4179C211.936 29.255 211.699 28.3731 211.226 27.7722C210.759 27.1657 210.066 26.8625 209.148 26.8625C208.241 26.8625 207.557 27.1601 207.095 27.7555C206.633 28.3509 206.402 29.2383 206.402 30.4179ZM226.508 35V29.0825C226.508 28.3369 226.339 27.7805 225.999 27.4133C225.66 27.0461 225.128 26.8625 224.405 26.8625C223.448 26.8625 222.747 27.1212 222.302 27.6386C221.857 28.1561 221.634 29.0102 221.634 30.2009V35H220.249V25.8526H221.375L221.601 27.1045H221.668C221.951 26.6538 222.349 26.306 222.861 26.0612C223.373 25.8108 223.943 25.6856 224.572 25.6856C225.674 25.6856 226.503 25.9527 227.059 26.4869C227.616 27.0155 227.894 27.864 227.894 29.0325V35H226.508ZM234.613 35.1669C233.26 35.1669 232.192 34.7552 231.408 33.9317C230.629 33.1082 230.239 31.9648 230.239 30.5014C230.239 29.0269 230.601 27.8557 231.324 26.9876C232.053 26.1196 233.03 25.6856 234.254 25.6856C235.4 25.6856 236.307 26.064 236.975 26.8207C237.642 27.5719 237.976 28.5651 237.976 29.8003V30.6767H231.675C231.703 31.7505 231.972 32.5657 232.484 33.1221C233.002 33.6785 233.728 33.9567 234.663 33.9567C235.647 33.9567 236.621 33.7509 237.584 33.3391V34.5743C237.094 34.7858 236.63 34.936 236.19 35.025C235.756 35.1196 235.23 35.1669 234.613 35.1669ZM234.237 26.8458C233.503 26.8458 232.915 27.085 232.476 27.5635C232.042 28.042 231.786 28.7042 231.708 29.5499H236.49C236.49 28.6764 236.296 28.0087 235.906 27.5468C235.517 27.0795 234.96 26.8458 234.237 26.8458ZM247.816 35L246.139 29.6334C246.033 29.3051 245.835 28.5595 245.546 27.3966H245.479C245.257 28.3703 245.062 29.1215 244.895 29.6501L243.167 35H241.565L239.069 25.8526H240.522C241.111 28.1505 241.559 29.9005 241.865 31.1023C242.177 32.3042 242.355 33.1138 242.4 33.5311H242.466C242.528 33.2139 242.625 32.8049 242.758 32.3042C242.898 31.7978 243.017 31.3972 243.117 31.1023L244.795 25.8526H246.297L247.933 31.1023C248.245 32.0594 248.456 32.8634 248.567 33.5144H248.634C248.656 33.3141 248.715 33.0053 248.809 32.5879C248.91 32.1706 249.491 29.9255 250.554 25.8526H251.989L249.46 35H247.816ZM21.776 60V54.0825C21.776 53.3369 21.6063 52.7805 21.2669 52.4133C20.9275 52.0461 20.3961 51.8625 19.6728 51.8625C18.7102 51.8625 18.0063 52.124 17.5612 52.647C17.1216 53.17 16.9019 54.0269 16.9019 55.2176V60H15.5164V47.0133H16.9019V50.9444C16.9019 51.4173 16.8796 51.8096 16.8351 52.1212H16.9185C17.1912 51.6816 17.5779 51.3366 18.0787 51.0863C18.585 50.8303 19.1609 50.7023 19.8063 50.7023C20.9247 50.7023 21.7621 50.9694 22.3185 51.5036C22.8805 52.0322 23.1615 52.8751 23.1615 54.0325V60H21.776ZM29.8802 60.1669C28.5281 60.1669 27.4598 59.7552 26.6753 58.9317C25.8963 58.1082 25.5068 56.9648 25.5068 55.5014C25.5068 54.0269 25.8685 52.8557 26.5918 51.9876C27.3207 51.1196 28.2972 50.6856 29.5213 50.6856C30.6675 50.6856 31.5745 51.064 32.2422 51.8207C32.9099 52.5719 33.2437 53.5651 33.2437 54.8003V55.6767H26.9423C26.9702 56.7505 27.24 57.5657 27.7519 58.1221C28.2694 58.6785 28.9955 58.9567 29.9303 58.9567C30.9151 58.9567 31.8889 58.7509 32.8514 58.3391V59.5743C32.3618 59.7858 31.8972 59.936 31.4576 60.025C31.0236 60.1196 30.4978 60.1669 29.8802 60.1669ZM29.5046 51.8458C28.7702 51.8458 28.1831 52.085 27.7436 52.5635C27.3096 53.042 27.0536 53.7042 26.9757 54.5499H31.7581C31.7581 53.6764 31.5634 53.0087 31.1739 52.5468C30.7844 52.0795 30.228 51.8458 29.5046 51.8458ZM36.9995 60H35.614V50.8526H36.9995V60ZM35.4972 48.3737C35.4972 48.0566 35.5751 47.8257 35.7309 47.681C35.8867 47.5308 36.0814 47.4557 36.3151 47.4557C36.5377 47.4557 36.7297 47.5308 36.891 47.681C37.0524 47.8312 37.1331 48.0621 37.1331 48.3737C37.1331 48.6853 37.0524 48.919 36.891 49.0748C36.7297 49.2251 36.5377 49.3002 36.3151 49.3002C36.0814 49.3002 35.8867 49.2251 35.7309 49.0748C35.5751 48.919 35.4972 48.6853 35.4972 48.3737ZM47.4239 50.8526V51.7289L45.7296 51.9292C45.8854 52.124 46.0245 52.3799 46.147 52.6971C46.2694 53.0087 46.3306 53.362 46.3306 53.757C46.3306 54.6529 46.0245 55.3679 45.4125 55.902C44.8004 56.4362 43.9602 56.7032 42.8919 56.7032C42.6193 56.7032 42.3633 56.681 42.1241 56.6365C41.5343 56.9481 41.2394 57.3403 41.2394 57.8133C41.2394 58.0637 41.3423 58.2501 41.5482 58.3725C41.7541 58.4893 42.1074 58.5478 42.6082 58.5478H44.2273C45.2177 58.5478 45.9772 58.7564 46.5058 59.1737C47.04 59.591 47.3071 60.1975 47.3071 60.9932C47.3071 62.0059 46.9009 62.7765 46.0885 63.3051C45.2762 63.8393 44.091 64.1063 42.533 64.1063C41.3368 64.1063 40.4131 63.8838 39.7621 63.4386C39.1167 62.9935 38.7939 62.3648 38.7939 61.5524C38.7939 60.996 38.972 60.5147 39.3281 60.1085C39.6842 59.7023 40.185 59.4269 40.8304 59.2822C40.5967 59.1765 40.3992 59.0124 40.2378 58.7898C40.082 58.5672 40.0041 58.3085 40.0041 58.0136C40.0041 57.6798 40.0932 57.3876 40.2712 57.1373C40.4493 56.8869 40.7303 56.6448 41.1142 56.4111C40.6412 56.2164 40.2545 55.8853 39.9541 55.4179C39.6592 54.9505 39.5117 54.4164 39.5117 53.8155C39.5117 52.8139 39.8122 52.0433 40.4131 51.5036C41.014 50.9583 41.8653 50.6856 42.967 50.6856C43.4456 50.6856 43.8768 50.7413 44.2607 50.8526H47.4239ZM40.1293 61.5357C40.1293 62.0309 40.338 62.4065 40.7553 62.6624C41.1726 62.9184 41.7708 63.0464 42.5497 63.0464C43.7126 63.0464 44.5723 62.8711 45.1287 62.5206C45.6907 62.1756 45.9717 61.7054 45.9717 61.11C45.9717 60.6148 45.8187 60.2699 45.5126 60.0751C45.2066 59.8859 44.6307 59.7913 43.785 59.7913H42.1241C41.4953 59.7913 41.0057 59.9416 40.6551 60.242C40.3046 60.5425 40.1293 60.9737 40.1293 61.5357ZM40.8805 53.7821C40.8805 54.422 41.0613 54.906 41.423 55.2343C41.7847 55.5626 42.2882 55.7267 42.9337 55.7267C44.2857 55.7267 44.9618 55.0702 44.9618 53.757C44.9618 52.3827 44.2774 51.6955 42.9086 51.6955C42.2576 51.6955 41.7568 51.8708 41.4063 52.2213C41.0558 52.5719 40.8805 53.0921 40.8805 53.7821ZM55.5615 60V54.0825C55.5615 53.3369 55.3918 52.7805 55.0524 52.4133C54.7129 52.0461 54.1816 51.8625 53.4582 51.8625C52.4956 51.8625 51.7918 52.124 51.3466 52.647C50.9071 53.17 50.6873 54.0269 50.6873 55.2176V60H49.3018V47.0133H50.6873V50.9444C50.6873 51.4173 50.665 51.8096 50.6205 52.1212H50.704C50.9766 51.6816 51.3633 51.3366 51.8641 51.0863C52.3704 50.8303 52.9463 50.7023 53.5918 50.7023C54.7102 50.7023 55.5476 50.9694 56.104 51.5036C56.666 52.0322 56.9469 52.8751 56.9469 54.0325V60H55.5615ZM62.7559 59.0235C63.0007 59.0235 63.2372 59.0068 63.4653 58.9734C63.6935 58.9345 63.8743 58.8955 64.0078 58.8566V59.9165C63.8576 59.9889 63.635 60.0473 63.3401 60.0918C63.0508 60.1419 62.7893 60.1669 62.5556 60.1669C60.7862 60.1669 59.9015 59.2349 59.9015 57.3709V51.9292H58.5911V51.2615L59.9015 50.6856L60.4857 48.7326H61.287V50.8526H63.9411V51.9292H61.287V57.3125C61.287 57.8634 61.4177 58.2862 61.6792 58.5811C61.9408 58.876 62.2996 59.0235 62.7559 59.0235ZM71.7448 57.5045C71.7448 58.3558 71.4276 59.0124 70.7933 59.4742C70.159 59.936 69.2687 60.1669 68.1225 60.1669C66.9095 60.1669 65.9636 59.975 65.2848 59.591V58.3057C65.7244 58.5283 66.1945 58.7036 66.6953 58.8315C67.2016 58.9595 67.6885 59.0235 68.1559 59.0235C68.8792 59.0235 69.4356 58.9094 69.8251 58.6813C70.2146 58.4476 70.4094 58.0943 70.4094 57.6213C70.4094 57.2652 70.2536 56.962 69.942 56.7116C69.6359 56.4556 69.035 56.1552 68.1392 55.8102C67.2879 55.4931 66.6814 55.2176 66.3197 54.9839C65.9636 54.7447 65.6965 54.4748 65.5185 54.1744C65.346 53.8739 65.2598 53.515 65.2598 53.0977C65.2598 52.3521 65.563 51.7651 66.1695 51.3366C66.776 50.9026 67.6078 50.6856 68.665 50.6856C69.6499 50.6856 70.6125 50.8859 71.5528 51.2866L71.0604 52.4133C70.1423 52.0349 69.3104 51.8458 68.5649 51.8458C67.9083 51.8458 67.4131 51.9487 67.0792 52.1546C66.7454 52.3604 66.5785 52.6442 66.5785 53.0059C66.5785 53.2507 66.6397 53.4594 66.7621 53.6318C66.89 53.8043 67.0931 53.9685 67.3713 54.1243C67.6496 54.2801 68.1837 54.5054 68.9738 54.8003C70.0588 55.1954 70.7905 55.5932 71.1689 55.9938C71.5528 56.3944 71.7448 56.898 71.7448 57.5045ZM85.9166 60L84.239 54.6334C84.1333 54.3051 83.9358 53.5595 83.6464 52.3966H83.5797C83.3571 53.3703 83.1624 54.1215 82.9954 54.6501L81.2678 60H79.6653L77.1698 50.8526H78.622C79.2118 53.1505 79.6597 54.9005 79.9658 56.1023C80.2774 57.3042 80.4554 58.1138 80.4999 58.5311H80.5667C80.6279 58.2139 80.7253 57.8049 80.8588 57.3042C80.9979 56.7978 81.1175 56.3972 81.2177 56.1023L82.8953 50.8526H84.3976L86.0335 56.1023C86.3451 57.0594 86.5565 57.8634 86.6678 58.5144H86.7345C86.7568 58.3141 86.8152 58.0053 86.9098 57.5879C87.01 57.1706 87.5914 54.9255 88.6542 50.8526H90.0897L87.5608 60H85.9166ZM93.1361 60H91.7506V50.8526H93.1361V60ZM91.6338 48.3737C91.6338 48.0566 91.7117 47.8257 91.8674 47.681C92.0232 47.5308 92.218 47.4557 92.4517 47.4557C92.6742 47.4557 92.8662 47.5308 93.0276 47.681C93.1889 47.8312 93.2696 48.0621 93.2696 48.3737C93.2696 48.6853 93.1889 48.919 93.0276 49.0748C92.8662 49.2251 92.6742 49.3002 92.4517 49.3002C92.218 49.3002 92.0232 49.2251 91.8674 49.0748C91.7117 48.919 91.6338 48.6853 91.6338 48.3737ZM99.0285 59.0235C99.2733 59.0235 99.5098 59.0068 99.7379 58.9734C99.966 58.9345 100.147 58.8955 100.28 58.8566V59.9165C100.13 59.9889 99.9076 60.0473 99.6127 60.0918C99.3234 60.1419 99.0619 60.1669 98.8282 60.1669C97.0588 60.1669 96.1741 59.2349 96.1741 57.3709V51.9292H94.8637V51.2615L96.1741 50.6856L96.7583 48.7326H97.5596V50.8526H100.214V51.9292H97.5596V57.3125C97.5596 57.8634 97.6903 58.2862 97.9518 58.5811C98.2133 58.876 98.5722 59.0235 99.0285 59.0235ZM108.376 60V54.0825C108.376 53.3369 108.207 52.7805 107.867 52.4133C107.528 52.0461 106.996 51.8625 106.273 51.8625C105.31 51.8625 104.607 52.124 104.161 52.647C103.722 53.17 103.502 54.0269 103.502 55.2176V60H102.117V47.0133H103.502V50.9444C103.502 51.4173 103.48 51.8096 103.435 52.1212H103.519C103.791 51.6816 104.178 51.3366 104.679 51.0863C105.185 50.8303 105.761 50.7023 106.407 50.7023C107.525 50.7023 108.362 50.9694 108.919 51.5036C109.481 52.0322 109.762 52.8751 109.762 54.0325V60H108.376ZM124.952 55.4179C124.952 56.9091 124.576 58.0748 123.825 58.915C123.074 59.7496 122.036 60.1669 120.712 60.1669C119.894 60.1669 119.168 59.975 118.534 59.591C117.899 59.2071 117.41 58.6563 117.065 57.9385C116.72 57.2207 116.547 56.3805 116.547 55.4179C116.547 53.9267 116.92 52.7666 117.666 51.9376C118.411 51.1029 119.446 50.6856 120.77 50.6856C122.05 50.6856 123.066 51.1113 123.817 51.9626C124.573 52.8139 124.952 53.9657 124.952 55.4179ZM117.983 55.4179C117.983 56.5864 118.216 57.4767 118.684 58.0887C119.151 58.7008 119.838 59.0068 120.745 59.0068C121.652 59.0068 122.339 58.7036 122.807 58.0971C123.28 57.485 123.516 56.592 123.516 55.4179C123.516 54.255 123.28 53.3731 122.807 52.7722C122.339 52.1657 121.647 51.8625 120.729 51.8625C119.822 51.8625 119.137 52.1601 118.675 52.7555C118.214 53.3509 117.983 54.2383 117.983 55.4179ZM128.691 50.8526V56.7867C128.691 57.5323 128.861 58.0887 129.2 58.456C129.539 58.8232 130.071 59.0068 130.794 59.0068C131.751 59.0068 132.449 58.7453 132.889 58.2223C133.334 57.6992 133.557 56.8451 133.557 55.66V50.8526H134.942V60H133.799L133.598 58.7731H133.523C133.24 59.2238 132.845 59.5688 132.338 59.808C131.837 60.0473 131.264 60.1669 130.619 60.1669C129.506 60.1669 128.671 59.9026 128.115 59.374C127.564 58.8454 127.289 57.9997 127.289 56.8368V50.8526H128.691ZM142.062 50.6856C142.468 50.6856 142.832 50.719 143.155 50.7858L142.963 52.0711C142.585 51.9876 142.251 51.9459 141.961 51.9459C141.221 51.9459 140.587 52.2464 140.058 52.8473C139.535 53.4482 139.274 54.1966 139.274 55.0924V60H137.888V50.8526H139.032L139.19 52.5468H139.257C139.597 51.9515 140.006 51.4924 140.484 51.1697C140.963 50.847 141.488 50.6856 142.062 50.6856ZM113.317 81.5045C113.317 82.3558 113 83.0124 112.366 83.4742C111.731 83.936 110.841 84.1669 109.695 84.1669C108.482 84.1669 107.536 83.975 106.857 83.591V82.3057C107.297 82.5283 107.767 82.7036 108.268 82.8315C108.774 82.9595 109.261 83.0235 109.728 83.0235C110.452 83.0235 111.008 82.9094 111.398 82.6813C111.787 82.4476 111.982 82.0943 111.982 81.6213C111.982 81.2652 111.826 80.962 111.514 80.7116C111.208 80.4556 110.607 80.1552 109.712 79.8102C108.86 79.4931 108.254 79.2176 107.892 78.9839C107.536 78.7447 107.269 78.4748 107.091 78.1744C106.918 77.8739 106.832 77.515 106.832 77.0977C106.832 76.3521 107.135 75.7651 107.742 75.3366C108.348 74.9026 109.18 74.6856 110.237 74.6856C111.222 74.6856 112.185 74.8859 113.125 75.2866L112.633 76.4133C111.715 76.0349 110.883 75.8458 110.137 75.8458C109.481 75.8458 108.986 75.9487 108.652 76.1546C108.318 76.3604 108.151 76.6442 108.151 77.0059C108.151 77.2507 108.212 77.4594 108.335 77.6318C108.462 77.8043 108.666 77.9685 108.944 78.1243C109.222 78.2801 109.756 78.5054 110.546 78.8003C111.631 79.1954 112.363 79.5932 112.741 79.9938C113.125 80.3944 113.317 80.898 113.317 81.5045ZM119.443 84.1669C118.091 84.1669 117.023 83.7552 116.238 82.9317C115.459 82.1082 115.07 80.9648 115.07 79.5014C115.07 78.0269 115.432 76.8557 116.155 75.9876C116.884 75.1196 117.86 74.6856 119.084 74.6856C120.231 74.6856 121.138 75.064 121.805 75.8207C122.473 76.5719 122.807 77.5651 122.807 78.8003V79.6767H116.505C116.533 80.7505 116.803 81.5657 117.315 82.1221C117.832 82.6785 118.559 82.9567 119.493 82.9567C120.478 82.9567 121.452 82.7509 122.415 82.3391V83.5743C121.925 83.7858 121.46 83.936 121.021 84.025C120.587 84.1196 120.061 84.1669 119.443 84.1669ZM119.068 75.8458C118.333 75.8458 117.746 76.085 117.307 76.5635C116.873 77.042 116.617 77.7042 116.539 78.5499H121.321C121.321 77.6764 121.126 77.0087 120.737 76.5468C120.347 76.0795 119.791 75.8458 119.068 75.8458ZM129.35 74.6856C129.756 74.6856 130.121 74.719 130.444 74.7858L130.252 76.0711C129.873 75.9876 129.539 75.9459 129.25 75.9459C128.51 75.9459 127.876 76.2464 127.347 76.8473C126.824 77.4482 126.563 78.1966 126.563 79.0924V84H125.177V74.8526H126.321L126.479 76.5468H126.546C126.885 75.9515 127.294 75.4924 127.773 75.1697C128.251 74.847 128.777 74.6856 129.35 74.6856ZM134.158 84L130.686 74.8526H132.171L134.141 80.2776C134.586 81.5462 134.848 82.3697 134.926 82.7481H134.992C135.053 82.4532 135.245 81.8439 135.568 80.9203C135.896 79.991 136.628 77.9685 137.763 74.8526H139.249L135.777 84H134.158ZM142.103 84H140.718V74.8526H142.103V84ZM140.601 72.3737C140.601 72.0566 140.679 71.8257 140.835 71.681C140.99 71.5308 141.185 71.4557 141.419 71.4557C141.641 71.4557 141.833 71.5308 141.995 71.681C142.156 71.8312 142.237 72.0621 142.237 72.3737C142.237 72.6853 142.156 72.919 141.995 73.0748C141.833 73.2251 141.641 73.3002 141.419 73.3002C141.185 73.3002 140.99 73.2251 140.835 73.0748C140.679 72.919 140.601 72.6853 140.601 72.3737ZM148.697 84.1669C147.372 84.1669 146.346 83.7607 145.617 82.9484C144.894 82.1305 144.532 80.9759 144.532 79.4847C144.532 77.9546 144.899 76.7722 145.634 75.9376C146.374 75.1029 147.425 74.6856 148.789 74.6856C149.228 74.6856 149.668 74.7329 150.107 74.8275C150.547 74.9221 150.892 75.0334 151.142 75.1614L150.717 76.3382C150.41 76.2158 150.077 76.1156 149.715 76.0377C149.353 75.9543 149.033 75.9125 148.755 75.9125C146.897 75.9125 145.968 77.0977 145.968 79.468C145.968 80.592 146.193 81.4544 146.644 82.0553C147.1 82.6563 147.773 82.9567 148.663 82.9567C149.426 82.9567 150.207 82.7926 151.009 82.4643V83.6912C150.397 84.0083 149.626 84.1669 148.697 84.1669ZM157.051 84.1669C155.699 84.1669 154.631 83.7552 153.846 82.9317C153.067 82.1082 152.678 80.9648 152.678 79.5014C152.678 78.0269 153.04 76.8557 153.763 75.9876C154.492 75.1196 155.468 74.6856 156.692 74.6856C157.839 74.6856 158.746 75.064 159.413 75.8207C160.081 76.5719 160.415 77.5651 160.415 78.8003V79.6767H154.113C154.141 80.7505 154.411 81.5657 154.923 82.1221C155.44 82.6785 156.167 82.9567 157.101 82.9567C158.086 82.9567 159.06 82.7509 160.023 82.3391V83.5743C159.533 83.7858 159.068 83.936 158.629 84.025C158.195 84.1196 157.669 84.1669 157.051 84.1669ZM156.676 75.8458C155.941 75.8458 155.354 76.085 154.915 76.5635C154.481 77.042 154.225 77.7042 154.147 78.5499H158.929C158.929 77.6764 158.734 77.0087 158.345 76.5468C157.955 76.0795 157.399 75.8458 156.676 75.8458ZM168.686 81.5045C168.686 82.3558 168.369 83.0124 167.734 83.4742C167.1 83.936 166.21 84.1669 165.064 84.1669C163.851 84.1669 162.905 83.975 162.226 83.591V82.3057C162.666 82.5283 163.136 82.7036 163.636 82.8315C164.143 82.9595 164.63 83.0235 165.097 83.0235C165.82 83.0235 166.377 82.9094 166.766 82.6813C167.156 82.4476 167.351 82.0943 167.351 81.6213C167.351 81.2652 167.195 80.962 166.883 80.7116C166.577 80.4556 165.976 80.1552 165.08 79.8102C164.229 79.4931 163.623 79.2176 163.261 78.9839C162.905 78.7447 162.638 78.4748 162.46 78.1744C162.287 77.8739 162.201 77.515 162.201 77.0977C162.201 76.3521 162.504 75.7651 163.111 75.3366C163.717 74.9026 164.549 74.6856 165.606 74.6856C166.591 74.6856 167.554 74.8859 168.494 75.2866L168.002 76.4133C167.083 76.0349 166.252 75.8458 165.506 75.8458C164.849 75.8458 164.354 75.9487 164.02 76.1546C163.687 76.3604 163.52 76.6442 163.52 77.0059C163.52 77.2507 163.581 77.4594 163.703 77.6318C163.831 77.8043 164.034 77.9685 164.312 78.1243C164.591 78.2801 165.125 78.5054 165.915 78.8003C167 79.1954 167.732 79.5932 168.11 79.9938C168.494 80.3944 168.686 80.898 168.686 81.5045ZM172.2 80.6365H171.323L170.898 71.7979H172.625L172.2 80.6365ZM170.747 83.1153C170.747 82.3586 171.081 81.9802 171.749 81.9802C172.072 81.9802 172.319 82.0776 172.492 82.2723C172.67 82.4671 172.759 82.7481 172.759 83.1153C172.759 83.4714 172.67 83.7496 172.492 83.9499C172.314 84.1447 172.066 84.242 171.749 84.242C171.46 84.242 171.22 84.1558 171.031 83.9833C170.842 83.8053 170.747 83.5159 170.747 83.1153Z" fill="#313031"/>
<path d="M154.931 60L154.656 58.698H154.589C154.133 59.2711 153.677 59.6606 153.22 59.8665C152.77 60.0668 152.205 60.1669 151.526 60.1669C150.619 60.1669 149.907 59.9332 149.389 59.4658C148.878 58.9985 148.622 58.3335 148.622 57.4711C148.622 55.6238 150.099 54.6556 153.053 54.5666L154.606 54.5165V53.949C154.606 53.2312 154.45 52.7026 154.138 52.3632C153.832 52.0182 153.34 51.8458 152.661 51.8458C151.899 51.8458 151.036 52.0795 150.074 52.5468L149.648 51.4869C150.099 51.2421 150.591 51.0501 151.125 50.911C151.665 50.7719 152.205 50.7023 152.745 50.7023C153.835 50.7023 154.642 50.9444 155.165 51.4284C155.694 51.9125 155.958 52.6887 155.958 53.757V60H154.931ZM151.802 59.0235C152.664 59.0235 153.34 58.787 153.83 58.3141C154.325 57.8411 154.572 57.179 154.572 56.3277V55.5014L153.187 55.5598C152.085 55.5988 151.29 55.7713 150.8 56.0773C150.316 56.3777 150.074 56.8479 150.074 57.4878C150.074 57.9886 150.224 58.3697 150.525 58.6312C150.831 58.8927 151.256 59.0235 151.802 59.0235ZM166.291 60L164.613 54.6334C164.507 54.3051 164.31 53.5595 164.02 52.3966H163.954C163.731 53.3703 163.536 54.1215 163.369 54.6501L161.642 60H160.039L157.544 50.8526H158.996C159.586 53.1505 160.034 54.9005 160.34 56.1023C160.651 57.3042 160.829 58.1138 160.874 58.5311H160.941C161.002 58.2139 161.099 57.8049 161.233 57.3042C161.372 56.7978 161.491 56.3972 161.592 56.1023L163.269 50.8526H164.772L166.407 56.1023C166.719 57.0594 166.93 57.8634 167.042 58.5144H167.108C167.131 58.3141 167.189 58.0053 167.284 57.5879C167.384 57.1706 167.965 54.9255 169.028 50.8526H170.464L167.935 60H166.291ZM177.75 60L177.474 58.698H177.408C176.951 59.2711 176.495 59.6606 176.039 59.8665C175.588 60.0668 175.023 60.1669 174.345 60.1669C173.438 60.1669 172.725 59.9332 172.208 59.4658C171.696 58.9985 171.44 58.3335 171.44 57.4711C171.44 55.6238 172.917 54.6556 175.872 54.5666L177.424 54.5165V53.949C177.424 53.2312 177.269 52.7026 176.957 52.3632C176.651 52.0182 176.159 51.8458 175.48 51.8458C174.717 51.8458 173.855 52.0795 172.892 52.5468L172.467 51.4869C172.917 51.2421 173.41 51.0501 173.944 50.911C174.484 50.7719 175.023 50.7023 175.563 50.7023C176.654 50.7023 177.461 50.9444 177.984 51.4284C178.512 51.9125 178.776 52.6887 178.776 53.757V60H177.75ZM174.62 59.0235C175.482 59.0235 176.159 58.787 176.648 58.3141C177.143 57.8411 177.391 57.179 177.391 56.3277V55.5014L176.006 55.5598C174.904 55.5988 174.108 55.7713 173.619 56.0773C173.134 56.3777 172.892 56.8479 172.892 57.4878C172.892 57.9886 173.043 58.3697 173.343 58.6312C173.649 58.8927 174.075 59.0235 174.62 59.0235ZM185.812 50.6856C186.218 50.6856 186.583 50.719 186.906 50.7858L186.714 52.0711C186.335 51.9876 186.001 51.9459 185.712 51.9459C184.972 51.9459 184.338 52.2464 183.809 52.8473C183.286 53.4482 183.025 54.1966 183.025 55.0924V60H181.639V50.8526H182.783L182.941 52.5468H183.008C183.347 51.9515 183.756 51.4924 184.235 51.1697C184.713 50.847 185.239 50.6856 185.812 50.6856ZM194.843 58.7731H194.768C194.128 59.7023 193.171 60.1669 191.897 60.1669C190.7 60.1669 189.768 59.758 189.101 58.94C188.439 58.1221 188.108 56.9592 188.108 55.4513C188.108 53.9434 188.441 52.7722 189.109 51.9376C189.777 51.1029 190.706 50.6856 191.897 50.6856C193.137 50.6856 194.089 51.1363 194.751 52.0377H194.86L194.801 51.3784L194.768 50.7357V47.0133H196.153V60H195.027L194.843 58.7731ZM192.072 59.0068C193.018 59.0068 193.702 58.7509 194.125 58.239C194.554 57.7215 194.768 56.8896 194.768 55.7434V55.4513C194.768 54.1549 194.551 53.2312 194.117 52.6804C193.688 52.124 193.001 51.8458 192.055 51.8458C191.243 51.8458 190.62 52.1629 190.186 52.7972C189.757 53.426 189.543 54.3162 189.543 55.468C189.543 56.6365 189.757 57.5184 190.186 58.1138C190.614 58.7091 191.243 59.0068 192.072 59.0068ZM198.332 56.0522V54.7836H202.43V56.0522H198.332ZM212.078 60L210.4 54.6334C210.295 54.3051 210.097 53.5595 209.808 52.3966H209.741C209.518 53.3703 209.324 54.1215 209.157 54.6501L207.429 60H205.827L203.331 50.8526H204.783C205.373 53.1505 205.821 54.9005 206.127 56.1023C206.439 57.3042 206.617 58.1138 206.661 58.5311H206.728C206.789 58.2139 206.886 57.8049 207.02 57.3042C207.159 56.7978 207.279 56.3972 207.379 56.1023L209.056 50.8526H210.559L212.195 56.1023C212.506 57.0594 212.718 57.8634 212.829 58.5144H212.896C212.918 58.3141 212.976 58.0053 213.071 57.5879C213.171 57.1706 213.753 54.9255 214.815 50.8526H216.251L213.722 60H212.078ZM219.297 60H217.912V50.8526H219.297V60ZM217.795 48.3737C217.795 48.0566 217.873 47.8257 218.029 47.681C218.184 47.5308 218.379 47.4557 218.613 47.4557C218.835 47.4557 219.027 47.5308 219.189 47.681C219.35 47.8312 219.431 48.0621 219.431 48.3737C219.431 48.6853 219.35 48.919 219.189 49.0748C219.027 49.2251 218.835 49.3002 218.613 49.3002C218.379 49.3002 218.184 49.2251 218.029 49.0748C217.873 48.919 217.795 48.6853 217.795 48.3737ZM228.495 60V54.0825C228.495 53.3369 228.325 52.7805 227.986 52.4133C227.646 52.0461 227.115 51.8625 226.392 51.8625C225.435 51.8625 224.733 52.1212 224.288 52.6386C223.843 53.1561 223.621 54.0102 223.621 55.2009V60H222.235V50.8526H223.362L223.587 52.1045H223.654C223.938 51.6538 224.336 51.306 224.847 51.0612C225.359 50.8108 225.93 50.6856 226.558 50.6856C227.66 50.6856 228.489 50.9527 229.046 51.4869C229.602 52.0155 229.88 52.864 229.88 54.0325V60H228.495ZM238.994 60V54.0825C238.994 53.3369 238.825 52.7805 238.485 52.4133C238.146 52.0461 237.614 51.8625 236.891 51.8625C235.934 51.8625 235.233 52.1212 234.788 52.6386C234.343 53.1561 234.12 54.0102 234.12 55.2009V60H232.735V50.8526H233.861L234.087 52.1045H234.154C234.437 51.6538 234.835 51.306 235.347 51.0612C235.859 50.8108 236.429 50.6856 237.058 50.6856C238.16 50.6856 238.989 50.9527 239.545 51.4869C240.102 52.0155 240.38 52.864 240.38 54.0325V60H238.994ZM244.62 60H243.234V50.8526H244.62V60ZM243.117 48.3737C243.117 48.0566 243.195 47.8257 243.351 47.681C243.507 47.5308 243.702 47.4557 243.935 47.4557C244.158 47.4557 244.35 47.5308 244.511 47.681C244.673 47.8312 244.753 48.0621 244.753 48.3737C244.753 48.6853 244.673 48.919 244.511 49.0748C244.35 49.2251 244.158 49.3002 243.935 49.3002C243.702 49.3002 243.507 49.2251 243.351 49.0748C243.195 48.919 243.117 48.6853 243.117 48.3737ZM253.817 60V54.0825C253.817 53.3369 253.647 52.7805 253.308 52.4133C252.969 52.0461 252.437 51.8625 251.714 51.8625C250.757 51.8625 250.056 52.1212 249.611 52.6386C249.166 53.1561 248.943 54.0102 248.943 55.2009V60H247.558V50.8526H248.684L248.91 52.1045H248.976C249.26 51.6538 249.658 51.306 250.17 51.0612C250.682 50.8108 251.252 50.6856 251.881 50.6856C252.983 50.6856 253.812 50.9527 254.368 51.4869C254.924 52.0155 255.203 52.864 255.203 54.0325V60H253.817ZM265.544 50.8526V51.7289L263.849 51.9292C264.005 52.124 264.144 52.3799 264.267 52.6971C264.389 53.0087 264.45 53.362 264.45 53.757C264.45 54.6529 264.144 55.3679 263.532 55.902C262.92 56.4362 262.08 56.7032 261.012 56.7032C260.739 56.7032 260.483 56.681 260.244 56.6365C259.654 56.9481 259.359 57.3403 259.359 57.8133C259.359 58.0637 259.462 58.2501 259.668 58.3725C259.874 58.4893 260.227 58.5478 260.728 58.5478H262.347C263.337 58.5478 264.097 58.7564 264.625 59.1737C265.16 59.591 265.427 60.1975 265.427 60.9932C265.427 62.0059 265.021 62.7765 264.208 63.3051C263.396 63.8393 262.211 64.1063 260.653 64.1063C259.456 64.1063 258.533 63.8838 257.882 63.4386C257.236 62.9935 256.914 62.3648 256.914 61.5524C256.914 60.996 257.092 60.5147 257.448 60.1085C257.804 59.7023 258.305 59.4269 258.95 59.2822C258.716 59.1765 258.519 59.0124 258.357 58.7898C258.202 58.5672 258.124 58.3085 258.124 58.0136C258.124 57.6798 258.213 57.3876 258.391 57.1373C258.569 56.8869 258.85 56.6448 259.234 56.4111C258.761 56.2164 258.374 55.8853 258.074 55.4179C257.779 54.9505 257.631 54.4164 257.631 53.8155C257.631 52.8139 257.932 52.0433 258.533 51.5036C259.134 50.9583 259.985 50.6856 261.087 50.6856C261.565 50.6856 261.996 50.7413 262.38 50.8526H265.544ZM258.249 61.5357C258.249 62.0309 258.458 62.4065 258.875 62.6624C259.292 62.9184 259.89 63.0464 260.669 63.0464C261.832 63.0464 262.692 62.8711 263.248 62.5206C263.81 62.1756 264.091 61.7054 264.091 61.11C264.091 60.6148 263.938 60.2699 263.632 60.0751C263.326 59.8859 262.75 59.7913 261.905 59.7913H260.244C259.615 59.7913 259.125 59.9416 258.775 60.242C258.424 60.5425 258.249 60.9737 258.249 61.5357ZM259 53.7821C259 54.422 259.181 54.906 259.543 55.2343C259.904 55.5626 260.408 55.7267 261.053 55.7267C262.405 55.7267 263.081 55.0702 263.081 53.757C263.081 52.3827 262.397 51.6955 261.028 51.6955C260.377 51.6955 259.877 51.8708 259.526 52.2213C259.175 52.5719 259 53.0921 259 53.7821Z" fill="#AC8302"/>
<path d="M228 178C249.495 177.605 279.692 168.752 294 168C279.29 161.349 279.804 143.263 280 128.5C270.767 128.298 239.865 168.675 228 178Z" fill="#F2F2F2"/>
</svg>
