<svg width="368" height="379" viewBox="0 0 368 379" fill="none" xmlns="http://www.w3.org/2000/svg">
<g clip-path="url(#clip0)">
<path d="M255.203 378.658H100.778C91.6826 378.658 84.3096 371.285 84.3096 362.19V23.56C84.3096 14.465 91.6826 7.09201 100.778 7.09201H255.202C264.297 7.09201 271.67 14.465 271.67 23.56V362.19C271.671 371.285 264.298 378.658 255.203 378.658Z" fill="#7B7E80"/>
<path d="M206.905 23.954H151.886C150.781 23.954 149.886 24.8494 149.886 25.954V28.512C149.886 29.6165 150.781 30.512 151.886 30.512H206.905C208.009 30.512 208.905 29.6165 208.905 28.512V25.954C208.905 24.8494 208.009 23.954 206.905 23.954Z" fill="#1F313D"/>
<path d="M179.864 370.103C188.4 370.103 195.321 363.183 195.321 354.646C195.321 346.109 188.4 339.189 179.864 339.189C171.327 339.189 164.407 346.109 164.407 354.646C164.407 363.183 171.327 370.103 179.864 370.103Z" fill="#1F313D"/>
<path d="M258.556 41.753H101.173V188.331H258.556V41.753Z" fill="#E4E4E4"/>
<path d="M174.194 97.887C180.003 97.887 184.712 93.1779 184.712 87.369C184.712 81.5601 180.003 76.851 174.194 76.851C168.385 76.851 163.676 81.5601 163.676 87.369C163.676 93.1779 168.385 97.887 174.194 97.887Z" fill="#F3F3F3"/>
<path d="M258.556 188.331H101.173V330.289H258.556V188.331Z" fill="#F7F7F5"/>
<path d="M235.448 245.164H124.28V251.722H235.448V245.164Z" fill="#D3D3D3"/>
<path d="M155.712 259.31H124.485V265.868H155.712V259.31Z" fill="#2995F5"/>
<path d="M195.58 259.31H164.353V265.868H195.58V259.31Z" fill="#2995F5"/>
<path d="M235.448 259.31H204.221V265.868H235.448V259.31Z" fill="#2995F5"/>
<path d="M148.678 283.26H101.173V330.289H148.678V283.26Z" fill="#D3D3D3"/>
<path d="M258.556 283.26H157.258V330.289H258.556V283.26Z" fill="#D3D3D3"/>
<path d="M258.555 188.331H249.26V283.261H258.555V188.331Z" fill="#EAEAE8"/>
<path d="M200.466 127.631L148.677 97.544L101.173 132.238V188.331L200.466 127.631Z" fill="#F2F2F2"/>
<path d="M101.173 188.331L219.835 90.986L258.556 130.016V188.331H101.173Z" fill="#F3F3F3"/>
<path d="M266.817 222.784C273.555 222.784 279.018 217.321 279.018 210.583C279.018 203.845 273.555 198.382 266.817 198.382C260.078 198.382 254.616 203.845 254.616 210.583C254.616 217.321 260.078 222.784 266.817 222.784Z" fill="#F70F0F"/>
<path d="M274.067 206.142C271.685 201.274 266.817 207.903 266.817 207.903C266.817 207.903 261.949 201.274 259.567 206.142C257.185 211.01 266.817 216.81 266.817 216.81C266.817 216.81 276.449 211.01 274.067 206.142Z" fill="white"/>
<path d="M78.048 167.302C81.9403 163.41 81.9403 157.099 78.048 153.207C74.1556 149.314 67.845 149.314 63.9526 153.207C60.0603 157.099 60.0603 163.41 63.9526 167.302C67.8449 171.194 74.1556 171.194 78.048 167.302Z" fill="#F60F0F"/>
<path d="M76.9256 156.626C74.9796 152.649 71.0026 158.064 71.0026 158.064C71.0026 158.064 67.0256 152.649 65.0796 156.626C63.1336 160.603 71.0026 165.341 71.0026 165.341C71.0026 165.341 78.8716 160.603 76.9256 156.626Z" fill="white"/>
<path d="M336.277 66.431C340.193 66.431 343.368 63.2563 343.368 59.34C343.368 55.4238 340.193 52.249 336.277 52.249C332.36 52.249 329.186 55.4238 329.186 59.34C329.186 63.2563 332.36 66.431 336.277 66.431Z" fill="#F60F0F"/>
<path d="M340.49 56.759C339.106 53.93 336.276 57.782 336.276 57.782C336.276 57.782 333.447 53.929 332.062 56.759C330.677 59.588 336.276 62.959 336.276 62.959C336.276 62.959 341.875 59.588 340.49 56.759Z" fill="white"/>
<path d="M21.143 252.21C25.0353 248.318 25.0353 242.007 21.143 238.115C17.2507 234.223 10.94 234.223 7.04767 238.115C3.15535 242.007 3.15535 248.318 7.04767 252.21C10.94 256.103 17.2507 256.103 21.143 252.21Z" fill="#F60F0F"/>
<path d="M20.0206 241.535C18.0746 237.558 14.0976 242.974 14.0976 242.974C14.0976 242.974 10.1206 237.559 8.17461 241.535C6.22861 245.512 14.0976 250.251 14.0976 250.251C14.0976 250.251 21.9666 245.512 20.0206 241.535Z" fill="white"/>
<path d="M61.8475 202.978C65.7398 199.086 65.7398 192.775 61.8475 188.883C57.9551 184.99 51.6445 184.99 47.7521 188.883C43.8598 192.775 43.8598 199.086 47.7521 202.978C51.6444 206.87 57.9551 206.87 61.8475 202.978Z" fill="#F60F0F"/>
<path d="M60.7256 192.303C58.7796 188.326 54.8026 193.742 54.8026 193.742C54.8026 193.742 50.8256 188.326 48.8796 192.303C46.9336 196.28 54.8026 201.019 54.8026 201.019C54.8026 201.019 62.6716 196.28 60.7256 192.303Z" fill="white"/>
<path d="M346.67 184.768C358.422 184.768 367.949 175.241 367.949 163.489C367.949 151.737 358.422 142.21 346.67 142.21C334.918 142.21 325.391 151.737 325.391 163.489C325.391 175.241 334.918 184.768 346.67 184.768Z" fill="#F60F0F"/>
<path d="M359.315 155.742C355.16 147.251 346.669 158.813 346.669 158.813C346.669 158.813 338.179 147.251 334.024 155.742C329.869 164.233 346.669 174.349 346.669 174.349C346.669 174.349 363.47 164.233 359.315 155.742Z" fill="white"/>
<path d="M64.1876 132.259C65.5936 123.64 59.7458 115.512 51.126 114.106C42.5063 112.7 34.3788 118.548 32.9727 127.168C31.5667 135.787 37.4145 143.915 46.0342 145.321C54.654 146.727 62.7815 140.879 64.1876 132.259Z" fill="#F60F0F"/>
<path d="M57.9666 123.957C54.8786 117.648 48.5696 126.239 48.5696 126.239C48.5696 126.239 42.2606 117.647 39.1726 123.957C36.0846 130.266 48.5696 137.784 48.5696 137.784C48.5696 137.784 61.0546 130.266 57.9666 123.957Z" fill="white"/>
<path d="M337.377 237.362C346.197 226.678 344.685 210.867 334.001 202.048C323.317 193.228 307.506 194.74 298.686 205.424C289.867 216.108 291.378 231.919 302.063 240.739C312.747 249.558 328.558 248.047 337.377 237.362Z" fill="#4F80FF"/>
<path d="M333.858 220.562C333.858 219.243 332.789 218.174 331.47 218.174H322.527V209.887C322.527 207.482 320.578 205.533 318.173 205.533C318.173 205.533 317.209 209.648 316.017 211.539L309.886 223.418V237.277H327.959C329.278 237.277 330.347 236.208 330.347 234.889C330.347 233.57 329.278 232.501 327.959 232.501H329.457C330.776 232.501 331.845 231.432 331.845 230.113C331.845 228.794 330.776 227.725 329.457 227.725H330.721C332.04 227.725 333.109 226.656 333.109 225.337C333.109 224.018 332.04 222.949 330.721 222.949H331.47C332.789 222.95 333.858 221.881 333.858 220.562Z" fill="white"/>
<path d="M308.388 223.418H302.208V237.277H308.388V223.418Z" fill="white"/>
<path d="M87.1706 314.076C98.1003 314.076 106.961 305.216 106.961 294.286C106.961 283.356 98.1003 274.496 87.1706 274.496C76.2409 274.496 67.3806 283.356 67.3806 294.286C67.3806 305.216 76.2409 314.076 87.1706 314.076Z" fill="#4F80FF"/>
<path d="M99.6557 293.621C99.6557 292.581 98.8127 291.737 97.7717 291.737H90.7166V285.199C90.7166 283.302 89.1786 281.764 87.2816 281.764C87.2816 281.764 86.5216 285.01 85.5806 286.502L80.7437 295.873V306.806H95.0016C96.0416 306.806 96.8857 305.963 96.8857 304.922C96.8857 303.881 96.0426 303.038 95.0016 303.038H96.1837C97.2237 303.038 98.0676 302.195 98.0676 301.154C98.0676 300.114 97.2247 299.27 96.1837 299.27H97.1806C98.2206 299.27 99.0647 298.427 99.0647 297.386C99.0647 296.346 98.2216 295.502 97.1806 295.502H97.7717C98.8127 295.505 99.6557 294.662 99.6557 293.621Z" fill="white"/>
<path d="M79.5627 295.875H74.6866V306.808H79.5627V295.875Z" fill="white"/>
<path d="M351.92 106.446C356.645 101.721 356.645 94.0589 351.92 89.3332C347.194 84.6075 339.532 84.6075 334.807 89.3332C330.081 94.0589 330.081 101.721 334.807 106.446C339.532 111.172 347.194 111.172 351.92 106.446Z" fill="#4F80FF"/>
<path d="M351.001 97.481C351.001 96.845 350.485 96.329 349.849 96.329H345.535V92.331C345.535 91.171 344.595 90.231 343.435 90.231C343.435 90.231 342.97 92.216 342.395 93.128L339.437 98.858V105.543H348.155C348.791 105.543 349.307 105.027 349.307 104.391C349.307 103.755 348.791 103.239 348.155 103.239H348.878C349.514 103.239 350.03 102.723 350.03 102.087C350.03 101.451 349.514 100.935 348.878 100.935H349.488C350.124 100.935 350.64 100.419 350.64 99.783C350.64 99.147 350.124 98.631 349.488 98.631H349.849C350.485 98.633 351.001 98.117 351.001 97.481Z" fill="white"/>
<path d="M338.715 98.859H335.734V105.544H338.715V98.859Z" fill="white"/>
<path d="M57.1233 236.319C61.849 231.593 61.849 223.931 57.1233 219.205C52.3977 214.48 44.7358 214.48 40.0101 219.205C35.2844 223.931 35.2844 231.593 40.0101 236.319C44.7358 241.044 52.3976 241.044 57.1233 236.319Z" fill="#4F80FF"/>
<path d="M56.2036 227.357C56.2036 226.721 55.6876 226.205 55.0516 226.205H50.7376V222.207C50.7376 221.047 49.7976 220.107 48.6376 220.107C48.6376 220.107 48.1726 222.092 47.5976 223.004L44.6396 228.734V235.419H53.3576C53.9936 235.419 54.5096 234.903 54.5096 234.267C54.5096 233.631 53.9936 233.115 53.3576 233.115H54.0806C54.7166 233.115 55.2326 232.599 55.2326 231.963C55.2326 231.327 54.7166 230.811 54.0806 230.811H54.6906C55.3266 230.811 55.8426 230.295 55.8426 229.659C55.8426 229.023 55.3266 228.507 54.6906 228.507H55.0516C55.6876 228.509 56.2036 227.993 56.2036 227.357Z" fill="white"/>
<path d="M43.9166 228.734H40.9356V235.419H43.9166V228.734Z" fill="white"/>
<path d="M241.717 32.5122C246.443 27.7865 246.443 20.1246 241.717 15.399C236.991 10.6733 229.329 10.6733 224.604 15.3989C219.878 20.1246 219.878 27.7865 224.604 32.5122C229.329 37.2379 236.991 37.2379 241.717 32.5122Z" fill="#4F80FF"/>
<path d="M240.797 23.547C240.797 22.911 240.281 22.395 239.645 22.395H235.331V18.397C235.331 17.237 234.391 16.297 233.231 16.297C233.231 16.297 232.766 18.282 232.191 19.194L229.233 24.924V31.609H237.951C238.587 31.609 239.103 31.093 239.103 30.457C239.103 29.821 238.587 29.305 237.951 29.305H238.674C239.31 29.305 239.826 28.789 239.826 28.153C239.826 27.517 239.31 27.001 238.674 27.001H239.284C239.92 27.001 240.436 26.485 240.436 25.849C240.436 25.213 239.92 24.697 239.284 24.697H239.645C240.281 24.699 240.797 24.183 240.797 23.547Z" fill="white"/>
<path d="M228.51 24.925H225.529V31.61H228.51V24.925Z" fill="white"/>
<path d="M157.134 15.558C161.43 15.558 164.913 12.0752 164.913 7.779C164.913 3.48278 161.43 0 157.134 0C152.837 0 149.355 3.48278 149.355 7.779C149.355 12.0752 152.837 15.558 157.134 15.558Z" fill="#4F80FF"/>
<path d="M162.042 7.51702C162.042 7.10802 161.71 6.77601 161.301 6.77601H158.528V4.20602C158.528 3.46002 157.924 2.85602 157.178 2.85602C157.178 2.85602 156.879 4.13201 156.509 4.71901L154.608 8.40302V12.701H160.213C160.622 12.701 160.953 12.369 160.953 11.96C160.953 11.551 160.622 11.219 160.213 11.219H160.678C161.087 11.219 161.418 10.888 161.418 10.478C161.418 10.069 161.087 9.73802 160.678 9.73802H161.07C161.479 9.73802 161.81 9.40601 161.81 8.99701C161.81 8.58801 161.479 8.25702 161.07 8.25702H161.302C161.71 8.25802 162.042 7.92602 162.042 7.51702Z" fill="white"/>
<path d="M154.143 8.40302H152.226V12.701H154.143V8.40302Z" fill="white"/>
<path d="M100.511 238.641C112.385 238.641 122.011 229.015 122.011 217.141C122.011 205.267 112.385 195.641 100.511 195.641C88.6365 195.641 79.0106 205.267 79.0106 217.141C79.0106 229.015 88.6365 238.641 100.511 238.641Z" fill="#FFBE56"/>
<path d="M113.851 218.583C113.851 225.95 107.879 231.923 100.511 231.923C93.1427 231.923 87.1707 225.95 87.1707 218.583H113.851Z" fill="#F2F2F2"/>
<path d="M96.2106 214.333C95.8206 214.333 95.4736 214.057 95.3986 213.66C94.8226 210.614 93.1136 208.487 91.2416 208.487C89.3656 208.487 87.6606 210.613 87.0936 213.658C87.0086 214.107 86.5776 214.396 86.1296 214.32C85.6806 214.236 85.3846 213.805 85.4676 213.356C86.1946 209.455 88.5156 206.834 91.2426 206.834C93.9646 206.834 96.2876 209.455 97.0246 213.354C97.1096 213.803 96.8146 214.235 96.3656 214.32C96.3126 214.328 96.2616 214.333 96.2106 214.333Z" fill="#30201D"/>
<path d="M114.742 214.333C114.352 214.333 114.006 214.057 113.93 213.66C113.354 210.614 111.645 208.487 109.772 208.487C107.897 208.487 106.191 210.613 105.624 213.658C105.54 214.106 105.11 214.395 104.659 214.319C104.21 214.235 103.914 213.803 103.998 213.354C104.726 209.454 107.047 206.832 109.773 206.832C112.495 206.832 114.819 209.453 115.556 213.352C115.641 213.801 115.346 214.233 114.897 214.318C114.845 214.328 114.793 214.333 114.742 214.333Z" fill="#30201D"/>
<path d="M284.051 79.449C291.034 79.449 296.695 73.7881 296.695 66.805C296.695 59.8219 291.034 54.161 284.051 54.161C277.068 54.161 271.407 59.8219 271.407 66.805C271.407 73.7881 277.068 79.449 284.051 79.449Z" fill="#FFBE56"/>
<path d="M291.896 67.6531C291.896 71.9861 288.384 75.4981 284.051 75.4981C279.718 75.4981 276.206 71.9861 276.206 67.6531H291.896Z" fill="#F2F2F2"/>
<path d="M281.522 65.154C281.293 65.154 281.089 64.992 281.045 64.758C280.706 62.967 279.701 61.716 278.6 61.716C277.497 61.716 276.494 62.966 276.16 64.757C276.11 65.021 275.857 65.191 275.593 65.146C275.329 65.097 275.155 64.843 275.204 64.579C275.631 62.285 276.996 60.743 278.6 60.743C280.201 60.743 281.567 62.284 282 64.577C282.05 64.841 281.876 65.095 281.612 65.145C281.582 65.151 281.552 65.154 281.522 65.154Z" fill="#30201D"/>
<path d="M292.42 65.154C292.191 65.154 291.987 64.992 291.943 64.758C291.604 62.967 290.599 61.716 289.498 61.716C288.395 61.716 287.392 62.966 287.058 64.757C287.009 65.02 286.756 65.191 286.491 65.146C286.227 65.097 286.053 64.843 286.102 64.578C286.53 62.284 287.895 60.743 289.498 60.743C291.099 60.743 292.466 62.284 292.899 64.577C292.949 64.841 292.775 65.095 292.511 65.145C292.48 65.151 292.45 65.154 292.42 65.154Z" fill="#30201D"/>
<path d="M28.3956 93.94C33.6882 93.94 37.9786 89.6495 37.9786 84.357C37.9786 79.0644 33.6882 74.774 28.3956 74.774C23.1031 74.774 18.8126 79.0644 18.8126 84.357C18.8126 89.6495 23.1031 93.94 28.3956 93.94Z" fill="#FFBE56"/>
<path d="M34.3417 84.999C34.3417 88.283 31.6796 90.945 28.3956 90.945C25.1116 90.945 22.4496 88.283 22.4496 84.999H34.3417Z" fill="#F2F2F2"/>
<path d="M26.4786 83.105C26.3046 83.105 26.1506 82.982 26.1166 82.805C25.8596 81.447 25.0986 80.499 24.2636 80.499C23.4276 80.499 22.6676 81.447 22.4146 82.804C22.3766 83.004 22.1846 83.133 21.9846 83.099C21.7846 83.062 21.6526 82.869 21.6896 82.669C22.0136 80.93 23.0476 79.762 24.2636 79.762C25.4766 79.762 26.5126 80.93 26.8406 82.668C26.8786 82.868 26.7466 83.061 26.5466 83.098C26.5246 83.103 26.5016 83.105 26.4786 83.105Z" fill="#30201D"/>
<path d="M34.7396 83.105C34.5656 83.105 34.4116 82.982 34.3776 82.805C34.1206 81.447 33.3586 80.499 32.5246 80.499C31.6886 80.499 30.9286 81.447 30.6756 82.804C30.6386 83.004 30.4466 83.133 30.2456 83.099C30.0456 83.062 29.9136 82.869 29.9506 82.669C30.2746 80.93 31.3096 79.762 32.5246 79.762C33.7376 79.762 34.7736 80.93 35.1026 82.668C35.1406 82.868 35.0086 83.061 34.8086 83.098C34.7846 83.103 34.7616 83.105 34.7396 83.105Z" fill="#30201D"/>
<path d="M26.8476 196.045C32.1402 196.045 36.4306 191.755 36.4306 186.462C36.4306 181.169 32.1402 176.879 26.8476 176.879C21.5551 176.879 17.2646 181.169 17.2646 186.462C17.2646 191.755 21.5551 196.045 26.8476 196.045Z" fill="#FFBE56"/>
<path d="M32.7936 187.104C32.7936 190.388 30.1316 193.05 26.8476 193.05C23.5636 193.05 20.9016 190.388 20.9016 187.104H32.7936Z" fill="#F2F2F2"/>
<path d="M24.9306 185.21C24.7566 185.21 24.6026 185.087 24.5686 184.91C24.3116 183.552 23.5506 182.604 22.7156 182.604C21.8796 182.604 21.1196 183.552 20.8666 184.909C20.8286 185.109 20.6366 185.238 20.4366 185.204C20.2366 185.166 20.1046 184.974 20.1416 184.774C20.4656 183.035 21.4996 181.867 22.7156 181.867C23.9286 181.867 24.9646 183.035 25.2926 184.773C25.3306 184.973 25.1986 185.166 24.9986 185.203C24.9766 185.208 24.9536 185.21 24.9306 185.21Z" fill="#30201D"/>
<path d="M33.1916 185.21C33.0176 185.21 32.8636 185.087 32.8296 184.91C32.5726 183.552 31.8106 182.604 30.9766 182.604C30.1406 182.604 29.3806 183.552 29.1276 184.909C29.0906 185.109 28.8986 185.238 28.6976 185.204C28.4976 185.166 28.3656 184.974 28.4026 184.774C28.7266 183.035 29.7616 181.867 30.9766 181.867C32.1896 181.867 33.2256 183.035 33.5546 184.773C33.5926 184.973 33.4606 185.166 33.2606 185.203C33.2366 185.208 33.2136 185.21 33.1916 185.21Z" fill="#30201D"/>
<path d="M226.469 84.219C231.747 84.219 236.026 79.9402 236.026 74.662C236.026 69.3838 231.747 65.105 226.469 65.105C221.19 65.105 216.912 69.3838 216.912 74.662C216.912 79.9402 221.19 84.219 226.469 84.219Z" fill="#FFBE56"/>
<path d="M232.399 75.303C232.399 78.578 229.744 81.233 226.469 81.233C223.194 81.233 220.539 78.578 220.539 75.303H232.399Z" fill="#F2F2F2"/>
<path d="M224.557 73.414C224.384 73.414 224.23 73.291 224.196 73.115C223.94 71.761 223.18 70.815 222.348 70.815C221.514 70.815 220.756 71.76 220.504 73.114C220.466 73.313 220.275 73.442 220.075 73.408C219.875 73.371 219.744 73.179 219.781 72.979C220.104 71.245 221.136 70.079 222.348 70.079C223.558 70.079 224.591 71.244 224.918 72.977C224.956 73.177 224.825 73.369 224.625 73.406C224.603 73.411 224.58 73.414 224.557 73.414Z" fill="#30201D"/>
<path d="M232.795 73.414C232.622 73.414 232.468 73.291 232.434 73.115C232.178 71.761 231.418 70.815 230.586 70.815C229.752 70.815 228.994 71.76 228.742 73.114C228.705 73.313 228.514 73.442 228.313 73.408C228.113 73.371 227.982 73.179 228.019 72.979C228.342 71.245 229.374 70.08 230.586 70.08C231.796 70.08 232.829 71.245 233.157 72.978C233.195 73.178 233.064 73.37 232.864 73.407C232.841 73.411 232.818 73.414 232.795 73.414Z" fill="#30201D"/>
<path d="M156.225 54.934H82.9096C78.8776 54.934 75.5776 58.233 75.5776 62.266V77.272C75.5776 81.304 78.8766 84.604 82.9096 84.604H134.751L146.679 96.063L145.078 84.604H156.225C160.257 84.604 163.557 81.305 163.557 77.272V62.266C163.556 58.233 160.257 54.934 156.225 54.934Z" fill="#FF4343"/>
<path d="M105.695 63.531C102.343 56.682 95.4946 66.008 95.4946 66.008C95.4946 66.008 88.6456 56.682 85.2946 63.531C81.9426 70.38 95.4946 78.54 95.4946 78.54C95.4946 78.54 109.046 70.38 105.695 63.531Z" fill="white"/>
<path d="M227.138 272.142H300.454C304.486 272.142 307.785 275.441 307.785 279.473V294.479C307.785 298.511 304.486 301.81 300.454 301.81H248.613L236.684 313.269L238.285 301.81H227.138C223.106 301.81 219.807 298.511 219.807 294.479V279.473C219.807 275.441 223.106 272.142 227.138 272.142Z" fill="#FF4343"/>
<path d="M249.924 280.739C246.572 273.89 239.724 283.216 239.724 283.216C239.724 283.216 232.875 273.89 229.524 280.739C226.172 287.588 239.724 295.748 239.724 295.748C239.724 295.748 253.275 287.588 249.924 280.739Z" fill="white"/>
<path d="M257.132 177.058C257.132 177.058 255.664 169.965 258.011 168.059C260.357 166.153 267.47 159.561 268.801 160.315C270.132 161.069 272.312 165.541 271.6 168.162C270.888 170.784 261.926 180.267 261.926 180.267L257.132 177.058Z" fill="#D9935C"/>
<path d="M210.431 273.417C209.682 287.987 207.141 308.778 205.254 329.794H173.388C172.703 324.16 171.707 318.668 170.607 313.308C168.822 304.622 166.768 296.267 165.329 288.184C162.429 271.913 162.972 259.196 165.484 249.328C167.637 240.855 171.244 234.482 175.367 229.758C184.402 219.407 209.56 239.636 209.56 239.636C209.56 239.636 211.172 258.931 210.431 273.417Z" fill="#0E538C"/>
<path d="M195.958 278.048C195.958 278.048 195.951 278.152 195.936 278.353C195.708 281.342 193.703 305.82 187.405 329.793H173.389C172.704 324.159 171.708 318.667 170.608 313.307C172.996 299.253 175.266 288.091 175.266 288.091L195.958 278.048Z" fill="#0D4871"/>
<path d="M197.825 272.123C197.481 273.504 196.81 275.689 195.936 278.353C192.341 289.275 185.292 308.257 183.284 313C180.934 318.552 178.718 324.167 176.63 329.794H141.756C142.475 316.265 142.652 288.176 143.304 280.696C145.925 250.625 151.615 247.699 151.615 247.699L165.485 249.327L197.806 253.12C197.806 253.12 203.111 250.826 197.825 272.123Z" fill="#0E538C"/>
<path d="M203.661 109.391C205.221 96.6489 201.242 76.2609 175.811 79.5189C150.38 82.7769 142.366 107.77 147.495 118.882C152.624 129.995 140.112 132.675 136.184 144.625C132.81 154.891 131.633 167.638 126.173 173.358C108.568 191.801 143.075 220.163 163.877 214.183C201.768 203.29 206.648 201.664 205.303 171.892C204.614 156.638 192.746 150.728 200.281 146.315C218.483 135.654 200.13 138.222 203.661 109.391Z" fill="#163560"/>
<path d="M195.966 150.295L188.422 161.6L173.29 160.861L166.289 142.751C166.289 142.751 167.593 142.512 168.659 131.75C168.92 128.924 169.181 125.38 169.42 120.923C169.42 120.923 169.398 120.901 169.42 120.879C169.42 120.51 169.442 120.14 169.463 119.77L171.42 120.357L188.378 125.531C188.378 125.531 188.291 126.097 188.182 127.075C187.986 129.228 187.791 133.358 188.682 137.772C189.595 142.251 191.639 147.034 195.966 150.295Z" fill="#D9935C"/>
<path d="M196.016 142.105C195.043 142.105 178.528 138.744 150.638 145.879C150.638 145.879 165.913 215.86 160.724 229.051C155.535 242.241 153.563 253.948 153.563 253.948L209.855 254.646C209.855 254.646 209.068 209.373 211.663 193.349C214.256 177.325 196.016 142.105 196.016 142.105Z" fill="#D9935C"/>
<path d="M256.841 169.992C256.841 169.992 238.861 194.386 235.687 194.146C232.274 193.864 223.708 163.556 217.229 152.381C212.687 144.58 197.042 142.249 196.02 142.105C196.019 142.105 196.018 142.105 196.017 142.104C195.984 142.099 195.967 142.097 195.967 142.097L196.005 142.251C195.871 143.694 194.596 155.268 188.19 156.325C176.376 158.275 166.854 147.451 164.073 143.095C164.073 143.095 150.503 146.519 146.521 151.06C142.749 155.358 147.91 187.206 149.056 190.259C150.047 192.88 150.983 195.439 151.798 198.009C153.955 204.792 155.273 211.68 154.517 220.164C153.694 229.428 145.039 250.595 146.911 255.104C148.873 259.839 151.599 262.238 157.563 263.607C161.674 264.555 167.322 265.011 175.318 265.409C192.277 266.252 210.45 264.12 212.923 256.058C214.109 252.189 213.652 237.216 213.024 230.305C212.199 221.22 212.996 209.625 213.79 198.97C213.828 199.029 213.866 199.087 213.904 199.146C213.904 199.146 213.904 199.168 213.926 199.168C215.752 201.973 217.861 204.973 220.014 207.777C223.275 211.973 226.667 215.648 229.558 217.343C230.276 217.756 230.95 218.039 231.58 218.191C233.493 218.647 237.254 218.647 240.907 216.56C241.494 216.234 242.103 215.821 242.69 215.364C253.343 206.907 262.822 180.491 262.822 180.491C263.842 174.341 256.841 169.992 256.841 169.992Z" fill="#FFBE55"/>
<path d="M146.909 255.105C148.871 259.84 151.597 262.239 157.561 263.608C165.533 262.075 170.791 247.406 173.498 240.186C176.618 231.866 163.779 192.849 159.293 193.239C155.958 193.528 152.775 198.157 152.666 200.942C154.823 207.725 155.271 211.682 154.514 220.165C153.692 229.428 145.037 250.596 146.909 255.105Z" fill="#E7A329"/>
<path d="M240.905 216.562C237.252 218.649 233.491 218.649 231.578 218.193C230.948 218.041 230.274 217.758 229.556 217.345C226.664 215.65 223.273 211.975 220.012 207.779C217.86 204.974 215.751 201.974 213.924 199.17C214.337 197.648 215.837 196.931 220.685 201.909C228.838 210.279 230.338 215.889 235.513 216.324C237.296 216.475 239.1 216.562 240.905 216.562Z" fill="#E7A329"/>
<path d="M188.682 137.772C183.312 139.25 170.202 121.966 169.419 120.922C169.397 120.9 169.375 120.878 169.375 120.878H169.419L171.419 120.356L188.377 125.53C188.377 125.53 188.29 126.096 188.181 127.074C187.987 129.228 187.791 133.358 188.682 137.772Z" fill="#CC7C46"/>
<path d="M193.321 126.824C193.321 126.824 170.669 131.373 168.054 117.223C165.438 103.073 160.753 94.131 175.105 90.628C189.457 87.125 193.273 92.004 195.295 96.514C197.316 101.025 199.145 125.276 193.321 126.824Z" fill="#D9935C"/>
<path d="M195.579 88.094C184.405 77.082 174.629 83.537 177.059 86.483C173.028 86.414 167.5 87.255 163.668 91.566C156.97 99.101 169.201 124.651 169.201 124.651C169.201 124.651 167.749 108.182 175.199 100.038C178.75 96.157 180.516 93.037 181.394 90.833C182.793 91.949 184.316 92.887 185.92 93.45C193.128 95.979 197.088 107.575 197.088 107.575C199.666 102.164 200.393 92.838 195.579 88.094Z" fill="#163560"/>
<path d="M168.991 232.573L174.039 235.006C176.273 235.662 177.146 236.269 178.487 236.119C181.725 235.758 188.262 235.96 192.78 242.274C192.78 242.274 195.066 246.021 191.821 246.408C188.576 246.794 189.73 246.213 185.175 246.851C180.62 247.489 176.03 243.189 174.603 241.635L169.316 239.698L168.991 232.573Z" fill="#D9935C"/>
<path d="M164.069 143.096C164.069 143.096 150.68 143.626 144.471 149.403C137.45 155.936 124.862 195.559 124.862 220.442C124.862 220.442 124.609 234.148 172.294 243.382C172.294 243.382 174.578 241.488 175.436 239.66C176.955 236.423 176.953 234.198 176.953 234.198C176.953 234.198 148.991 218.339 147.985 213.347C146.645 206.685 165.786 180.739 164.069 143.096Z" fill="#FFBE55"/>
<path d="M314.305 143.392C314.305 143.392 274.821 135.513 227.601 136.15L224.869 123.282L221.871 109.183C221.871 109.183 271.202 97.217 303.522 74.363L314.305 143.392Z" fill="#4F80FF"/>
<path d="M314.305 143.392C317.8 142.992 320.217 139.787 319.601 136.372L308.964 77.432C308.449 74.576 306.377 73.671 303.523 74.364L314.305 143.392Z" fill="#FFBE55"/>
<path d="M266.5 136.15C293.6 138.268 314.306 143.392 314.306 143.392C314.306 143.392 269.386 121.818 224.871 123.282L227.603 136.15C235.972 136.037 247.294 135.819 255 136.15C258.21 135.058 254.986 136.387 255 136.15V177.342C255.131 181.922 256.42 184.131 261 184C265.58 183.868 266.131 181.08 266 176.5L266.5 136.15Z" fill="#0C538E"/>
<path d="M240.608 136.187L227.835 136.286C228.023 136.325 215.926 136.632 213.876 125.498C213.646 124.722 213.541 123.974 213.526 123.111C212.772 109.538 220.284 108.336 220.284 108.336L237.312 104.763L239.29 123.751C239.29 123.751 239.29 123.751 239.277 123.814L240.608 136.187Z" fill="#FFBE55"/>
<path d="M240.608 136.187L227.835 136.286C228.023 136.325 215.926 136.632 213.876 125.498C221.769 121.534 239.289 123.751 239.289 123.751C239.289 123.751 239.289 123.751 239.276 123.814L240.608 136.187Z" fill="#E7A329"/>
</g>
<defs>
<clipPath id="clip0">
<rect width="367.949" height="378.658" fill="white"/>
</clipPath>
</defs>
</svg>
