<svg width="37" height="29" viewBox="0 0 37 29" fill="none" xmlns="http://www.w3.org/2000/svg">
<path d="M15.5958 2.05179L11.9064 13.7134L7.41666 16.7837L8.1198 24.4709L15.8784 20.3146C16.6585 19.8968 17.311 19.2757 17.7666 18.5171C18.2221 17.7584 18.4639 16.8906 18.4661 16.0057L18.4998 2.48551C18.5 2.2905 18.4617 2.09736 18.3872 1.91714C18.3128 1.73692 18.2035 1.57315 18.0656 1.43518C17.9278 1.29722 17.7642 1.18778 17.584 1.11311C17.4039 1.03843 17.2108 1 17.0157 1C16.6976 0.999938 16.3878 1.10213 16.1321 1.29151C15.8765 1.48088 15.6884 1.74742 15.5958 2.05179Z" fill="#FFC195"/>
<path d="M17.0157 1C16.6696 1.00001 16.3343 1.1211 16.0681 1.34228C16.4577 1.34922 16.8289 1.50909 17.1016 1.7874C17.3744 2.0657 17.5267 2.4401 17.5257 2.82975L17.492 16.3499C17.4898 17.2349 17.2481 18.1027 16.7925 18.8613C16.3369 19.6199 15.6844 20.2411 14.9043 20.6588L8.10413 24.3002L8.11977 24.4709L15.8784 20.3146C16.6585 19.8968 17.3109 19.2757 17.7665 18.5171C18.2221 17.7584 18.4638 16.8906 18.466 16.0057L18.4998 2.48551C18.5 2.2905 18.4617 2.09736 18.3872 1.91714C18.3127 1.73692 18.2034 1.57315 18.0656 1.43518C17.9278 1.29722 17.7641 1.18778 17.584 1.11311C17.4038 1.03843 17.2107 1 17.0157 1Z" fill="#FFA688"/>
<path d="M15.5958 2.05179L11.9064 13.7134L7.41666 16.7837L8.1198 24.4709L15.8784 20.3146C16.6585 19.8968 17.311 19.2757 17.7666 18.5171C18.2221 17.7584 18.4639 16.8906 18.4661 16.0057L18.4998 2.48551C18.5 2.2905 18.4617 2.09736 18.3872 1.91714C18.3128 1.73692 18.2035 1.57315 18.0656 1.43518C17.9278 1.29722 17.7642 1.18778 17.584 1.11311C17.4039 1.03843 17.2108 1 17.0157 1V1C16.6976 0.999938 16.3878 1.10213 16.1321 1.29151C15.8765 1.48088 15.6884 1.74742 15.5958 2.05179V2.05179Z" stroke="#171819" stroke-width="0.504174" stroke-linecap="round" stroke-linejoin="round"/>
<path d="M10.8962 15.4145L12.0237 18.8158C12.2651 19.5433 12.3809 20.3066 12.366 21.073L12.321 23.4372C12.3163 23.6682 12.2454 23.893 12.1166 24.0849C11.9879 24.2768 11.8069 24.4277 11.5949 24.5197L4.11358 27.7675L1.5 17.2399L8.85322 14.4434C9.05076 14.3681 9.26151 14.3336 9.47274 14.3421C9.68397 14.3505 9.89131 14.4016 10.0822 14.4924C10.2732 14.5831 10.4437 14.7116 10.5836 14.8701C10.7235 15.0286 10.8298 15.2138 10.8962 15.4145Z" fill="#FFDC00"/>
<path d="M12.0238 18.8159L10.8962 15.4145C10.807 15.1457 10.6466 14.9062 10.432 14.7214C10.2174 14.5366 9.95671 14.4135 9.67765 14.3652L10.6209 17.2101C10.8621 17.9374 10.9778 18.7005 10.9632 19.4667L10.9172 21.8304C10.9129 22.0615 10.8422 22.2864 10.7137 22.4784C10.5851 22.6704 10.404 22.8215 10.1921 22.9135L3.61826 25.7686L4.11506 27.768L11.5964 24.5203C11.8083 24.4281 11.9893 24.2771 12.118 24.0851C12.2466 23.8931 12.3174 23.6682 12.322 23.4372L12.367 21.073C12.3815 20.3066 12.2655 19.5433 12.0238 18.8159Z" fill="#FF9770"/>
<path d="M10.8962 15.4145L12.0237 18.8158C12.2651 19.5433 12.3809 20.3066 12.366 21.073L12.321 23.4372C12.3163 23.6682 12.2454 23.893 12.1166 24.0849C11.9879 24.2768 11.8069 24.4277 11.5949 24.5197L4.11358 27.7675L1.5 17.2399L8.85322 14.4434C9.05076 14.3681 9.26151 14.3336 9.47274 14.3421C9.68397 14.3505 9.89131 14.4016 10.0822 14.4924C10.2732 14.5831 10.4437 14.7116 10.5836 14.8701C10.7235 15.0286 10.8298 15.2138 10.8962 15.4145Z" stroke="#171819" stroke-width="0.504174" stroke-linecap="round" stroke-linejoin="round"/>
<path d="M17.2964 7.88724C17.1225 7.88738 16.9509 7.92614 16.7938 8.00073C16.6368 8.07531 16.4983 8.18386 16.3883 8.31851C16.6917 8.33015 16.9788 8.45891 17.1892 8.67775C17.3997 8.89658 17.5171 9.18845 17.5169 9.49206V14.7891H18.4689V9.0598C18.4687 8.7489 18.345 8.4508 18.1252 8.23096C17.9054 8.01112 17.6073 7.8875 17.2964 7.88724Z" fill="#FFA688"/>
<path d="M14.782 13.906L16.1634 8.75761C16.2301 8.50807 16.3773 8.28752 16.5821 8.13015C16.787 7.97279 17.038 7.8874 17.2963 7.88724V7.88724C17.6076 7.88724 17.9061 8.01088 18.1261 8.23096C18.3462 8.45104 18.4699 8.74954 18.4699 9.06078V14.7891" stroke="#171819" stroke-width="0.504174" stroke-linecap="round" stroke-linejoin="round"/>
<path d="M21.4042 2.05179L25.0936 13.7134L29.5833 16.7837L28.8802 24.4709L21.1216 20.3146C20.3415 19.8968 19.689 19.2757 19.2334 18.5171C18.7779 17.7584 18.5361 16.8906 18.534 16.0057L18.4997 2.48551C18.4997 2.29049 18.538 2.09738 18.6126 1.91718C18.6871 1.73698 18.7965 1.57324 18.9343 1.4353C19.0722 1.29736 19.2359 1.18792 19.416 1.11323C19.5961 1.03854 19.7892 1.00006 19.9843 1C20.3024 0.999938 20.6122 1.10213 20.8679 1.29151C21.1235 1.48088 21.3116 1.74742 21.4042 2.05179Z" fill="#FFC195"/>
<path d="M19.9843 1C20.3304 1.00001 20.6656 1.1211 20.9319 1.34228C20.5423 1.34921 20.171 1.50908 19.8982 1.78737C19.6254 2.06565 19.4729 2.44005 19.4738 2.82975L19.508 16.3499C19.5102 17.2349 19.7519 18.1027 20.2075 18.8613C20.6631 19.6199 21.3155 20.2411 22.0957 20.6588L28.8959 24.2997L28.8802 24.4704L21.1216 20.3141C20.3415 19.8963 19.689 19.2752 19.2334 18.5166C18.7779 17.7579 18.5361 16.8901 18.534 16.0052L18.4997 2.48502C18.4997 2.09125 18.6561 1.71361 18.9345 1.43513C19.2129 1.15664 19.5905 1.00013 19.9843 1Z" fill="#FFA688"/>
<path d="M21.4042 2.05179L25.0936 13.7134L29.5833 16.7837L28.8802 24.4709L21.1216 20.3146C20.3415 19.8968 19.689 19.2757 19.2334 18.5171C18.7779 17.7584 18.5361 16.8906 18.534 16.0057L18.4997 2.48551C18.4997 2.29049 18.538 2.09738 18.6126 1.91718C18.6871 1.73698 18.7965 1.57324 18.9343 1.4353C19.0722 1.29736 19.2359 1.18792 19.416 1.11323C19.5961 1.03854 19.7892 1.00006 19.9843 1C20.3024 0.999938 20.6122 1.10213 20.8679 1.29151C21.1235 1.48088 21.3116 1.74742 21.4042 2.05179V2.05179Z" stroke="#171819" stroke-width="0.504174" stroke-linecap="round" stroke-linejoin="round"/>
<path d="M26.1038 15.4145L24.9763 18.8158C24.7351 19.5434 24.6194 20.3066 24.634 21.0729L24.6795 23.4371C24.6842 23.6681 24.755 23.8929 24.8836 24.0848C25.0123 24.2767 25.1932 24.4276 25.4051 24.5197L32.8864 27.7675L35.5 17.2399L28.1453 14.4439C27.9479 14.3688 27.7373 14.3345 27.5263 14.343C27.3152 14.3515 27.1081 14.4026 26.9173 14.4933C26.7266 14.584 26.5562 14.7124 26.4164 14.8707C26.2766 15.029 26.1702 15.214 26.1038 15.4145Z" fill="#FFDC00"/>
<path d="M24.9763 18.8159L26.1038 15.4145C26.193 15.1457 26.3534 14.9062 26.568 14.7214C26.7826 14.5366 27.0433 14.4135 27.3224 14.3652L26.3801 17.2101C26.1389 17.9374 26.0232 18.7005 26.0378 19.4667L26.0833 21.8309C26.0876 22.0619 26.1583 22.2869 26.2868 22.4789C26.4154 22.6709 26.5965 22.822 26.8084 22.914L33.3818 25.7686L32.8835 27.768L25.4051 24.5198C25.1932 24.4276 25.0121 24.2766 24.8835 24.0846C24.7549 23.8926 24.684 23.6677 24.6794 23.4367L24.634 21.0725C24.6194 20.3063 24.7352 19.5433 24.9763 18.8159Z" fill="#FF9770"/>
<path d="M26.1038 15.4145L24.9763 18.8158C24.7351 19.5434 24.6194 20.3066 24.634 21.0729L24.6795 23.4371C24.6842 23.6681 24.755 23.8929 24.8836 24.0848C25.0123 24.2767 25.1932 24.4276 25.4051 24.5197L32.8864 27.7675L35.5 17.2399L28.1453 14.4439C27.9479 14.3688 27.7373 14.3345 27.5263 14.343C27.3152 14.3515 27.1081 14.4026 26.9173 14.4933C26.7266 14.584 26.5562 14.7124 26.4164 14.8707C26.2766 15.029 26.1702 15.214 26.1038 15.4145Z" stroke="#171819" stroke-width="0.504174" stroke-linecap="round" stroke-linejoin="round"/>
<path d="M19.7036 7.88724C19.8772 7.8876 20.0485 7.92646 20.2053 8.00104C20.3621 8.07562 20.5003 8.18405 20.6101 8.31851C20.3068 8.33015 20.0197 8.45891 19.8092 8.67775C19.5988 8.89658 19.4814 9.18845 19.4816 9.49206V14.7891H18.531V9.0598C18.5313 8.7489 18.6549 8.4508 18.8747 8.23096C19.0946 8.01112 19.3927 7.8875 19.7036 7.88724Z" fill="#FFA688"/>
<path d="M22.2179 13.906L20.8366 8.75761C20.7698 8.50807 20.6226 8.28752 20.4178 8.13015C20.213 7.97279 19.9619 7.8874 19.7036 7.88724V7.88724C19.3924 7.88724 19.0939 8.01088 18.8738 8.23096C18.6537 8.45104 18.5301 8.74954 18.5301 9.06078V14.7891" stroke="#171819" stroke-width="0.504174" stroke-linecap="round" stroke-linejoin="round"/>
</svg>
