<svg width="200" height="148" viewBox="0 0 200 148" fill="none" xmlns="http://www.w3.org/2000/svg">
<g opacity="0.3" filter="url(#filter0_d)">
<path d="M49.5847 28.6436C32.5509 35.2628 19.9429 52.0586 17.4213 72.3409C15.3178 89.4454 20.3353 108.364 49.8678 113.735C107.331 124.214 161.153 127.199 174.887 98.9401C188.621 70.6813 184.401 22.2302 155.242 19.0911C132.052 16.6016 82.8546 15.7203 49.5847 28.6436Z" fill="#E6E6E6"/>
</g>
<g filter="url(#filter1_d)">
<path d="M75.071 39.7079C75.071 39.7079 52.1706 46.0891 58.7449 65.7732L72.2535 64.6989L75.071 39.7079Z" fill="#F3BF1E"/>
<path opacity="0.44" d="M75.071 39.7079C75.071 39.7079 52.1706 46.0891 58.7449 65.7732L72.2535 64.6989L75.071 39.7079Z" fill="white"/>
<path d="M97.2574 34.5616L87.1066 36.3371C87.1066 36.3371 50.4402 40.3189 66.3547 70.0637C82.2692 99.8084 121.676 83.2185 121.676 83.2185C121.676 83.2185 155.673 30.7085 97.2574 34.5616Z" fill="#F3BF1E"/>
<path d="M157.712 65.7731H41.7561C37.8482 65.7731 34.6802 68.9411 34.6802 72.849V132.924C34.6802 136.832 37.8482 140 41.7561 140H157.712C161.62 140 164.788 136.832 164.788 132.924V72.849C164.788 68.9411 161.62 65.7731 157.712 65.7731Z" fill="#E6E6E6"/>
<path opacity="0.08" d="M139.861 71.7105C139.861 71.7105 135.821 77.2619 131.679 75.6344C127.536 74.007 120.936 56.4521 120.518 44.706C122.179 44.3437 123.875 44.1711 125.574 44.1914C127.645 44.3394 139.861 71.7105 139.861 71.7105Z" fill="black"/>
<path d="M123.767 33.4682C123.634 31.9842 123.244 30.5346 122.615 29.184C122.325 28.5214 121.857 27.9516 121.264 27.5372C119.289 26.2829 116.118 27.5373 115.153 29.5507C114.723 30.5214 114.651 31.6127 114.947 32.6319C115.448 34.1325 116.218 35.5296 117.218 36.7553C117.826 37.7001 118.507 38.5949 119.257 39.4313C119.304 39.4933 119.373 39.5348 119.45 39.5471C119.523 39.5389 119.59 39.5073 119.643 39.457L123.947 36.022C123.914 35.1857 123.863 34.3237 123.767 33.4682Z" fill="#F4A28C"/>
<path d="M121.779 32.8185C121.779 32.8185 150.996 63.6054 143.135 71.4532C130.341 84.2221 117.218 36.7553 117.218 36.7553L121.779 32.8185Z" fill="#F4A28C"/>
<path d="M58.7449 65.7731C58.7449 65.7731 66.3547 60.3761 69.4617 64.3579C72.5687 68.3397 65.66 74.2836 58.7449 65.7731Z" fill="#F4A28C"/>
<path d="M90.9598 17.5922L89.0879 36.3563L100.628 42.1457L96.6785 22.8734L90.9598 17.5922Z" fill="#F4A28C"/>
<path opacity="0.31" d="M97.4246 25.8647C96.1038 25.6196 94.8845 24.9909 93.9188 24.0571C93.9188 24.0571 94.2726 27.4922 98.2545 30.6699L97.4246 25.8647Z" fill="#CE8172"/>
<path d="M99.2387 15.5724C99.2387 15.5724 100.84 21.1045 100.635 25.0349C100.613 25.4152 100.517 25.7876 100.351 26.1307C100.186 26.4738 99.9543 26.7809 99.6698 27.0343C99.3854 27.2876 99.0537 27.4824 98.6938 27.6073C98.3339 27.7323 97.9529 27.785 97.5726 27.7623C95.5978 27.6273 92.9604 26.8746 91.7446 24.0185L89.0815 19.4191C89.0815 19.4191 87.5119 16.4794 90.2458 13.559C92.9797 10.6385 98.4217 12.1759 99.2387 15.5724Z" fill="#F4A28C"/>
<path d="M100.068 19.1104L102.069 20.9758C102.183 21.0812 102.269 21.2139 102.318 21.3614C102.367 21.509 102.378 21.6665 102.35 21.8195C102.322 21.9724 102.255 22.1156 102.157 22.2358C102.058 22.356 101.93 22.4493 101.786 22.5068L99.7083 23.3366L100.068 19.1104Z" fill="#F4A28C"/>
<path d="M89.7569 25.3373L87.1645 17.9654C87.1645 17.9654 82.7581 17.5666 83.8388 14.6204C84.9195 11.6743 86.8107 13.4175 86.6178 10.1176C86.4248 6.81758 89.0172 5.98133 91.0434 7.66026C93.0697 9.3392 91.9891 6.85618 94.3048 6.31583C96.6206 5.77549 97.3282 6.77899 97.5212 8.55441C97.7142 10.3298 100.95 8.16202 102.024 10.3427C103.098 12.5234 103.375 14.7041 97.5726 15.5339C91.7703 16.3637 96.3054 20.8537 89.7569 25.3373Z" fill="#FFD200"/>
<path d="M94.1954 21.5935C94.1954 21.5935 93.7194 19.4321 92.1241 19.921C90.5288 20.4099 91.1849 23.5426 93.4621 23.3946L94.1954 21.5935Z" fill="#F4A28C"/>
<path d="M80.9634 84.9683H84.4692L89.0428 91.6904V84.9683H92.5808V97.0875H89.0428L84.4949 90.4232V97.0875H80.9634V84.9683Z" fill="#B3B3B3"/>
<path d="M95.0638 84.9683H105.125V87.5413H98.827V89.4711H104.668V91.9477H98.827V94.3407H105.305V97.0875H95.0638V84.9683Z" fill="#B3B3B3"/>
<path d="M106.077 84.9683H109.64L110.927 91.7676L112.805 84.9683H116.356L118.241 91.7612L119.527 84.9683H123.072L120.389 97.0875H116.71L114.581 89.4454L112.458 97.0875H108.778L106.077 84.9683Z" fill="#B3B3B3"/>
<path d="M60.0571 112.526L63.3507 113.517C63.1663 114.353 62.8091 115.142 62.3021 115.832C61.8403 116.44 61.2316 116.92 60.5332 117.228C59.6821 117.573 58.7683 117.735 57.8507 117.704C56.7496 117.743 55.6529 117.546 54.6344 117.125C53.7269 116.68 52.9724 115.974 52.4665 115.099C51.8156 113.976 51.4987 112.691 51.5531 111.394C51.5531 109.387 52.087 107.843 53.1548 106.762C54.2878 105.847 55.6689 105.291 57.1203 105.167C58.5717 105.043 60.027 105.357 61.2986 106.068C62.2312 106.786 62.9078 107.785 63.2284 108.917L59.9156 109.657C59.8379 109.369 59.7141 109.095 59.549 108.847C59.3456 108.575 59.0812 108.354 58.777 108.203C58.2686 107.96 57.6899 107.905 57.1451 108.051C56.6003 108.196 56.1251 108.53 55.8051 108.994C55.4094 109.727 55.2308 110.557 55.2905 111.387C55.2905 112.732 55.4963 113.658 55.9016 114.153C56.3327 114.607 56.9226 114.875 57.5475 114.903C58.1724 114.931 58.7837 114.715 59.253 114.301C59.6742 113.792 59.9517 113.179 60.0571 112.526Z" fill="#B3B3B3"/>
<path d="M72.6395 115.472H68.3746L67.7828 117.473H63.9232L68.484 105.328H72.5816L77.1939 117.473H73.2635L72.6395 115.472ZM71.8612 112.841L70.5167 108.48L69.1916 112.841H71.8612Z" fill="#B3B3B3"/>
<path d="M78.3259 105.328H83.2598L85.1896 112.719L87.0808 105.328H91.989V117.473H88.9141V108.216L86.5469 117.473H83.7616L81.4008 108.216V117.473H78.3259V105.328Z" fill="#B3B3B3"/>
<path d="M94.3627 105.328H100.602C101.708 105.244 102.803 105.593 103.658 106.299C104.009 106.664 104.28 107.097 104.454 107.572C104.628 108.048 104.7 108.554 104.668 109.059C104.698 109.588 104.615 110.118 104.425 110.614C104.236 111.11 103.944 111.559 103.568 111.934C102.614 112.695 101.407 113.065 100.191 112.97H98.1322V117.473H94.3627V105.328ZM98.1322 110.506H99.065C99.6008 110.559 100.139 110.427 100.59 110.133C100.732 110.016 100.846 109.869 100.923 109.702C101 109.535 101.038 109.352 101.033 109.168C101.038 108.988 101.006 108.81 100.94 108.643C100.873 108.476 100.774 108.324 100.647 108.197C100.239 107.882 99.7247 107.739 99.2129 107.798H98.1451L98.1322 110.506Z" fill="#B3B3B3"/>
<path d="M112.657 115.472H108.399L107.807 117.473H103.947L108.515 105.328H112.606L117.173 117.473H113.243L112.657 115.472ZM111.879 112.841L110.541 108.48L109.216 112.841H111.879Z" fill="#B3B3B3"/>
<path d="M118.537 105.328H122.3V117.473H118.537V105.328Z" fill="#B3B3B3"/>
<path d="M131.1 113.079V110.551H136.889V115.697C135.983 116.346 134.992 116.866 133.943 117.241C132.958 117.532 131.934 117.671 130.907 117.653C129.689 117.699 128.478 117.445 127.382 116.913C126.469 116.417 125.732 115.651 125.272 114.72C124.754 113.679 124.496 112.53 124.519 111.368C124.491 110.165 124.774 108.975 125.343 107.914C125.885 106.934 126.726 106.152 127.742 105.682C128.794 105.244 129.929 105.042 131.068 105.09C132.084 105.047 133.101 105.17 134.078 105.456C134.719 105.682 135.29 106.072 135.731 106.589C136.201 107.15 136.54 107.809 136.722 108.518L133.107 109.162C132.978 108.737 132.711 108.368 132.348 108.113C131.941 107.855 131.465 107.727 130.984 107.747C130.613 107.731 130.242 107.8 129.901 107.948C129.561 108.096 129.258 108.32 129.016 108.602C128.462 109.394 128.202 110.354 128.282 111.317C128.282 112.603 128.527 113.568 129.022 114.134C129.284 114.419 129.605 114.642 129.963 114.788C130.321 114.933 130.707 114.998 131.093 114.977C131.499 114.98 131.903 114.919 132.29 114.797C132.742 114.632 133.173 114.416 133.576 114.153V113.015L131.1 113.079Z" fill="#B3B3B3"/>
<path d="M139.147 105.328H142.653L147.227 112.05V105.328H150.765V117.473H147.227L142.679 110.808V117.473H139.147V105.328Z" fill="#B3B3B3"/>
<path d="M140.845 25.7425L106.887 27.0998L105.08 20.8022L134.625 4L140.845 25.7425Z" fill="#24285B"/>
<path d="M115.896 24.0293L112.908 25.6722L118.922 36.607L121.91 34.964L115.896 24.0293Z" fill="#24285B"/>
<path d="M117.019 28.901C117.153 28.8803 117.291 28.888 117.423 28.9234C117.555 28.9588 117.678 29.0213 117.784 29.1068C117.943 29.3014 118.033 29.5428 118.042 29.7939C118.05 30.045 117.975 30.2918 117.829 30.4963C117.578 30.9273 117.186 31.2811 116.967 31.7313C117.211 31.9833 117.392 32.2896 117.495 32.6251C117.598 32.9605 117.62 33.3156 117.559 33.6612C117.469 34.1307 117.096 34.6325 116.626 34.5617C116.396 34.5047 116.19 34.3736 116.041 34.1886C115.353 33.4617 114.548 32.0401 114.831 30.9723C115.057 30.1875 116.15 29.0168 117.019 28.901Z" fill="#F4A28C"/>
</g>
<defs>
<filter id="filter0_d" x="13" y="17.5889" width="173.414" height="111.624" filterUnits="userSpaceOnUse" color-interpolation-filters="sRGB">
<feFlood flood-opacity="0" result="BackgroundImageFix"/>
<feColorMatrix in="SourceAlpha" type="matrix" values="0 0 0 0 0 0 0 0 0 0 0 0 0 0 0 0 0 0 127 0" result="hardAlpha"/>
<feOffset dy="4"/>
<feGaussianBlur stdDeviation="2"/>
<feColorMatrix type="matrix" values="0 0 0 0 0 0 0 0 0 0 0 0 0 0 0 0 0 0 0.25 0"/>
<feBlend mode="normal" in2="BackgroundImageFix" result="effect1_dropShadow"/>
<feBlend mode="normal" in="SourceGraphic" in2="effect1_dropShadow" result="shape"/>
</filter>
<filter id="filter1_d" x="30.6802" y="0" width="142.108" height="148" filterUnits="userSpaceOnUse" color-interpolation-filters="sRGB">
<feFlood flood-opacity="0" result="BackgroundImageFix"/>
<feColorMatrix in="SourceAlpha" type="matrix" values="0 0 0 0 0 0 0 0 0 0 0 0 0 0 0 0 0 0 127 0" result="hardAlpha"/>
<feOffset dx="2" dy="2"/>
<feGaussianBlur stdDeviation="3"/>
<feColorMatrix type="matrix" values="0 0 0 0 0 0 0 0 0 0 0 0 0 0 0 0 0 0 0.25 0"/>
<feBlend mode="normal" in2="BackgroundImageFix" result="effect1_dropShadow"/>
<feBlend mode="normal" in="SourceGraphic" in2="effect1_dropShadow" result="shape"/>
</filter>
</defs>
</svg>
