<svg width="200" height="136" viewBox="0 0 200 136" fill="none" xmlns="http://www.w3.org/2000/svg">
<path d="M174.607 132.581L171.356 132.581L169.809 120.041L174.607 120.041L174.607 132.581Z" fill="#FFB8B8"/>
<path d="M175.436 135.732L164.953 135.732V135.599C164.953 134.517 165.383 133.48 166.148 132.714C166.913 131.949 167.951 131.519 169.033 131.519H169.033L175.436 131.52L175.436 135.732Z" fill="#2F2E41"/>
<path d="M188.955 124.589L186.845 127.062L176.302 120.099L179.416 116.449L188.955 124.589Z" fill="#FFB8B8"/>
<path d="M191.89 126.003L185.086 133.977L184.985 133.891C184.162 133.189 183.652 132.188 183.566 131.109C183.481 130.031 183.827 128.962 184.53 128.139L184.53 128.139L188.686 123.269L191.89 126.003Z" fill="#2F2E41"/>
<path d="M151.523 70.9133L150.511 80.2463L191.42 79.6628L173.579 50.5934L159.013 50.0702L151.523 70.9133Z" fill="#2F2E41"/>
<path opacity="0.28" d="M151.523 70.9133L150.511 80.2463L191.42 79.6628L173.579 50.5934L159.013 50.0702L151.523 70.9133Z" fill="black"/>
<path d="M159.567 72.5155L158.123 81.0551V88.6882L169.767 92.4891C169.767 92.4891 168.404 122.138 170.222 124.026L170.177 128.585L175.257 128.815L175.298 125.607L177.452 101.627L178.72 84.0209L176.664 70.6724L159.567 72.5155Z" fill="#2F2E41"/>
<path d="M168.589 79.8665L158.123 88.6882C158.123 88.6882 157.511 104.605 159.066 106.471C160.402 108.074 177.778 121.903 177.778 121.903C177.778 121.903 180.866 124.735 182.596 124.78C184.327 124.826 186.34 121.196 186.34 121.196L182.332 118.151C182.332 118.151 171.949 108.458 168.866 104.605C167.621 103.049 167.621 102.894 167.621 102.894L168.046 96.4251L172.324 84.4203L168.589 79.8665Z" fill="#2F2E41"/>
<path d="M157.478 37.6101L152.965 37.1931L148.872 37.8752L140.206 37.878L139.467 44.1594L147.376 45.9292L149.304 44.9846L157.338 48.0456L157.478 37.6101Z" fill="#2F2E41"/>
<path d="M162.867 37.5904C162.867 37.5904 172.443 36.6931 174.621 38.4041C176.798 40.1151 181.465 74.0242 181.465 74.0242L162.867 75.0738L159.533 72.7798L160.479 55.851L162.867 37.5904Z" fill="#CCCCCC"/>
<path d="M165.79 37.3792L155.227 37.611L145.378 82.1125L153.155 83.8237L165.79 37.3792Z" fill="#2F2E41"/>
<path d="M173.299 37.0031L181.62 39.6074L181.148 57.8916L191.42 79.7518L179.344 81.0239L169.799 57.419L173.299 37.0031Z" fill="#2F2E41"/>
<path d="M187.02 81.9723C187.312 81.7155 187.544 81.3978 187.7 81.0417C187.855 80.6856 187.931 80.2997 187.921 79.9112C187.912 79.5227 187.817 79.141 187.644 78.793C187.471 78.445 187.224 78.1392 186.92 77.8971L188.594 72.0574L185.293 70.1746L183.045 78.4546C182.672 78.9924 182.509 79.6482 182.588 80.2978C182.666 80.9474 182.98 81.5457 183.47 81.9793C183.96 82.4129 184.592 82.6516 185.247 82.6504C185.901 82.6491 186.532 82.4078 187.02 81.9723Z" fill="#FFB8B8"/>
<path d="M176.798 40.1152L181.722 39.6881C181.722 39.6881 186.142 44.3111 187.148 47.8906C188.153 51.47 189.242 62.6694 189.242 62.6694L188.788 79.0529L183.033 75.1446L182.647 61.0527L176.798 40.1152Z" fill="#2F2E41"/>
<path d="M175.611 31.8804C177.46 28.4982 176.217 24.2576 172.834 22.4087C169.452 20.5598 165.211 21.8028 163.363 25.185C161.514 28.5673 162.757 32.8079 166.139 34.6568C169.521 36.5057 173.762 35.2627 175.611 31.8804Z" fill="#FFB8B8"/>
<path d="M168.708 25.619C167.793 25.4074 166.842 25.6419 165.915 25.7939C164.987 25.9459 163.965 25.996 163.181 25.4785C162.601 25.0963 162.245 24.4641 161.91 23.8559C161.771 23.6387 161.678 23.395 161.637 23.14C161.598 22.6902 161.884 22.2799 162.188 21.9459C163.599 20.3946 165.661 19.5455 167.741 19.2758C169.456 19.0202 171.209 19.2342 172.812 19.8951C174.391 20.5875 175.748 21.8556 176.369 23.4639C176.655 24.2871 176.833 25.1437 176.9 26.0125C176.994 26.6517 177.006 27.3003 176.936 27.9426C176.852 28.4187 176.727 28.8866 176.562 29.3409L175.533 32.4456C175.459 32.739 175.321 33.0123 175.129 33.2459C175.03 33.3603 174.897 33.4396 174.749 33.472C174.602 33.5043 174.448 33.488 174.31 33.4254C174.392 33.0881 174.405 32.7377 174.347 32.3954C174.315 32.2249 174.232 32.0678 174.11 31.9446C173.988 31.8213 173.831 31.7375 173.661 31.7039C173.282 31.6637 172.958 31.9575 172.599 32.084C172.434 32.1328 172.262 32.1486 172.091 32.1307C171.921 32.1128 171.755 32.0615 171.604 31.9796C171.453 31.8978 171.32 31.787 171.212 31.6537C171.104 31.5203 171.023 31.367 170.975 31.2025C170.965 31.1693 170.956 31.1358 170.949 31.1019C170.892 30.747 170.988 30.367 170.853 30.0337C170.695 29.6431 170.277 29.4385 169.963 29.1579C169.677 28.8935 169.472 28.5527 169.372 28.1757C169.273 27.7987 169.283 27.4012 169.402 27.0297C169.486 26.7714 169.723 26.6539 169.676 26.3571C169.613 25.9677 169.039 25.6954 168.708 25.619Z" fill="#2F2E41"/>
<path d="M91.1141 55.1216H3V0H91.1141V55.1216Z" fill="white"/>
<path d="M91.1141 55.1216H3V0H91.1141V55.1216ZM3.40235 54.7192H90.7117V0.402348H3.40235V54.7192Z" fill="#3F3D56"/>
<path d="M80.3513 131.467H30.0579V76.3456H80.3513V131.467Z" fill="white"/>
<path d="M80.3513 131.467H30.0579V76.3456H80.3513V131.467ZM30.4602 131.065H79.9489V76.7479H30.4602V131.065Z" fill="#3F3D56"/>
<path d="M73.5114 126.261H63.0504V126.685H73.5114V126.261Z" fill="#3F3D56"/>
<path d="M73.5114 127.533H63.0504V127.957H73.5114V127.533Z" fill="#3F3D56"/>
<path d="M73.5114 128.806H63.0504V129.23H73.5114V128.806Z" fill="#3F3D56"/>
<path d="M55.2046 86.203V90.6288C57.8306 90.6288 60.3977 91.4075 62.5812 92.8665C64.7646 94.3254 66.4664 96.3991 67.4714 98.8252C68.4763 101.251 68.7392 103.921 68.2269 106.497C67.7146 109.072 66.4501 111.438 64.5932 113.295L67.7227 116.424C70.1986 113.949 71.8846 110.794 72.5677 107.36C73.2508 103.926 72.9002 100.366 71.5603 97.1315C70.2204 93.8967 67.9513 91.1318 65.04 89.1865C62.1287 87.2413 58.706 86.203 55.2046 86.203Z" fill="#E6E6E6"/>
<path d="M67.7227 116.424L64.5932 113.295C62.3232 115.565 59.3072 116.936 56.1039 117.153C52.9007 117.371 49.7272 116.419 47.1715 114.476L44.4927 118.001C47.9009 120.591 52.1323 121.859 56.4033 121.569C60.6744 121.279 64.6957 119.451 67.7227 116.424Z" fill="#575A89"/>
<path d="M41.9272 103.906C41.9272 102.163 42.2706 100.436 42.9379 98.8252C43.6051 97.2143 44.5831 95.7506 45.816 94.5177C47.049 93.2848 48.5127 92.3068 50.1236 91.6395C51.7345 90.9723 53.461 90.6288 55.2046 90.6288V86.203C51.4987 86.203 47.8861 87.366 44.8762 89.5281C41.8663 91.6902 39.6108 94.7424 38.4277 98.2545C37.2446 101.767 37.1935 105.561 38.2816 109.104C39.3697 112.647 41.5422 115.758 44.4928 118.001L47.1716 114.476C45.5405 113.239 44.2182 111.641 43.3083 109.807C42.3984 107.973 41.9257 105.953 41.9272 103.906Z" fill="#F3BF1E"/>
<path d="M154.786 97.2676H104.492V42.1459H154.786V97.2676Z" fill="white"/>
<path d="M154.786 97.2676H104.492V42.1459H154.786V97.2676ZM104.894 96.8652H154.383V42.5482H104.894V96.8652Z" fill="#3F3D56"/>
<path d="M120.787 75.8425H111.734V90.327H120.787V75.8425Z" fill="#575A89"/>
<path d="M133.864 65.985H124.811V90.327H133.864V65.985Z" fill="#E6E6E6"/>
<path d="M146.94 54.5182H137.887V90.3271H146.94V54.5182Z" fill="#F3BF1E"/>
<path d="M149.957 90.7296H109.32V48.6841H109.723V90.3271H149.957V90.7296Z" fill="#3F3D56"/>
<path d="M140.16 43.6135C141.69 43.6135 142.931 42.373 142.931 40.8427C142.931 39.3124 141.69 38.0719 140.16 38.0719C138.63 38.0719 137.389 39.3124 137.389 40.8427C137.389 42.373 138.63 43.6135 140.16 43.6135Z" fill="#FFB8B8"/>
<path d="M197.092 136H153.914C153.853 136 153.794 135.976 153.751 135.932C153.707 135.889 153.683 135.83 153.683 135.769C153.683 135.708 153.707 135.649 153.751 135.606C153.794 135.563 153.853 135.538 153.914 135.538H197.092C197.153 135.538 197.212 135.563 197.255 135.606C197.299 135.649 197.323 135.708 197.323 135.769C197.323 135.83 197.299 135.889 197.255 135.932C197.212 135.976 197.153 136 197.092 136Z" fill="#CCCCCC"/>
<path d="M78.8771 43.5936H15.2369C15.1841 43.5936 15.1335 43.5726 15.0961 43.5352C15.0588 43.4979 15.0378 43.4472 15.0378 43.3944V12.8917C15.0378 12.8388 15.0588 12.7882 15.0961 12.7508C15.1335 12.7135 15.1841 12.6925 15.2369 12.6925C15.2898 12.6925 15.3404 12.7135 15.3778 12.7508C15.4151 12.7882 15.4361 12.8388 15.4361 12.8917V43.1953H78.8771C78.9034 43.1952 78.9293 43.2003 78.9536 43.2102C78.9778 43.2202 78.9998 43.2348 79.0184 43.2533C79.037 43.2718 79.0517 43.2938 79.0618 43.318C79.0718 43.3423 79.077 43.3682 79.077 43.3944C79.077 43.4206 79.0718 43.4466 79.0618 43.4708C79.0517 43.495 79.037 43.517 79.0184 43.5355C78.9998 43.554 78.9778 43.5686 78.9536 43.5786C78.9293 43.5886 78.9034 43.5937 78.8771 43.5936Z" fill="#3F3D56"/>
<path d="M28.8341 41.4028H23.0458C22.889 41.4026 22.7388 41.3403 22.6279 41.2295C22.5171 41.1186 22.4547 40.9684 22.4546 40.8116V32.8324C22.4547 32.6756 22.5171 32.5254 22.6279 32.4146C22.7388 32.3037 22.889 32.2414 23.0458 32.2412H28.8341C28.9908 32.2414 29.1411 32.3037 29.2519 32.4146C29.3628 32.5254 29.4251 32.6756 29.4253 32.8324V40.8116C29.4251 40.9684 29.3628 41.1186 29.252 41.2295C29.1411 41.3403 28.9908 41.4026 28.8341 41.4028Z" fill="#F3BF1E"/>
<path d="M39.3898 41.4027H33.6015C33.4447 41.4025 33.2945 41.3402 33.1836 41.2294C33.0728 41.1185 33.0104 40.9683 33.0103 40.8115V25.264C33.0104 25.1073 33.0728 24.957 33.1836 24.8462C33.2945 24.7354 33.4447 24.673 33.6015 24.6729H39.3898C39.5465 24.673 39.6968 24.7354 39.8076 24.8462C39.9185 24.957 39.9808 25.1073 39.981 25.264V40.8115C39.9808 40.9683 39.9185 41.1185 39.8076 41.2294C39.6968 41.3402 39.5465 41.4025 39.3898 41.4027Z" fill="#F3BF1E"/>
<path d="M49.9455 41.4028H44.1572C44.0005 41.4026 43.8502 41.3403 43.7394 41.2295C43.6285 41.1186 43.5662 40.9684 43.566 40.8116V32.8324C43.5662 32.6756 43.6285 32.5254 43.7394 32.4146C43.8502 32.3037 44.0005 32.2414 44.1572 32.2412H49.9455C50.1023 32.2414 50.2525 32.3037 50.3634 32.4146C50.4742 32.5254 50.5366 32.6756 50.5368 32.8324V40.8116C50.5366 40.9684 50.4742 41.1186 50.3634 41.2295C50.2525 41.3403 50.1023 41.4026 49.9455 41.4028Z" fill="#F3BF1E"/>
<path d="M60.5013 41.4028H54.713C54.5598 41.406 54.4116 41.3485 54.3008 41.2427C54.1899 41.1369 54.1256 40.9915 54.1218 40.8384V22.2498C54.1256 22.0967 54.1899 21.9513 54.3008 21.8455C54.4116 21.7397 54.5598 21.6821 54.713 21.6854H60.5013C60.6545 21.6821 60.8027 21.7397 60.9135 21.8455C61.0243 21.9513 61.0887 22.0967 61.0925 22.2498V40.8384C61.0887 40.9915 61.0243 41.1369 60.9135 41.2427C60.8027 41.3485 60.6545 41.406 60.5013 41.4028Z" fill="#F3BF1E"/>
<path d="M71.057 41.4028H65.2687C65.112 41.4026 64.9617 41.3402 64.8509 41.2294C64.74 41.1186 64.6777 40.9683 64.6775 40.8116V16.8992C64.6777 16.7424 64.74 16.5922 64.8509 16.4813C64.9617 16.3705 65.112 16.3082 65.2687 16.308H71.057C71.2138 16.3082 71.364 16.3705 71.4749 16.4813C71.5857 16.5922 71.6481 16.7424 71.6483 16.8992V40.8116C71.6481 40.9683 71.5857 41.1186 71.4749 41.2294C71.364 41.3402 71.2138 41.4026 71.057 41.4028Z" fill="#F3BF1E"/>
<path d="M25.9399 29.8512C26.5999 29.8512 27.1349 29.3161 27.1349 28.6562C27.1349 27.9962 26.5999 27.4612 25.9399 27.4612C25.2799 27.4612 24.7449 27.9962 24.7449 28.6562C24.7449 29.3161 25.2799 29.8512 25.9399 29.8512Z" fill="#3F3D56"/>
<path d="M36.4956 22.0838C37.1556 22.0838 37.6906 21.5488 37.6906 20.8888C37.6906 20.2289 37.1556 19.6938 36.4956 19.6938C35.8357 19.6938 35.3007 20.2289 35.3007 20.8888C35.3007 21.5488 35.8357 22.0838 36.4956 22.0838Z" fill="#3F3D56"/>
<path d="M47.0514 29.8512C47.7113 29.8512 48.2464 29.3161 48.2464 28.6562C48.2464 27.9962 47.7113 27.4612 47.0514 27.4612C46.3914 27.4612 45.8564 27.9962 45.8564 28.6562C45.8564 29.3161 46.3914 29.8512 47.0514 29.8512Z" fill="#3F3D56"/>
<path d="M57.6072 18.2996C58.2671 18.2996 58.8022 17.7646 58.8022 17.1047C58.8022 16.4447 58.2671 15.9097 57.6072 15.9097C56.9472 15.9097 56.4122 16.4447 56.4122 17.1047C56.4122 17.7646 56.9472 18.2996 57.6072 18.2996Z" fill="#3F3D56"/>
<path d="M68.1629 13.9181C68.8229 13.9181 69.3579 13.383 69.3579 12.7231C69.3579 12.0631 68.8229 11.5281 68.1629 11.5281C67.5029 11.5281 66.9679 12.0631 66.9679 12.7231C66.9679 13.383 67.5029 13.9181 68.1629 13.9181Z" fill="#3F3D56"/>
<path d="M47.0765 28.9238L36.4957 20.9986L26.0593 28.8155L25.8205 28.4967L36.4957 20.5008L47.0261 28.3884L57.4907 16.9369L57.5328 16.9198L68.0884 12.6666L68.2373 13.0363L57.7235 17.2724L47.0765 28.9238Z" fill="#3F3D56"/>
</svg>
