<svg width="200" height="136" viewBox="0 0 200 136" fill="none" xmlns="http://www.w3.org/2000/svg">
<path d="M167.586 33.227L166.783 35.6646L168.934 36.0696L169.112 33.1156L167.586 33.227Z" fill="#DEADB2"/>
<path d="M176.332 127.984C173.447 127.859 173.336 130.794 173.336 130.794H175.786H176.878H179.235C179.235 130.794 179.217 127.859 176.332 127.984Z" fill="#1E0F00"/>
<path d="M190.6 127.984C187.715 127.859 187.604 130.794 187.604 130.794H190.054H191.146H193.503C193.503 130.794 193.485 127.859 190.6 127.984Z" fill="#1E0F00"/>
<path d="M184.913 82.485C184.913 82.485 184.836 83.1908 184.717 84.298C184.542 85.9145 184.278 88.3865 184.028 90.7724C183.757 93.356 183.503 95.8382 183.402 97.0205C183.368 97.4059 183.287 98.1985 183.17 99.2888L183.167 99.3269C182.364 106.827 179.922 128.171 179.922 128.171C179.922 128.171 173.863 128.464 172.58 128.171C171.64 127.957 173.494 102.666 174.552 89.1638C174.938 84.2388 175.218 80.8823 175.218 80.8823L184.913 82.485Z" fill="#0E538B"/>
<path d="M191.898 81.6525C191.898 81.6525 195.122 127.879 193.84 128.171C192.557 128.463 186.498 128.171 186.498 128.171C186.498 128.171 183.299 98.1634 183.038 95.1416C182.777 92.1198 181.507 82.4847 181.507 82.4847L191.898 81.6525Z" fill="#0A4A6F"/>
<path d="M184.913 84.2986V90.3739C184.913 90.3739 184.378 90.4504 184.028 90.7723C183.896 90.8927 183.79 91.049 183.75 91.2497C183.604 91.9795 183.17 99.2888 183.17 99.2888L183.167 99.3268C182.364 106.827 179.922 128.171 179.922 128.171C179.922 128.171 173.863 128.463 172.58 128.171C171.64 127.957 173.494 102.666 174.552 89.1638L174.822 84.2709L184.717 84.2979L184.913 84.2986Z" fill="#0E538B"/>
<path d="M175.595 87.2977C178.539 87.2977 179.696 85.0605 179.696 85.0605C179.683 85.0819 178.416 87.1914 175.491 87.1395L175.488 87.2968C175.524 87.2974 175.56 87.2977 175.595 87.2977Z" fill="#1E0F00"/>
<path d="M172.73 125.566C173.523 121.843 174.238 117.433 174.726 112.842C174.8 112.14 174.872 111.418 174.939 110.696C175.014 109.9 175.083 109.093 175.146 108.299C175.168 108.027 175.097 107.715 175.029 107.414C174.965 107.133 174.9 106.844 174.916 106.608C175.132 103.591 175.183 100.832 175.228 98.3991C175.24 97.7609 175.251 97.1363 175.265 96.5235C175.392 90.9896 175.485 87.853 175.488 87.822C175.485 87.8529 175.194 90.9816 175.067 96.5231C175.053 97.136 175.041 97.7609 175.029 98.3994C174.985 100.831 174.934 103.586 174.718 106.599C174.699 106.862 174.768 107.165 174.835 107.459C174.9 107.746 174.968 108.044 174.948 108.288C174.885 109.081 174.816 109.887 174.742 110.682C174.674 111.404 174.603 112.125 174.528 112.826C174.041 117.41 173.465 121.854 172.672 125.571L172.73 125.566Z" fill="#0A4A6F"/>
<path d="M196.564 36.2672L195.157 33.1283L194.098 33.2949L194.546 36.9707L196.564 36.2672Z" fill="#DEADB2"/>
<path d="M185.952 56.1165C185.912 56.1151 185.88 56.0821 185.881 56.0422C185.906 54.1444 185.906 52.4303 185.906 52.4303L180.322 51.5177C180.13 52.9512 180.109 54.653 180.141 56.0652C180.142 56.1016 180.113 56.131 180.077 56.1315C179.783 56.1356 186.118 56.1223 185.952 56.1165Z" fill="#C88D94"/>
<path d="M179.608 49.9076C179.608 49.9076 175.881 44.0304 183.038 43.6413C183.038 43.6413 185.723 43.9574 186.331 43.3496C186.331 43.3496 188.413 46.5145 186.468 49.9075C184.524 53.3006 179.608 49.9076 179.608 49.9076Z" fill="#0A4A6F"/>
<path d="M185.74 52.9743C185.197 53.4012 183.606 53.8252 183.146 53.8748C183.146 53.8748 180.787 53.3487 180.359 53.0901C179.695 52.6875 179.737 51.8726 179.703 50.7397C179.662 49.3988 179.527 48.3458 179.677 47.5726C179.855 46.6478 180.441 46.1218 182.083 45.9789C185.096 45.7173 186.352 46.4719 186.404 47.4822C186.418 47.7535 186.43 48.0121 186.439 48.2572C186.56 51.4078 186.311 52.5251 185.74 52.9743Z" fill="#DEADB2"/>
<path d="M196.294 35.6645L194.483 36.4561L194.581 46.6442C191.267 50.4207 188.625 53.8942 187.464 55.4605C186.942 55.381 186.429 55.3169 185.927 55.2671C185.255 55.6533 184.398 55.9417 183.339 55.9491C181.511 55.9637 180.623 55.5858 180.183 55.2434C179.541 55.3008 178.947 55.3739 178.407 55.4533C178.4 55.4543 178.392 55.4551 178.385 55.457C178.374 55.4579 178.363 55.4597 178.353 55.4615C178.339 55.4506 173.046 51.0402 168.896 48.2924C168.896 48.2924 168.876 41.2138 169.25 35.8888L166.783 35.1464C166.783 35.1464 165.663 37.1119 164.627 42.6935C163.468 48.9415 163.897 48.2485 164.542 50.1064C164.542 50.1064 164.542 50.1063 164.542 50.1081C164.626 50.2533 169.963 59.5833 173.027 62.1678C173.065 62.2883 173.105 62.4161 173.146 62.5485C173.429 63.4605 173.782 64.6454 174.125 65.9162C174.789 68.3665 175.413 71.129 175.413 72.8389C175.413 73.0498 175.404 73.247 175.383 73.4231C174.833 78.2242 174.634 80.9182 174.594 82.4227C174.564 83.4999 174.617 83.9683 174.678 84.1646C174.694 84.2174 174.711 84.2503 174.728 84.2705C174.779 84.3316 174.823 84.2731 174.823 84.2731C174.823 84.2731 181.495 84.6821 183.712 84.6821C185.845 84.6821 192.223 84.2731 192.223 84.2731C192.223 84.2731 192.88 83.4296 191.905 75.5301C191.695 73.8266 192.948 66.2391 193.649 62.2181L193.649 62.2183C193.649 62.2183 199.398 51.8215 199.989 46.7455C200.239 44.5897 196.294 35.6645 196.294 35.6645Z" fill="#FEBE56"/>
<path opacity="0.2" d="M181.074 58.4068C180.517 58.7776 178.876 56.2435 178.385 55.4568C178.392 55.4553 178.399 55.4546 178.407 55.4531C179.1 56.2085 181.66 58.0163 181.074 58.4068Z" fill="#A2431D"/>
<path opacity="0.2" d="M179.772 56.1455C179.906 56.199 182.606 57.0749 183.792 56.8194C183.792 56.8194 181.931 58.0419 181.694 57.9689C181.457 57.8959 179.772 56.1455 179.772 56.1455Z" fill="#A2431D"/>
<path d="M167.632 33.4386C167.632 33.4386 170.604 33.2346 171.213 31.8957C171.821 30.5567 169.061 30.0509 168.585 30.2734C168.109 30.4958 166.912 32.4253 167.632 33.4386Z" fill="#DEADB2"/>
<path opacity="0.2" d="M176.888 83.5411C176.427 83.8743 175.448 84.0632 174.678 84.1647C174.616 83.9683 174.564 83.5 174.594 82.4228C174.634 80.9183 174.833 78.2244 175.383 73.4233C175.404 73.2471 175.413 73.0499 175.413 72.839C175.413 71.1291 174.789 68.3666 174.125 65.9164C173.782 64.6456 173.429 63.4606 173.146 62.5486C173.105 62.4162 173.064 62.2885 173.027 62.1679C169.962 59.5834 164.625 50.2535 164.542 50.1083C164.651 50.2224 172.651 58.6741 173.921 60.0791C175.199 61.4941 176.842 71.1711 176.66 72.1296C176.477 73.0882 177.71 82.9477 176.888 83.5411Z" fill="#A2431D"/>
<path d="M192.239 32.9868C192.239 32.9868 194.188 31.1967 195.248 33.3296C195.248 33.3296 194.003 35.8803 192.301 34.8369C191.358 34.2588 192.239 32.9868 192.239 32.9868Z" fill="#DEADB2"/>
<path d="M125.007 62.543L124.854 61.1164C124.854 61.1164 122.772 60.7526 122.683 58.4357C122.683 58.4357 122.717 57.4842 123.351 57.8018C123.984 58.1194 123.706 58.0868 124.607 58.5154C125.508 58.9441 126.179 59.7404 126.2 60.4557L126.616 62.1354L125.007 62.543Z" fill="#DEADB2"/>
<path d="M142.03 123.364L140.878 128.878L139.14 128.621L138.371 123.523L142.03 123.364Z" fill="#DEADB2"/>
<path d="M141.518 128.589L140.852 130.794H134.239C134.239 130.794 135.93 127.82 141.518 128.589Z" fill="#D3892A"/>
<path d="M153.084 121.391L155.982 128.575L153.934 128.846L149.689 123.364L153.084 121.391Z" fill="#DEADB2"/>
<path d="M156.969 128.589L156.302 130.794H149.689C149.689 130.794 151.381 127.82 156.969 128.589Z" fill="#D3892A"/>
<path d="M135.07 85.8097C135.07 85.8097 135.213 102.337 135.665 107.846C136.012 112.079 138.263 124.778 138.263 124.778H142.816C142.816 124.778 146.944 93.1417 144.873 87.217L135.07 85.8097Z" fill="#0E538B"/>
<path d="M147.236 108.443C146.297 106.969 149.909 91.4158 146.833 86.9202L145.555 86.9168L137.643 86.8928L136.48 86.9204L136.909 91.487C136.909 91.487 137.828 91.7854 137.945 93.5914C138.361 100.473 139.296 110.513 141.272 112.936C144.352 116.711 150.702 125.491 150.702 125.491L152.991 123.901L154.134 123.108C154.134 123.108 150.994 114.334 147.236 108.443Z" fill="#2A94F5"/>
<path opacity="0.5" d="M154.134 123.107L152.991 123.901C150.915 120.707 145.354 112.066 144.589 109.979C143.645 107.404 145.533 99.081 145.888 96.0777C146.244 93.0744 144.872 87.2171 144.872 87.2171L145.555 86.9167L146.833 86.9202C149.909 91.4157 146.296 106.969 147.236 108.443C150.994 114.334 154.134 123.107 154.134 123.107Z" fill="#0E538B"/>
<path d="M155.916 85.6412L156.513 86.6088C156.586 86.8727 156.669 87.0718 156.914 87.1928C157.507 87.4848 158.603 88.2337 158.685 89.8069C158.685 89.8069 158.667 90.6973 158.07 90.4088C157.473 90.1203 157.734 90.147 156.885 89.7582C156.037 89.3695 155.722 88.1329 155.648 87.7113L155.058 86.8532L155.916 85.6412Z" fill="#DEADB2"/>
<path d="M137.028 56.101C137.028 56.101 137.191 50.7253 142.351 51.3864C147.511 52.0474 147.944 58.8119 146.904 61.0667C145.863 63.3215 148.985 63.3649 149.896 65.3596C150.806 67.3542 149.332 69.609 149.332 70.1728C149.332 70.7365 148.701 76.5144 145.275 76.4276C141.85 76.3409 136.094 76.1702 136.367 70.1294C136.507 67.0344 134.387 65.8777 135.742 64.7361C138.093 62.7556 137.028 56.101 137.028 56.101Z" fill="#0E538B"/>
<path d="M147.458 64.8512C146.318 64.5595 145.255 64.3564 144.282 64.2178L144.282 64.2177C144.282 64.2177 143.847 64.1322 143.639 59.5552L139.8 60.7243C139.8 60.7243 140.091 62.4142 139.523 63.9772C138.504 64.0285 137.909 64.1346 137.834 64.1346C137.834 64.1346 134.55 71.2319 135.076 74.483C135.603 77.7342 135.443 86.9204 135.443 86.9204L146.865 86.7787C146.865 86.7787 146.465 84.4033 145.412 81.727C144.359 79.0507 147.458 64.8512 147.458 64.8512Z" fill="#C88D94"/>
<path d="M152.826 78.9445C152.254 74.9973 149.737 66.1304 149.138 65.5066C149.138 65.5063 149.138 65.506 149.138 65.5057C148.328 64.5848 144.733 64.2864 144.733 64.2864C144.168 65.1702 139.024 67.5248 139.024 67.5248C138.146 66.4281 138.251 64.0855 138.251 64.0855C138.006 64.1015 137.784 64.1249 137.581 64.1534C137.582 64.1502 137.583 64.1484 137.583 64.1484C137.583 64.1484 135.287 63.9499 129.126 68.9919C129.126 68.9919 127.646 64.0618 126.616 61.8879C126.616 61.8879 126.129 61.8977 125.574 62.1121C125.196 62.2582 124.758 62.3707 124.758 62.3707C124.758 62.3707 124.89 70.7427 127.85 73.0266C127.85 73.0266 132.84 71.8771 134.84 70.9718C134.776 71.6673 134.741 72.2963 134.755 72.7719C134.836 75.4663 135.56 80.2965 135.16 82.6245C134.921 84.0128 134.781 85.7934 134.864 86.6103C134.891 86.8712 134.95 87.0531 135.628 87.1114C136.6 87.1956 139.003 87.4941 141.239 87.4941C142.547 87.4941 143.851 87.3568 144.872 87.217H144.873C145.943 87.0702 146.701 86.9201 146.833 86.9201C146.928 86.9201 146.982 86.8197 147.003 86.643C147.117 85.6587 146.196 82.2941 145.582 80.5093C145.032 78.9141 146.471 74.731 147.202 72.796C147.206 72.7846 147.21 72.7737 147.214 72.7624C148.177 76.9454 149.61 80.1465 149.823 80.7179C150.164 81.6331 155.374 87.3133 155.374 87.3133L156.513 86.6087C155.597 84.4348 152.826 78.9445 152.826 78.9445Z" fill="#FEBE56"/>
<path opacity="0.2" d="M145.582 80.5094C146.196 82.2942 147.117 85.6588 147.003 86.643C145.475 86.4877 143.806 82.0746 143.275 81.0611C142.691 79.9456 144.203 71.9654 145.888 71.3219C146.547 71.0704 146.951 71.8015 147.202 72.7961C146.471 74.731 145.032 78.9143 145.582 80.5094Z" fill="#D3892A"/>
<path d="M142.758 88.0537C142.758 88.0537 143.845 104.001 143.731 109.035C143.731 109.035 143.351 109.787 144.989 111.781C146.627 113.774 152.14 123.364 152.14 123.364C152.14 123.364 146.412 112.939 144.696 111.094C144.696 111.094 143.816 110.065 143.881 109.464C143.945 108.863 143.673 91.9 142.758 88.0537Z" fill="#0E538B"/>
<path d="M139.053 61.7004C139.053 61.7004 143.736 61.9144 143.824 58.996C143.913 56.0777 144.577 54.1398 141.591 53.8798C138.604 53.6197 137.989 54.7158 137.723 55.6827C137.457 56.6495 137.837 61.5695 139.053 61.7004Z" fill="#DEADB2"/>
<path d="M144.412 53.6303C143.965 52.393 141.683 51.3292 141.683 51.3292C141.683 51.3292 139.308 50.8851 137.406 53.6596C136.587 54.8549 137.021 56.8631 137.704 57.9562C137.704 57.9562 138.141 55.2962 139.509 54.5035C139.768 54.3532 140.007 54.1459 140.224 53.9085C140.431 54.3295 140.883 54.9821 141.862 55.7699C143.607 57.1735 143.699 60.14 143.699 60.14C143.699 60.14 145.544 56.7683 144.412 53.6303Z" fill="#0E538B"/>
<path d="M67.2237 127.877C64.2199 127.747 64.1048 130.803 64.1048 130.803H66.6551H67.7922H70.2462C70.2462 130.802 70.2275 127.747 67.2237 127.877Z" fill="#0C4772"/>
<path d="M91.5667 127.877C88.5629 127.747 88.4478 130.803 88.4478 130.803H90.9981H92.1352H94.5892C94.5892 130.802 94.5704 127.747 91.5667 127.877Z" fill="#1E0F00"/>
<path d="M70.6418 81.0658L65.4282 82.2869L63.7093 129.066C63.7093 129.066 66.6339 129.066 68.6655 129.066H70.4591C71.364 129.066 77.1171 91.3282 77.1171 87.3246C77.1171 83.32 77.1171 79.55 77.1171 79.55L70.6418 81.0658Z" fill="#0E538B"/>
<path d="M60.5799 51.1928C60.5799 51.1928 55.4287 45.5548 63.5628 44.132C63.5628 44.132 65.8869 44.0134 66.622 43.6339C66.622 43.6339 68.2488 47.5683 67.2931 49.68C66.3374 51.7917 60.5799 51.1928 60.5799 51.1928Z" fill="#0C4772"/>
<path d="M71.5409 56.8134C71.5409 56.8134 76.6949 48.2303 79.9747 45.9582L84.4259 33.2382H87.4715C87.4715 33.2382 85.2459 47.9463 85.0116 48.5689C84.7774 49.1915 73.2979 63.3651 73.2979 63.3651L71.5409 56.8134Z" fill="url(#paint0_linear)"/>
<path d="M67.7923 55.9815C67.7523 55.9866 67.8387 55.1128 67.8188 55.0777C66.9691 53.5695 67.1445 52.3036 67.1445 52.3036L61.4128 52.3024C61.4547 53.7669 61.4565 54.8724 61.9402 56.3602C61.9516 56.3952 61.889 56.9362 61.9206 56.9553C65.1649 58.9157 67.9593 55.9602 67.7923 55.9815Z" fill="#C88D94"/>
<path d="M83.1387 78.4031L69.4582 81.5223L65.5539 82.4127C65.2675 82.4781 64.9778 82.3167 64.8843 82.0389C63.8843 79.0769 61.45 73.7155 59.2493 69.0627C57.0113 64.3309 55.0155 60.3314 55.0155 60.3314C57.2926 58.4945 59.6606 57.2267 61.9402 56.3601C62.5444 56.999 63.7475 57.751 65.723 56.9047C66.803 56.4424 67.3945 55.6431 67.6953 54.8461C72.0804 54.2122 75.2368 54.8442 75.2368 54.8442L83.1387 78.4031Z" fill="#FEBE56"/>
<path d="M67.0675 52.8747C66.5946 53.39 65.0733 54.0735 64.6215 54.1981C64.6215 54.1981 62.1771 54.057 61.7062 53.8684C60.9765 53.5743 60.8863 52.7526 60.6675 51.6255C60.4078 50.2916 60.1008 49.2607 60.1245 48.4634C60.1515 47.5098 60.6519 46.8882 62.2696 46.4775C65.2398 45.7243 66.618 46.2739 66.8354 47.2754C66.8932 47.5444 66.948 47.801 66.9967 48.0446C67.6315 51.1748 67.5648 52.3324 67.0675 52.8747Z" fill="#DEADB2"/>
<path d="M55.6931 50.2555V43.6633C55.6931 43.1025 55.2342 42.6437 54.6735 42.6437H35.8118C35.2511 42.6437 34.7923 43.1025 34.7923 43.6633V50.2555C34.7923 50.8163 35.2511 51.2751 35.8118 51.2751H49.0099L57.0443 55.3627L53.0106 51.2751H54.6735C55.2343 51.2752 55.6931 50.8164 55.6931 50.2555Z" fill="#CCE9FF"/>
<path opacity="0.2" d="M42.5632 46.6913C42.5632 47.1815 42.4426 47.6448 42.2282 48.0503C41.7393 48.9821 40.7626 49.6173 39.6371 49.6173C39.1456 49.6173 38.681 49.4954 38.2742 49.2798C38.2216 49.2529 38.1715 49.2246 38.1215 49.1938C37.8045 49.0013 37.526 48.7498 37.3027 48.4546C37.2911 48.4392 37.2796 48.4238 37.2681 48.4071C37.2617 48.3982 37.2553 48.3892 37.2489 48.3802C36.9114 47.904 36.7124 47.3214 36.7124 46.6913C36.7124 45.0755 38.0214 43.7665 39.6372 43.7665C41.2528 43.7664 42.5632 45.0755 42.5632 46.6913Z" fill="#2994F3"/>
<path d="M38.6937 46.4965C38.6937 46.4965 37.5514 44.7464 39.811 44.7213C39.811 44.7213 40.4438 44.7919 40.6591 44.7218C40.6591 44.7218 40.9247 45.8562 40.5734 46.3842C40.2221 46.9124 38.6937 46.4965 38.6937 46.4965Z" fill="#0C4772"/>
<path d="M40.4301 48.1081C40.4378 48.1002 40.4809 47.8755 40.4772 47.8651C40.3143 47.4203 40.4175 47.0862 40.4175 47.0862L38.8696 46.8328C38.8797 47.2687 38.9161 47.5461 38.833 47.9519C38.8309 47.9618 38.8115 48.1116 38.8014 48.1117C38.72 48.113 39.7206 48.8398 40.4301 48.1081Z" fill="#C88D94"/>
<path d="M42.2281 48.0504C41.7392 48.9821 40.7625 49.6173 39.637 49.6173C39.1455 49.6173 38.6809 49.4954 38.2741 49.2798C38.2215 49.2529 38.1715 49.2246 38.1214 49.1938C37.8044 49.0013 37.5259 48.7498 37.3026 48.4546C37.5298 48.3494 37.7544 48.2595 37.9777 48.1826C38.1663 48.1184 38.3511 48.0645 38.5346 48.0183C38.5398 48.017 38.5436 48.017 38.5475 48.0157C38.5603 48.0131 38.5667 48.0119 38.5667 48.0119C38.6566 47.9887 38.7451 47.9695 38.8337 47.9515V47.9528C38.9697 48.153 39.2611 48.4071 39.8309 48.266C40.1428 48.1889 40.334 48.008 40.4508 47.8065H40.4584C41.2605 47.8219 41.8932 47.9592 42.2281 48.0504Z" fill="#FEBE56"/>
<path d="M40.3716 47.237C40.2211 47.3553 39.7801 47.4727 39.6525 47.4864C39.6525 47.4864 38.9987 47.3404 38.8798 47.2686C38.6956 47.157 38.7076 46.9312 38.6982 46.6171C38.687 46.2453 38.6496 45.9535 38.6912 45.7391C38.7406 45.4828 38.9032 45.337 39.3582 45.2975C40.1936 45.2252 40.5416 45.4345 40.556 45.7145C40.5598 45.7898 40.5633 45.8614 40.5657 45.9294C40.5989 46.8028 40.5298 47.1125 40.3716 47.237Z" fill="#DEADB2"/>
<path d="M37.268 48.407C37.2796 48.4237 37.2911 48.4391 37.3027 48.4545C37.526 48.7497 37.8044 49.0012 38.1214 49.1937C38.1715 49.2245 38.2215 49.2527 38.2741 49.2797L38.5667 48.0117C38.5667 48.0117 38.5604 48.013 38.5475 48.0156C38.5436 48.0168 38.5398 48.0168 38.5347 48.0181C38.3935 48.0463 37.7916 48.1721 37.2487 48.38L37.268 48.407Z" fill="#FEBE56"/>
<path opacity="0.2" d="M44.307 45.4906H53.8565C54.0529 45.4906 54.2137 45.3298 54.2137 45.1334C54.2137 44.9368 54.0529 44.7761 53.8565 44.7761H44.307C44.1104 44.7761 43.9497 44.9368 43.9497 45.1334C43.9497 45.3298 44.1104 45.4906 44.307 45.4906Z" fill="#2994F3"/>
<path opacity="0.2" d="M53.8565 46.4165H44.307C44.1105 46.4165 43.9497 46.5773 43.9497 46.7737C43.9497 46.9702 44.1105 47.1309 44.307 47.1309H53.8565C54.0529 47.1309 54.2137 46.9702 54.2137 46.7737C54.2137 46.5773 54.0529 46.4165 53.8565 46.4165Z" fill="#2994F3"/>
<path opacity="0.2" d="M53.8565 47.8933H44.307C44.1105 47.8933 43.9497 48.054 43.9497 48.2506C43.9497 48.4471 44.1105 48.6078 44.307 48.6078H53.8565C54.0529 48.6078 54.2137 48.4471 54.2137 48.2506C54.2137 48.054 54.0529 47.8933 53.8565 47.8933Z" fill="#2994F3"/>
<path d="M117.539 130.728L84.1563 130.776C77.9261 130.785 72.8218 125.695 72.8131 119.466L72.703 43.2174C72.6963 38.2361 75.9484 33.9746 80.4361 32.4626C81.5618 32.0825 82.765 31.876 84.0138 31.8743L84.1852 31.874L91.5392 31.8638L109.757 31.8372C109.761 31.8369 109.764 31.8375 109.767 31.8372L117.396 31.8264C123.626 31.8171 128.731 36.9071 128.739 43.1363L128.85 119.385C128.858 125.615 123.769 130.719 117.539 130.728Z" fill="#2A94F5"/>
<path d="M116.242 128.747L85.4464 128.792C80.1554 128.799 75.8196 124.476 75.8116 119.184L75.7533 79.0349L75.746 73.4622L75.7392 68.9957L75.7157 52.8208L75.7045 44.8308L75.7027 43.49C75.6948 38.198 80.0186 33.8623 85.3097 33.8543L91.5633 33.8457L101.117 33.8319L116.106 33.8103C118.661 33.8062 120.992 34.8122 122.722 36.4497C123.444 37.1324 124.061 37.926 124.545 38.8024C125.073 39.7549 125.443 40.8052 125.621 41.9171C125.699 42.4058 125.74 42.9072 125.74 43.4173L125.849 119.112C125.857 124.404 121.534 128.739 116.242 128.747Z" fill="#F1F1F1"/>
<path d="M109.763 35.796L91.5452 35.8223C90.4565 35.8238 89.5644 34.9343 89.5629 33.8456C89.5613 32.7569 90.4508 31.8649 91.5395 31.8633L109.757 31.837C110.846 31.8355 111.738 32.7249 111.739 33.8137C111.741 34.9024 110.851 35.7945 109.763 35.796Z" fill="#2A94F5"/>
<path d="M85.7011 118.516C84.5395 118.294 84.3083 119.275 84.3083 119.275C84.3083 119.275 84.077 118.294 82.9154 118.516C81.7537 118.738 81.786 120.034 82.0764 120.589C82.3668 121.144 84.3083 122.755 84.3083 122.755C84.3083 122.755 86.2497 121.144 86.5401 120.589C86.8305 120.034 86.8627 118.738 85.7011 118.516Z" fill="#0E538B"/>
<path opacity="0.4" d="M103.975 118.483H99.2828C98.9444 118.483 98.6701 118.758 98.6701 119.096V122.142C98.6701 122.48 98.9444 122.754 99.2828 122.754H100.197C100.371 122.754 100.493 122.926 100.435 123.09L100.256 123.6L102.278 122.893C102.541 122.801 102.817 122.754 103.096 122.754H103.975C104.313 122.754 104.587 122.48 104.587 122.142V119.096C104.588 118.758 104.313 118.483 103.975 118.483Z" fill="#2A94F5"/>
<path opacity="0.4" d="M121.967 120.003L119.478 118.125V119.444C116.287 119.572 116.563 123.6 116.563 123.6C117.287 121.096 119.478 121.018 119.478 121.018V122.458L121.967 120.003Z" fill="#2A94F5"/>
<path opacity="0.2" d="M124.38 49.5298H77.9134V113.56H124.38V49.5298Z" fill="#2994F3"/>
<g opacity="0.4">
<path opacity="0.4" d="M113.328 44.1976H88.9656C88.4941 44.1976 88.1083 44.5835 88.1083 45.0549V45.2693C88.1083 45.7408 88.4941 46.1266 88.9656 46.1266H113.328C113.799 46.1266 114.185 45.7408 114.185 45.2693V45.0549C114.185 44.5835 113.799 44.1976 113.328 44.1976Z" fill="#2A94F5"/>
<path opacity="0.4" d="M116.524 44.1976C115.991 44.1976 115.559 44.6294 115.559 45.1621C115.559 45.6948 115.991 46.1266 116.524 46.1266C117.056 46.1266 117.488 45.6948 117.488 45.1621C117.488 44.6294 117.056 44.1976 116.524 44.1976Z" fill="#2A94F5"/>
<path opacity="0.4" d="M119.262 44.1976C118.73 44.1976 118.298 44.6294 118.298 45.1621C118.298 45.6948 118.73 46.1266 119.262 46.1266C119.795 46.1266 120.227 45.6948 120.227 45.1621C120.227 44.6294 119.795 44.1976 119.262 44.1976Z" fill="#2A94F5"/>
<path opacity="0.4" d="M122.072 44.1976C121.54 44.1976 121.108 44.6294 121.108 45.1621C121.108 45.6948 121.54 46.1266 122.072 46.1266C122.605 46.1266 123.037 45.6948 123.037 45.1621C123.037 44.6294 122.605 44.1976 122.072 44.1976Z" fill="#2A94F5"/>
</g>
<g opacity="0.2">
<path opacity="0.2" d="M66.2804 86.3226C69.4684 85.063 69.7632 82.1461 69.7632 82.1461C69.7588 82.1746 69.2888 85.0009 66.0999 86.1959L66.1642 86.3674C66.2032 86.3527 66.2423 86.3377 66.2804 86.3226Z" fill="#A2431D"/>
</g>
<path opacity="0.2" d="M69.458 81.5223L65.5538 82.4127C65.2674 82.4781 64.9777 82.3167 64.8842 82.0389C63.8842 79.0769 61.4499 73.7155 59.2492 69.0627L59.7752 66.3854C59.7752 66.3854 62.1118 68.5946 62.6216 69.9965C63.1314 71.3985 66.1469 80.1501 67.9313 80.6598C68.7553 80.8952 69.2082 81.2299 69.458 81.5223Z" fill="#D3892A"/>
<path d="M76.4512 68.407C72.4757 68.3878 71.6994 71.9284 71.6994 71.9284L68.5729 72.6226L68.5785 72.6401C66.2259 73.1688 62.9837 73.8808 60.455 74.3722C60.455 74.3722 60.1796 67.9795 60.1254 65.2899C60.0711 62.6003 60.1233 57.2205 60.1233 57.2205C60.1233 57.2205 55.4554 58.9966 53.7543 61.0995C53.7543 61.0995 53.5159 74.0204 56.8013 80.0247C56.8013 80.0247 64.456 79.4452 72.6322 73.993C73.4117 73.9014 75.3726 73.2087 76.1732 71.6967C76.9738 70.1847 76.8975 70.6591 77.4881 69.5968C78.0788 68.5346 76.4512 68.407 76.4512 68.407Z" fill="#DEADB2"/>
<path d="M61.017 56.7318C61.017 56.7318 55.1254 58.8727 53.7543 61.0997C53.7543 61.0997 53.5787 66.7391 54.0371 68.2089C54.0371 68.2089 58.4805 68.0098 60.2325 68.7695L61.017 56.7318Z" fill="#FEBE56"/>
<path opacity="0.3" d="M114.67 62.9566V68.0418H107.286V57.7274H100.979V61.8139H95.2784V52.7976H88.9715V71.0554H84.2203V59.8377H77.9134V113.56H83.585H84.2203H88.9715H89.8919H95.2305H95.2784H100.979H101.537H107.093H107.286H114.67H116.803H124.38V62.9566H114.67Z" fill="#2A94F5"/>
<path d="M117.888 74.6798C113.405 72.3578 110.331 71.3955 110.511 68.4492C110.692 65.5021 109.338 52.8175 100.724 56.1375C100.724 56.1375 99.3413 55.523 98.7218 55.6152C98.7218 55.6152 99.2276 55.7116 99.4848 55.9774C98.486 55.9182 97.0579 55.9917 95.8669 56.669C95.2132 57.0405 94.5746 58.0243 94.0144 59.391C93.9787 59.4788 93.9422 59.5689 93.9072 59.661C93.6729 60.2619 93.455 60.9291 93.2571 61.6457C92.9099 62.8981 92.6249 64.2998 92.4277 65.7565C92.4277 65.7565 92.4277 65.7565 92.4277 65.7572C92.3627 66.233 92.3077 66.7146 92.2634 67.1989C92.2634 67.1989 92.2634 67.1997 92.2634 67.2003C92.2612 67.2225 92.2591 67.2432 92.2569 67.2654C91.9348 70.8339 92.1748 74.5346 93.3486 77.0538C93.7165 77.8418 94.1752 78.5141 94.7368 79.0314C94.5124 78.5684 94.2745 77.9225 94.0637 77.0195C93.8601 76.1508 93.6822 75.0427 93.5637 73.631C93.5873 73.8146 93.8001 75.3727 94.3174 77.0087C94.6068 77.9239 94.9918 78.8634 95.4927 79.6006C97.9639 81.2224 101.412 84.4816 104.517 87.8552C105.213 88.6104 105.89 89.3704 106.536 90.1192C107.644 91.4044 108.658 92.6568 109.503 93.7892L109.504 93.7899C109.517 93.807 109.529 93.8235 109.542 93.8399C111.089 95.9175 112.061 97.5871 111.995 98.3123C111.995 98.3123 113.208 97.1735 114.969 95.556L115.375 93.1084C115.448 93.257 115.498 93.4506 115.533 93.6642C115.533 93.6657 115.534 93.6663 115.534 93.6671C115.585 93.9828 115.602 94.3435 115.603 94.6686V94.6715C115.603 94.778 115.601 94.8801 115.599 94.9759C115.606 94.9694 115.614 94.9623 115.621 94.9552C118.249 92.5476 121.782 89.3569 124.38 87.1951V79.6557C122.995 78.0311 120.937 76.26 117.888 74.6798Z" fill="#0E538B"/>
<path d="M95.8315 79.7873C96.6281 79.4161 96.1373 72.6372 96.1373 72.6372L102.886 71.3004C103.355 73.5207 103.11 77.4 103.947 77.5663C103.974 77.5717 102.681 80.1383 100.703 80.6779C98.5991 81.252 95.8022 79.8009 95.8315 79.7873Z" fill="#C88D94"/>
<path d="M102.574 58.495C102.574 58.495 99.0884 55.1602 95.5098 58.7418C95.5098 58.7418 97.7492 58.4479 102.574 58.495Z" fill="#575BA3"/>
<path d="M103.164 70.6818C103.164 70.6818 105.032 67.7306 105.48 65.207C105.8 63.4054 104.883 56.7272 98.1718 57.6891C98.1718 57.6891 96.2227 57.8811 94.3906 59.1185C92.9336 60.1026 90.8308 62.2271 93.1819 68.0546L93.7927 70.0232L103.164 70.6818Z" fill="#0E538B"/>
<path d="M117.634 113.56H113.415C113.415 113.557 113.414 113.555 113.413 113.553C113.413 113.552 113.413 113.551 113.412 113.55C113.412 113.549 113.411 113.547 113.411 113.547C112.266 109.502 111.153 105.472 111.079 104.84C110.984 104.04 110.163 98.3466 109.528 93.9636C109.529 93.9629 109.528 93.9621 109.528 93.9615C109.52 93.9043 109.512 93.8472 109.504 93.79L109.503 93.7893C109.37 92.8698 109.246 92.0125 109.139 91.2759C108.921 89.7764 108.776 88.779 108.776 88.779L110.327 88.6125L115.035 88.1067C115.035 88.1067 115.057 88.2267 115.099 88.5839C115.177 89.2391 115.324 90.6923 115.533 93.6642C115.533 93.6657 115.534 93.6664 115.534 93.6671C115.556 93.9836 115.579 94.3172 115.602 94.6687V94.6716C115.609 94.7644 115.615 94.8594 115.621 94.9551C115.774 97.2534 115.954 100.293 116.159 104.296C116.159 104.296 116.92 108.736 117.634 113.56Z" fill="#DCABB0"/>
<path d="M90.5352 77.3782L90.5302 77.451L89.8644 86.7915C89.8644 86.7915 88.2884 88.5118 86.6109 90.2665C86.5816 90.2965 86.553 90.3265 86.5244 90.3565L86.5237 90.3572C85.3571 91.5753 84.1539 92.7955 83.4074 93.4535C82.3793 94.3601 79.0165 96.6556 77.9134 97.4029V88.1047C79.3237 86.5208 81.4584 84.2031 83.6431 82.1263C86.2308 79.6665 88.8877 77.5447 90.4945 77.3826C90.5074 77.3804 90.5202 77.3797 90.5324 77.3782H90.5352Z" fill="#DCABB0"/>
<path d="M113.412 113.55C113.412 113.549 113.411 113.548 113.411 113.547C113.388 113.49 113.364 113.435 113.341 113.38C113.321 113.33 113.301 113.282 113.28 113.233C113.27 113.208 113.259 113.184 113.249 113.16C113.193 113.026 113.137 112.894 113.081 112.765C113.057 112.708 113.033 112.651 113.008 112.595C112.95 112.459 112.892 112.325 112.834 112.195C112.808 112.132 112.78 112.071 112.753 112.01C112.702 111.893 112.65 111.778 112.6 111.664C112.598 111.66 112.596 111.655 112.594 111.651C112.55 111.554 112.508 111.457 112.465 111.362C112.315 111.03 112.169 110.713 112.028 110.411C112.008 110.368 111.988 110.325 111.968 110.283C111.769 109.857 111.579 109.46 111.401 109.089C111.377 109.04 111.353 108.99 111.33 108.942C111.283 108.845 111.237 108.75 111.191 108.656C111.147 108.562 111.101 108.47 111.058 108.38C110.927 108.109 110.804 107.854 110.688 107.613C110.659 107.554 110.632 107.496 110.605 107.438C110.546 107.313 110.489 107.193 110.435 107.076C110.417 107.036 110.399 106.998 110.381 106.959C110.273 106.721 110.174 106.498 110.087 106.286C110.068 106.242 110.051 106.198 110.033 106.154C110.013 106.105 109.994 106.055 109.976 106.007C109.954 105.953 109.934 105.899 109.916 105.846C109.883 105.758 109.853 105.67 109.826 105.586C109.811 105.541 109.798 105.497 109.785 105.453C109.774 105.417 109.763 105.38 109.753 105.345C109.743 105.307 109.733 105.271 109.725 105.235C109.715 105.2 109.707 105.164 109.699 105.128C109.697 105.119 109.695 105.11 109.693 105.1C109.688 105.077 109.683 105.055 109.678 105.032C109.678 105.029 109.677 105.025 109.676 105.022C109.666 104.972 109.658 104.921 109.65 104.872C109.166 101.727 109.156 98.4739 109.397 95.4048C109.435 94.9197 109.479 94.4388 109.528 93.9638C109.529 93.963 109.528 93.9623 109.528 93.9617C109.533 93.9217 109.537 93.881 109.542 93.8402C109.648 92.8364 109.779 91.8592 109.926 90.9204L115.445 88.4282C114.295 82.8993 112.439 80.4883 112.422 80.4656C112.422 80.4655 112.422 80.4654 112.422 80.4654H112.422C112.422 80.4653 112.421 80.465 112.421 80.465C112.421 80.4646 112.42 80.4643 112.419 80.4638C110.279 78.842 106.584 77.5017 103.598 77.1681C103.554 77.1631 101.688 79.0679 99.8893 79.0207C98.0418 78.9736 96.3524 77.0552 96.2853 76.9502C95.6344 76.968 94.8304 76.9874 94.3174 77.0089C94.231 77.0124 94.1467 77.016 94.0638 77.0196C93.8087 77.0303 93.5702 77.0418 93.3486 77.0539C91.1232 77.1697 90.5359 77.2982 90.5359 77.2982L90.5352 77.299V77.2997C90.5352 77.2998 90.5352 77.2999 90.5351 77.3001L90.5352 77.299C90.5352 77.299 88.3002 77.6466 83.4076 81.577C83.4076 81.577 86.487 88.6477 86.5237 90.3573L86.6074 90.2954C86.6074 90.2955 86.6073 90.2958 86.6073 90.2959C86.4887 91.1947 86.4044 92.0955 86.3623 92.9893C86.2944 94.4175 89.3228 107.398 89.3243 107.714C89.335 110.103 89.3335 112.021 89.325 113.56H113.416C113.415 113.558 113.415 113.556 113.413 113.553C113.413 113.552 113.413 113.551 113.412 113.55Z" fill="#FFBE55"/>
<path d="M94.947 74.4244C94.947 74.4244 103.38 74.5635 103.386 69.3107C103.391 64.0579 104.484 60.5381 99.0998 60.2272C93.7159 59.9163 92.6676 61.9196 92.2392 63.6723C91.8108 65.4253 92.7535 74.2529 94.947 74.4244Z" fill="#DAA9AE"/>
<path d="M95.2591 60.0986C95.2591 60.0986 97.5679 66.2611 101.111 67.1724C104.655 68.0835 106.192 67.1341 106.192 67.1341C106.192 67.1341 103.848 65.2721 103.061 61.9878C102.935 61.4589 102.607 61 102.138 60.7245C100.479 59.7496 96.6119 57.8203 95.2591 60.0986Z" fill="#0E538B"/>
<path d="M95.8313 60.5989C95.8313 60.5989 94.107 61.9747 93.6866 63.3124C93.2662 64.65 93.0772 67.4036 92.2746 67.31C92.2746 67.31 90.5351 63.1213 92.49 60.7518C94.5629 58.2391 95.8313 60.5989 95.8313 60.5989Z" fill="#0E538B"/>
<path opacity="0.2" d="M113.416 113.56H111.98C109.003 111.254 107.661 105.589 106.905 104.519C105.907 103.104 103.258 96.0361 103.947 90.0778C104.087 88.8719 104.287 88.1831 104.517 87.8552C105.16 86.9414 106.042 88.8232 106.536 90.1192C106.741 90.6571 106.879 91.0951 106.905 91.1893C106.905 91.1893 107.97 92.904 109.397 95.4045C109.156 98.4737 109.166 101.727 109.65 104.871C109.658 104.921 109.666 104.971 109.676 105.022C109.677 105.025 109.678 105.028 109.678 105.031C109.683 105.054 109.688 105.077 109.693 105.1C109.695 105.109 109.697 105.119 109.699 105.128C109.707 105.164 109.716 105.199 109.725 105.235C109.733 105.271 109.743 105.307 109.753 105.344C109.763 105.38 109.773 105.416 109.785 105.453C109.798 105.496 109.811 105.541 109.826 105.586C109.853 105.67 109.883 105.757 109.916 105.846C109.934 105.899 109.954 105.952 109.976 106.007C109.994 106.055 110.013 106.104 110.034 106.154C110.051 106.197 110.069 106.242 110.087 106.286C110.174 106.497 110.273 106.721 110.381 106.959C110.399 106.997 110.417 107.036 110.435 107.075C110.489 107.192 110.546 107.313 110.605 107.438C110.632 107.495 110.66 107.553 110.688 107.613C110.804 107.854 110.927 108.109 111.058 108.38C111.102 108.47 111.146 108.562 111.192 108.656C111.237 108.749 111.283 108.844 111.33 108.942C111.353 108.99 111.377 109.039 111.401 109.089C111.58 109.459 111.769 109.857 111.968 110.282C111.988 110.325 112.008 110.367 112.028 110.411C112.169 110.713 112.315 111.03 112.465 111.362C112.508 111.457 112.55 111.553 112.594 111.651C112.596 111.655 112.598 111.66 112.601 111.664C112.651 111.778 112.702 111.893 112.753 112.01C112.781 112.071 112.808 112.132 112.834 112.194C112.892 112.325 112.95 112.459 113.008 112.595C113.033 112.651 113.057 112.708 113.081 112.764C113.137 112.894 113.193 113.026 113.249 113.16C113.259 113.184 113.27 113.208 113.28 113.233C113.301 113.281 113.321 113.33 113.341 113.379C113.364 113.435 113.388 113.49 113.411 113.547C113.411 113.547 113.412 113.549 113.412 113.549C113.413 113.551 113.414 113.552 113.414 113.553C113.415 113.555 113.415 113.557 113.416 113.56Z" fill="#D1872B"/>
<path d="M13.5262 44.5939L13.7288 43.5782C13.7288 43.5782 12.0862 42.8866 12.4504 40.9661C12.4504 40.9661 12.6575 40.1905 13.1184 40.571C13.5793 40.9514 13.3567 40.8722 14.0163 41.3943C14.6759 41.9164 14.8358 42.9265 14.8104 43.3115L15.0232 44.9109L13.5262 44.5939Z" fill="#DEADB2"/>
<path d="M19.8116 123.651L21.1125 129.13L23.0612 129.119L23.1326 123.651H19.8116Z" fill="#DEADB2"/>
<path d="M22.1005 128.647C19.896 128.551 19.8116 130.794 19.8116 130.794H21.6833H22.5177H24.3186C24.3186 130.794 24.3049 128.551 22.1005 128.647Z" fill="#0C4772"/>
<path d="M37.5948 123.884L40.7749 129.13L42.7235 129.119L41.1546 123.163L37.5948 123.884Z" fill="#DEADB2"/>
<path d="M41.7626 128.647C39.5582 128.551 39.4737 130.794 39.4737 130.794H41.3454H42.1799H43.9808C43.9808 130.794 43.967 128.551 41.7626 128.647Z" fill="#0C4772"/>
<path d="M25.463 49.9092C24.7079 49.7404 23.9248 49.9364 23.3953 50.1332C23.4903 49.9474 23.7474 49.8116 23.7474 49.8116C23.3979 49.8642 22.753 50.4242 22.753 50.4242C17.5536 50.0552 18.918 57.1271 19.5026 58.6883C20.0863 60.2494 18.5854 61.2769 16.549 63.2708C12.6639 67.0754 13.2384 70.4022 13.2384 70.4022C13.2808 70.4124 13.3257 70.4251 13.3741 70.4404C13.4844 69.9822 13.7331 69.1091 14.097 68.8775C14.0928 68.9174 13.9341 70.0246 13.9341 70.6313C15.6132 71.2506 18.8636 72.7669 21.1376 73.8512C21.0323 73.5355 20.9068 73.0799 20.95 72.8059L21.5736 74.0599C22.7912 74.6428 23.6346 75.0569 23.6346 75.0569C23.1238 73.8071 26.98 65.2071 29.4533 62.2282C29.8674 60.8884 29.5356 58.8471 29.5085 58.6866C29.8538 60.28 29.8547 61.2329 29.7672 61.7963C31.65 58.5822 27.4645 50.3563 25.463 49.9092Z" fill="#0C4772"/>
<path d="M28.2665 63.337C27.7751 63.2681 26.9202 59.5271 26.9202 59.5271L23.2997 60.4415C23.4134 61.7177 23.9426 63.2504 23.518 63.4785C23.5042 63.486 24.6264 64.6579 25.7832 64.6227C27.0142 64.585 28.2844 63.3395 28.2665 63.337Z" fill="#C88D94"/>
<path d="M21.0513 52.7666C21.0513 52.7666 22.4397 50.5788 24.9634 51.9213C24.9634 51.9213 23.6482 51.9442 21.0513 52.7666Z" fill="#2A94F5"/>
<path d="M21.8675 59.477C21.8675 59.477 21.0356 58.4306 20.3766 57.1422C19.9062 56.2223 19.2984 52.4651 23.0806 51.8758C23.0806 51.8758 24.1647 51.6576 25.3583 52.023C26.3075 52.3136 27.7938 53.1133 27.4871 56.648L27.4826 57.8117L21.8675 59.477Z" fill="#0C4772"/>
<path d="M27.4305 59.8568C26.6764 60.9933 25.7583 62.4883 22.6715 60.8038C22.0676 60.4742 21.9479 59.7849 21.6974 58.8127C21.4006 57.6619 20.9616 57.0155 20.9402 56.3183C20.9135 55.4845 21.5153 54.9692 22.9058 54.5255C25.4586 53.7117 26.9071 54.0011 27.024 55.3327C27.2848 58.3048 28.1973 58.701 27.4305 59.8568Z" fill="#DEADB2"/>
<path d="M21.0813 55.2202C20.8935 55.4204 20.775 55.6797 20.7633 55.9539C20.7028 57.3688 18.8217 57.5198 18.8217 57.5198C18.8217 57.5198 20.5267 58.5104 21.968 57.6295C23.4092 56.7485 23.9712 54.0821 23.9712 54.0821C23.0962 53.2863 21.715 54.5443 21.0813 55.2202Z" fill="#0C4772"/>
<path d="M26.9398 53.7557C26.3419 53.2842 23.9331 54.2437 23.9331 54.2437C23.9331 54.2437 25.4694 53.8628 25.9383 54.2993C26.4072 54.7358 26.5865 55.3022 26.8298 55.553C27.073 55.8038 27.1176 56.137 27.1176 56.137C27.1176 56.137 27.4086 54.1254 26.9398 53.7557Z" fill="#0C4772"/>
<path d="M21.7257 62.9294C21.7257 62.9294 19.1867 60.4894 18.3388 59.4846C17.5223 58.5168 15.2843 55.7937 15.2843 55.7937C15.2843 55.7937 15.3409 52.3999 15.2843 50.4909C15.2433 49.1057 15.1571 44.2562 15.1571 44.2562H13.6299C13.6299 44.2562 12.5564 48.1312 12.2242 49.5575C11.4239 52.9938 11.4239 56.3044 11.4239 56.3044C11.4239 56.3044 13.0376 59.5332 14.9979 62.2403C17.3736 65.521 18.8027 66.4448 19.2901 66.8879L21.7257 62.9294Z" fill="#DEADB2"/>
<path d="M30.2826 63.9642C30.2826 63.9642 31.5875 64.3181 32.1086 64.6158C33.6924 65.5208 37.6607 73.484 38.5939 76.3688C38.5939 76.3688 40.0926 76.7237 31.0659 85.7693L30.3075 84.4335C30.3075 84.4335 33.0434 79.2083 35.013 76.5397C35.013 76.5397 32.3408 72.4659 31.7765 70.4295C31.2124 68.3932 30.2826 63.9642 30.2826 63.9642Z" fill="#DEADB2"/>
<path d="M30.2824 84.5927H30.0067C29.7865 84.0968 29.357 82.7114 30.2433 80.7365C31.5194 77.8925 32.3033 75.2639 32.6639 72.9111C32.7785 73.1012 32.848 73.203 32.848 73.203C33.0178 72.632 35.9976 70.1028 35.9976 70.1028C35.9976 70.1028 33.4828 65.1495 32.2287 64.3545C31.6136 63.9642 29.26 63.6103 29.26 63.6103C28.9537 63.5162 28.6228 63.4237 28.2664 63.3371C27.7997 63.7809 27.0989 64.1983 26.0985 64.2272C24.8157 64.2645 24.0715 63.4755 23.671 62.8162C23.576 62.8171 23.4912 62.8246 23.3995 62.8365C23.3995 62.8365 22.9151 62.3529 22.1353 62.4657C21.9088 62.4988 20.0261 61.2609 20.0261 61.2609C20.0261 61.2609 19.4576 62.3757 18.8442 63.4804C18.2638 64.5257 17.6436 65.5617 17.4264 65.6339C17.4264 65.6339 18.1857 66.2591 18.6109 67.2629C18.4547 69.1516 18.3445 71.8878 18.8213 73.3268C19.6095 75.7034 19.8887 77.0448 18.8552 80.1646C18.4666 81.3389 17.8922 82.7652 17.0887 84.5927C17.0887 84.5927 16.3556 86.1734 16.0307 90.3962C15.5818 96.2268 15.9119 107.094 20.0261 125.793C20.0261 125.793 21.3217 125.793 23.4258 125.793H25.2534C25.3689 125.793 25.3349 110.861 25.2895 98.9758C25.3079 99.0242 25.3259 99.0725 25.3443 99.1209C30.0812 111.633 37.0166 125.853 37.0166 125.853H42.4493C41.3183 119.684 30.2824 84.5927 30.2824 84.5927Z" fill="#2A94F5"/>
<path d="M24.9388 96.8712C24.5372 93.7505 24.2473 90.0697 24.1567 86.2548C24.1429 85.6717 24.1325 85.0721 24.126 84.4729C24.119 83.8118 24.1164 83.1428 24.1181 82.4846C24.1187 82.2586 24.198 82.0065 24.2748 81.763C24.3461 81.5363 24.4198 81.3022 24.4219 81.1073C24.4486 78.6069 24.5937 76.3314 24.7215 74.3241C24.7551 73.7974 24.7879 73.2823 24.8178 72.7765C25.0885 68.2096 25.2241 65.6194 25.2239 65.5938C25.2243 65.6194 25.2524 68.2163 24.9815 72.7897C24.9515 73.2956 24.9186 73.811 24.8851 74.3377C24.7572 76.3433 24.6124 78.6165 24.5857 81.1129C24.5834 81.3306 24.5061 81.576 24.4315 81.8133C24.3582 82.046 24.2825 82.2864 24.282 82.4889C24.2801 83.1465 24.2828 83.8148 24.2898 84.4751C24.2963 85.0738 24.3066 85.6727 24.3205 86.2551C24.411 90.0646 24.5846 93.7638 24.9855 96.8792L24.9388 96.8712Z" fill="#0E538B"/>
<path d="M30.3075 84.4335L30.109 84.7949C30.109 84.7949 28.5246 83.4062 26.6713 84.7863C26.6713 84.7863 25.9538 85.4073 26.5965 85.7007C27.2393 85.9939 27.0399 85.7983 27.9359 86.2296C28.8319 86.6609 29.8699 86.684 30.4378 86.2527L31.066 85.7695L30.3075 84.4335Z" fill="#DEADB2"/>
<path d="M17.7466 88.3004C20.6351 89.0557 22.3434 87.1575 22.3434 87.1575C22.3257 87.1751 20.541 88.9196 17.6849 88.1184L17.6419 88.272C17.6768 88.2818 17.712 88.2913 17.7466 88.3004Z" fill="#0E538B"/>
<path d="M30.6855 88.3004C27.7969 89.0557 26.0886 87.1575 26.0886 87.1575C26.1063 87.1751 27.891 88.9196 30.7471 88.1184L30.7901 88.272C30.7553 88.2818 30.7201 88.2913 30.6855 88.3004Z" fill="#0E538B"/>
<path opacity="0.5" d="M18.8553 80.1646C19.8887 77.0448 19.6096 75.7034 18.8213 73.3268C18.3445 71.8878 18.4548 69.1516 18.6109 67.2629C18.1858 66.2592 17.4265 65.6339 17.4265 65.6339C17.6436 65.5618 18.2639 64.5258 18.8442 63.4805C19.3694 63.8657 20.1347 64.6191 20.0262 65.6916C19.8624 67.3028 18.5897 71.0784 19.4806 72.4784C20.2314 73.6576 20.8016 77.8466 18.8553 80.1646Z" fill="#0E538B"/>
<path opacity="0.5" d="M37.0166 125.853C37.0166 125.853 30.0813 111.633 25.3443 99.1208C25.2094 97.3866 24.9828 94.8955 26.0706 94.0292C26.0706 94.0292 37.6258 115.424 37.0166 125.853Z" fill="#0E538B"/>
<path opacity="0.5" d="M23.426 125.793C21.3218 125.793 20.0263 125.793 20.0263 125.793C15.912 107.094 15.582 96.2267 16.0309 90.3961C17.0515 95.5921 22.8838 125.203 23.426 125.793Z" fill="#0E538B"/>
<path opacity="0.2" d="M33.8947 39.1569L9.40755 47.4955C9.13416 47.5885 8.8344 47.441 8.74127 47.1677L0.0278942 21.5797C-0.065167 21.3063 0.0823343 21.0066 0.355651 20.9134L24.8429 12.5749C25.1163 12.4818 25.4161 12.6293 25.5092 12.9027L34.2225 38.4906C34.3156 38.764 34.1681 39.0639 33.8947 39.1569Z" fill="#2994F3"/>
<path d="M32.5059 38.4015L10.0467 46.0494C9.79599 46.1348 9.52104 45.9995 9.43563 45.7488L1.44394 22.28C1.35853 22.0293 1.49385 21.7542 1.74452 21.6689L24.2037 14.0209C24.4544 13.9356 24.7295 14.0709 24.8148 14.3216L32.8065 37.7903C32.8919 38.0412 32.7566 38.3161 32.5059 38.4015Z" fill="#F0F3F9"/>
<path opacity="0.2" d="M27.8397 34.5047L24.7481 35.5522L22.7039 36.2337L22.3632 36.3473L20.7102 36.9025L14.4386 39.0097L11.0063 40.1705L9.73185 36.3091L6.33738 26.0502L5.10077 22.3151L21.9594 16.7377L23.5746 21.6084L25.5684 27.6654H25.581L26.4769 30.4036L27.8397 34.5047Z" fill="#2994F3"/>
<path opacity="0.3" d="M27.8398 34.5048L24.7481 35.5523L22.7039 36.2337L22.3632 36.3474L20.7102 36.9025L14.4386 39.0097L11.0063 40.1706L9.73175 36.3092L6.33728 26.0503L8.63388 25.2931L9.9715 29.3689L11.7002 28.8011L9.50456 22.1762L11.8012 21.4193L12.3185 23.0093L12.4951 23.5139V23.5265L12.6592 24.0188L12.6718 24.069C12.6718 24.069 12.6718 24.0816 12.6844 24.0942L12.7223 24.2079L12.7979 24.4349C12.7853 24.4349 12.7979 24.4476 12.7979 24.4476L12.8737 24.6872L13.1513 24.5991L14.9432 24.0057L14.7917 23.539L14.7412 23.3877L14.5014 22.681L14.4636 22.5421L14.451 22.5168L14.8044 22.4031C14.8169 22.4031 14.8169 22.4031 14.8169 22.4031L16.7477 21.7598L17.9843 25.5076L19.1578 25.1164L20.6595 24.6244L20.0538 22.7691L23.5744 21.6083L25.5808 27.6654L26.4768 30.4035L27.8398 34.5048Z" fill="#2A94F5"/>
<path d="M25.581 27.6653H25.5684C24.8618 27.2488 23.9027 26.8449 22.6283 26.6432C20.7229 26.3403 19.4862 26.353 19.196 25.2677C19.1834 25.2175 19.1707 25.1795 19.1581 25.1164C18.7543 23.8293 16.7858 19.8292 14.1738 21.9743C14.1738 21.9743 13.5933 21.9111 13.3913 22.0248C13.3913 22.0248 13.5807 21.9996 13.7068 22.0627C13.3408 22.1634 12.8235 22.3656 12.4702 22.7439C12.4071 22.8071 12.3567 22.8954 12.3187 23.0092C12.2177 23.2488 12.1547 23.577 12.1294 23.9556V24.0689C12.1169 24.3212 12.1169 24.5739 12.1294 24.8514C12.1294 24.8641 12.1294 24.8641 12.1294 24.8641C12.1547 25.3687 12.2178 25.9115 12.3187 26.4541C12.3187 26.4541 12.3187 26.4541 12.3187 26.4667C12.3566 26.6559 12.3944 26.8198 12.4323 26.9966C12.4323 27.0092 12.4323 27.0092 12.4323 27.0219C12.7477 28.3595 13.2777 29.6719 14.0096 30.4414C14.2368 30.6938 14.4765 30.8706 14.7541 30.9966C14.6153 30.8579 14.4513 30.6559 14.262 30.3533C14.1232 30.1134 13.9591 29.8105 13.7951 29.4319C13.9213 29.6466 14.1106 29.9873 14.3503 30.3151C14.5649 30.6054 14.8172 30.9085 15.0948 31.1102C16.18 31.4004 17.8205 32.1703 19.36 33.0284C19.7006 33.2175 20.0287 33.407 20.3568 33.6088C20.9121 33.9368 21.4294 34.265 21.8711 34.5805C21.8837 34.5805 21.8837 34.5931 21.8963 34.5931C22.7039 35.1609 23.2591 35.6529 23.3222 35.9182C23.3222 35.9182 23.6251 35.3627 24.0667 34.5678L23.9279 33.634C23.9657 33.6719 24.0037 33.735 24.0541 33.8106C24.092 33.9243 24.1424 34.0379 24.193 34.164C24.2055 34.2018 24.2182 34.2398 24.2308 34.265C24.8996 33.0789 25.7955 31.5016 26.477 30.4036L25.581 27.6653Z" fill="#0E538B"/>
<path d="M15.2362 31.14C15.4807 30.9097 14.4894 28.5094 14.4894 28.5094L16.7773 27.2148C17.0228 28.1925 17.5901 29.4009 17.9139 29.3607C17.9244 29.3594 17.7632 30.4457 17.1105 30.8786C16.4159 31.3394 15.2273 31.1484 15.2362 31.14Z" fill="#C88D94"/>
<path d="M15.086 22.572C15.086 22.572 13.4634 21.815 12.5948 23.5436C12.5948 23.5436 13.3301 23.1336 15.086 22.572Z" fill="#575BA3"/>
<path d="M16.804 26.9571C16.804 26.9571 17.1276 25.6624 16.9875 24.6932C16.8875 24.0012 15.7535 21.6885 13.4343 22.8425C13.4343 22.8425 12.7502 23.146 12.234 23.8146C11.8235 24.3464 11.3155 25.3694 12.8675 27.2014L13.3252 27.8423L16.804 26.9571Z" fill="#0E538B"/>
<path d="M24.7481 35.5522L22.7039 36.2336C22.439 35.7034 22.1613 35.1483 21.9089 34.6436C21.8964 34.6184 21.8837 34.6057 21.8711 34.5804C21.7197 34.2649 21.5683 33.9621 21.442 33.7098C21.1771 33.1926 21.0131 32.8518 21.0131 32.8518L21.5557 32.5992L23.1961 31.855C23.1961 31.855 23.2214 31.8926 23.2845 32.0188C23.3854 32.2462 23.6125 32.7635 24.0542 33.8106C24.0921 33.9243 24.1425 34.0379 24.1931 34.164C24.2057 34.2019 24.2183 34.2398 24.2309 34.265C24.3822 34.631 24.5589 35.0602 24.7481 35.5522Z" fill="#DCABB0"/>
<path d="M13.0257 30.9011L13.0326 30.9282L13.9115 34.3965C13.9115 34.3965 13.5461 35.2097 13.1481 36.0475C13.141 36.0619 13.1342 36.0762 13.1275 36.0906L13.1273 36.0909C12.8502 36.6727 12.5601 37.2597 12.3682 37.588C12.104 38.0403 11.1595 39.2763 10.8489 39.6798L9.73346 36.3065C10.0551 35.5627 10.5515 34.4659 11.095 33.4504C11.7387 32.2477 12.4481 31.1591 13.0115 30.9076C13.0159 30.9053 13.0205 30.9034 13.0247 30.9015L13.0257 30.9011Z" fill="#DCABB0"/>
<path d="M21.9089 34.6437C21.8963 34.6184 21.8963 34.6058 21.8963 34.5931C21.8085 34.2169 21.7457 33.8531 21.6829 33.4897L23.3878 31.9219C22.3464 30.1216 21.4152 29.451 21.3411 29.3994C21.3411 29.3963 21.3411 29.3942 21.3411 29.3942C20.3694 29.0663 18.8678 29.0281 17.7447 29.2682C17.7346 29.2682 17.724 29.2761 17.7072 29.2793C17.7022 29.2793 17.6992 29.2794 17.699 29.2794L17.6996 29.2802C17.6977 29.2803 17.6962 29.2807 17.6943 29.2807C17.5681 29.7225 17.2779 30.1767 16.6218 30.3784C15.9529 30.5805 15.1004 30.0881 15.0625 30.0629C14.8228 30.1386 14.5396 30.2397 14.3503 30.3152C14.3252 30.3281 14.2872 30.3404 14.2619 30.3534C14.1736 30.3784 14.0853 30.4163 14.0097 30.4415C13.2147 30.757 13.0127 30.8707 13.0127 30.8707V30.8731C12.963 30.8821 12.3083 31.0398 10.9436 33.2795C10.9436 33.2795 12.9089 35.4752 13.1273 36.0909L13.1516 36.0566V36.0568C13.2147 36.3974 13.2904 36.7382 13.3787 37.0663C13.4419 37.2807 13.896 38.0885 14.4386 39.0096L20.7102 36.9024L22.3633 36.3472C22.237 35.956 22.1235 35.5647 22.0352 35.1735C21.9846 34.997 21.9467 34.8202 21.9089 34.6437Z" fill="#FFBE55"/>
<path opacity="0.2" d="M22.3633 36.3473L20.7102 36.9025C20.155 36.0319 19.6376 34.9591 19.4105 33.899C19.3222 33.4446 19.3095 33.1673 19.36 33.0284C19.4735 32.6119 20.0288 33.1926 20.3569 33.6088C20.4957 33.7731 20.5967 33.9116 20.6219 33.9495C20.6219 33.9495 21.215 34.4416 22.0352 35.1735C22.1235 35.5648 22.237 35.956 22.3633 36.3473Z" fill="#D1872B"/>
<path d="M14.2719 29.3005C14.2719 29.3005 17.3478 28.3395 16.7198 26.4331C16.0918 24.5268 16.0658 23.1189 14.0754 23.6519C12.0849 24.185 11.9449 25.0375 11.9998 25.7248C12.0546 26.412 13.4556 29.5014 14.2719 29.3005Z" fill="#DAA9AE"/>
<path d="M12.6667 24.0659C12.6667 24.0659 14.2436 26.0246 15.6383 25.9301C17.0331 25.8356 17.4768 25.3068 17.4768 25.3068C17.4768 25.3068 16.2318 24.8496 15.5751 23.5499C15.5751 23.55 12.9467 22.7929 12.6667 24.0659Z" fill="#0E538B"/>
<path d="M12.9343 24.1788C12.9343 24.1788 12.4738 24.8848 12.4817 25.4205C12.4897 25.9562 12.7514 26.9778 12.4491 27.0401C12.4491 27.0401 11.3155 25.7292 11.7405 24.6352C12.1911 23.4749 12.9343 24.1788 12.9343 24.1788Z" fill="#0E538B"/>
<path d="M140.042 40.8499V34.2576C140.042 33.6969 140.501 33.238 141.062 33.238H159.923C160.484 33.238 160.943 33.6969 160.943 34.2576V40.8499C160.943 41.4106 160.484 41.8695 159.923 41.8695H146.725L140.583 46.9393L142.725 41.8695H141.062C140.501 41.8695 140.042 41.4106 140.042 40.8499Z" fill="#CCE9FF"/>
<path opacity="0.2" d="M147.341 37.2859C147.341 37.9161 147.143 38.4983 146.805 38.9749C146.798 38.9835 146.792 38.9928 146.786 39.0013C146.774 39.0185 146.763 39.0335 146.751 39.0492C146.648 39.185 146.533 39.3121 146.408 39.4278C146.378 39.4564 146.347 39.4843 146.315 39.5107C146.205 39.605 146.088 39.6915 145.964 39.7679C145.954 39.7751 145.943 39.7815 145.933 39.788C145.882 39.8194 145.832 39.8472 145.78 39.8744C145.707 39.9123 145.634 39.948 145.559 39.9801C145.52 39.9965 145.481 40.0115 145.442 40.0265C145.122 40.1466 144.777 40.2115 144.416 40.2115C143.898 40.2115 143.411 40.0765 142.989 39.84C142.953 39.8201 142.917 39.7986 142.882 39.7771C142.867 39.7686 142.853 39.7593 142.838 39.7493C142.778 39.7114 142.72 39.67 142.663 39.6271C142.417 39.4435 142.202 39.222 142.025 38.972C141.952 38.8677 141.884 38.7584 141.825 38.6448C141.611 38.239 141.491 37.7761 141.491 37.2859C141.491 35.6699 142.801 34.3611 144.417 34.3611C146.033 34.361 147.341 35.6699 147.341 37.2859Z" fill="#2994F3"/>
<path d="M146.328 38.6933C146.104 38.2004 145.333 38.1897 145.59 37.6331C145.847 37.0766 145.74 35.4063 144.466 35.2434C144.409 35.2363 144.354 35.2312 144.301 35.2298C143.22 35.1976 143.154 36.34 143.151 36.4043V36.4051C143.151 36.4065 143.151 36.4072 143.151 36.4072C143.151 36.4072 143.152 36.4129 143.154 36.4244L143.156 36.4351C143.186 36.6458 143.36 38.0118 142.875 38.5005C142.863 38.514 142.848 38.5269 142.834 38.539C142.691 38.6598 142.705 38.7812 142.765 38.9398V38.9406C142.813 39.0692 142.892 39.2227 142.943 39.4214C142.951 39.4564 142.96 39.4929 142.965 39.5307C142.983 39.6243 142.993 39.7265 142.989 39.8401C143.411 40.0766 143.898 40.2116 144.416 40.2116C144.777 40.2116 145.122 40.1466 145.442 40.0266C145.481 40.0116 145.52 39.9966 145.559 39.9802C145.634 39.948 145.707 39.9123 145.78 39.8745C145.832 39.8473 145.882 39.8194 145.933 39.788C145.943 39.7815 145.954 39.7752 145.964 39.768C146.088 39.6915 146.205 39.6051 146.315 39.5108C146.336 39.4486 146.355 39.3815 146.371 39.3114C146.413 39.1177 146.423 38.8998 146.328 38.6933Z" fill="#0E538B"/>
<path d="M145.454 38.5034C145.318 38.474 145.187 38.4491 145.062 38.4291C145.06 38.4284 145.057 38.4284 145.056 38.4284C145.054 38.4284 145.054 38.4284 145.054 38.4284C145.016 38.422 144.979 38.4163 144.942 38.4112C144.94 38.4105 144.834 38.3759 144.784 37.26L143.836 37.5486C143.836 37.5486 143.907 37.9654 143.767 38.3512C143.63 38.3583 143.524 38.369 143.453 38.3783C143.448 38.379 143.442 38.379 143.437 38.3798C143.388 38.3862 143.358 38.3905 143.35 38.3905C143.35 38.3905 143.283 38.5362 143.19 38.7634C143.189 38.7641 143.189 38.7648 143.189 38.7648C143.116 38.9442 143.027 39.1735 142.943 39.4214C142.906 39.5285 142.871 39.6385 142.838 39.7493C142.853 39.7593 142.867 39.7686 142.882 39.7771C142.917 39.7986 142.953 39.82 142.989 39.84C143.411 40.0765 143.898 40.2115 144.416 40.2115C144.777 40.2115 145.122 40.1465 145.442 40.0265C145.465 39.898 145.487 39.7743 145.51 39.655C145.51 39.6543 145.51 39.6535 145.51 39.6535C145.625 39.0313 145.727 38.5676 145.727 38.5676C145.634 38.5441 145.542 38.5226 145.454 38.5034Z" fill="#C88D94"/>
<path d="M146.371 39.3114C146.278 39.0191 146.198 38.8077 146.152 38.7427C146.148 38.7377 146.145 38.7334 146.142 38.7298V38.7291C146.045 38.6205 145.792 38.5462 145.553 38.5005C145.542 38.4983 145.532 38.4962 145.522 38.4941C145.51 38.4919 145.499 38.4898 145.49 38.4877C145.467 38.4834 145.455 38.4812 145.455 38.4812C145.263 38.4484 145.099 38.4327 145.062 38.4291C145.059 38.4284 145.057 38.4284 145.056 38.4284C145.054 38.4284 145.054 38.4284 145.054 38.4284C145.028 38.4684 144.964 38.5213 144.877 38.5798C144.562 38.792 143.944 39.0871 143.724 39.1906H143.723C143.674 39.2141 143.644 39.2277 143.644 39.2277C143.562 39.1256 143.515 38.9791 143.488 38.8362C143.488 38.8362 143.488 38.8362 143.488 38.8356C143.484 38.8149 143.481 38.7934 143.478 38.7727V38.7719C143.446 38.5626 143.454 38.3783 143.454 38.3783C143.448 38.379 143.442 38.379 143.437 38.3798C143.383 38.3833 143.333 38.3883 143.288 38.3954C143.288 38.3947 143.288 38.394 143.288 38.394C143.288 38.394 143.164 38.3833 142.875 38.5005C142.675 38.5805 142.397 38.7227 142.025 38.972C142.203 39.2221 142.418 39.4436 142.663 39.6272C142.72 39.67 142.778 39.7115 142.838 39.7493C142.853 39.7594 142.867 39.7686 142.882 39.7772C142.917 39.7986 142.953 39.82 142.989 39.8401C143.411 40.0766 143.898 40.2116 144.417 40.2116C144.777 40.2116 145.122 40.1466 145.442 40.0266C145.481 40.0116 145.52 39.9966 145.559 39.9802C145.634 39.948 145.707 39.9123 145.78 39.8745C145.832 39.8473 145.883 39.8194 145.933 39.788C145.943 39.7816 145.954 39.7752 145.964 39.768C146.088 39.6916 146.205 39.6051 146.315 39.5108C146.347 39.4843 146.378 39.4565 146.408 39.4279C146.395 39.3878 146.383 39.3485 146.371 39.3114Z" fill="#FEBE56"/>
<path d="M143.652 37.7897C143.652 37.7897 144.808 37.8425 144.83 37.122C144.851 36.4014 145.015 35.9229 144.278 35.8587C143.541 35.7945 143.389 36.0651 143.323 36.3039C143.257 36.5426 143.351 37.7574 143.652 37.7897Z" fill="#DEADB2"/>
<path d="M145.012 35.7433C144.867 35.452 144.301 35.229 144.301 35.229C144.301 35.229 143.714 35.1193 143.245 35.8044C143.043 36.0995 143.15 36.5953 143.319 36.8652C143.319 36.8652 143.426 36.2084 143.764 36.0127C143.828 35.9756 143.887 35.9243 143.941 35.8657C143.992 35.9696 144.103 36.1308 144.345 36.3254C144.776 36.6719 144.798 37.4043 144.798 37.4043C144.798 37.4043 145.371 36.4675 145.012 35.7433Z" fill="#0E538B"/>
<path opacity="0.2" d="M149.45 36.085H159C159.196 36.085 159.357 35.9242 159.357 35.7277C159.357 35.5313 159.196 35.3705 159 35.3705H149.45C149.254 35.3705 149.093 35.5313 149.093 35.7277C149.093 35.9242 149.254 36.085 149.45 36.085Z" fill="#2994F3"/>
<path opacity="0.2" d="M159 37.0107H149.45C149.254 37.0107 149.093 37.1715 149.093 37.368C149.093 37.5645 149.254 37.7252 149.45 37.7252H159C159.196 37.7252 159.357 37.5645 159.357 37.368C159.357 37.1715 159.196 37.0107 159 37.0107Z" fill="#2994F3"/>
<path opacity="0.2" d="M159 38.4877H149.45C149.254 38.4877 149.093 38.6484 149.093 38.8449C149.093 39.0414 149.254 39.2022 149.45 39.2022H159C159.196 39.2022 159.357 39.0414 159.357 38.8449C159.357 38.6484 159.196 38.4877 159 38.4877Z" fill="#2994F3"/>
<path d="M13.3336 40.6048C12.7033 40.6946 12.757 41.2345 12.757 41.2345C12.757 41.2345 12.4679 40.7754 11.9153 41.0914C11.3626 41.4074 11.6053 42.0615 11.8502 42.2934C12.0951 42.5254 13.3649 43.0061 13.3649 43.0061C13.3649 43.0061 14.0721 41.8472 14.123 41.5137C14.1737 41.1803 13.9638 40.515 13.3336 40.6048Z" fill="#0E538B"/>
<path opacity="0.2" d="M21.3453 39.6253L16.1305 41.4011C15.8382 41.5006 15.5175 41.3429 15.418 41.0505C15.3184 40.7581 15.4762 40.4375 15.7685 40.338L20.9833 38.5622C21.2757 38.4626 21.5963 38.6204 21.6958 38.9128C21.7954 39.205 21.6377 39.5257 21.3453 39.6253Z" fill="#2994F3"/>
<path opacity="0.2" d="M195.98 36.2412L167.201 36.2568C166.879 36.2569 166.616 35.9942 166.616 35.673L166.6 5.59996C166.6 5.27866 166.863 5.01567 167.184 5.01552L195.963 5C196.284 4.99978 196.547 5.26255 196.548 5.58377L196.564 35.6568C196.564 35.978 196.301 36.241 195.98 36.2412Z" fill="#2994F3"/>
<path d="M194.788 34.948L168.392 34.9623C168.097 34.9625 167.856 34.7215 167.856 34.4268L167.841 6.84446C167.841 6.54983 168.082 6.3086 168.376 6.30845L194.772 6.29419C195.067 6.29404 195.308 6.53498 195.308 6.82961L195.323 34.412C195.323 34.7066 195.082 34.9479 194.788 34.948Z" fill="#F0F3F9"/>
<path opacity="0.2" d="M191.268 29.1728L187.636 29.1691L185.239 29.155L184.839 29.1528L182.899 29.1457L175.539 29.1198L171.508 29.1135L171.548 24.5898L171.646 12.5681L171.68 8.19092L191.435 8.35238L191.393 14.0612L191.324 21.1553L191.338 21.1598L191.301 24.3649L191.268 29.1728Z" fill="#2994F3"/>
<path opacity="0.3" d="M191.268 29.1728L187.636 29.1692L185.239 29.155L184.84 29.1528L182.9 29.1457L175.539 29.1198L171.508 29.1136L171.548 24.5898L171.646 12.5682L174.336 12.5928L174.286 17.365L176.31 17.3859L176.369 9.62146L179.059 9.64641L179.035 11.5065L179.04 12.1012L179.036 12.1145L179.032 12.6918L179.028 12.7492C179.028 12.7492 179.023 12.7625 179.032 12.7803L179.031 12.9137L179.03 13.1799C179.016 13.1754 179.025 13.1932 179.025 13.1932L179.019 13.4728L179.343 13.4794L181.443 13.4959L181.45 12.9501L181.451 12.7726L181.452 11.9423L181.462 11.7824L181.458 11.7513L181.871 11.7581C181.884 11.7626 181.884 11.7626 181.884 11.7626L184.148 11.7764L184.108 16.1668L185.485 16.1749L187.243 16.1943L187.269 14.0232L191.393 14.061L191.338 21.1596L191.301 24.3647L191.268 29.1728Z" fill="#2A94F5"/>
<path d="M191.338 21.1598L191.324 21.1553C190.729 20.4635 189.864 19.6947 188.593 19.0258C186.695 18.0246 185.387 17.5951 185.47 16.3479C185.475 16.2905 185.475 16.2461 185.485 16.175C185.52 14.6746 184.879 9.75629 181.359 11.0806C181.359 11.0806 180.771 10.8063 180.517 10.8536C180.517 10.8536 180.726 10.8949 180.836 11.0066C180.414 10.9816 179.797 11.0093 179.289 11.2813C179.2 11.3253 179.115 11.4004 179.035 11.5065C178.843 11.7228 178.659 12.0458 178.497 12.4356L178.456 12.555C178.352 12.8163 178.262 13.0824 178.176 13.3793C178.171 13.3926 178.171 13.3926 178.171 13.3926C178.017 13.9332 177.889 14.5276 177.801 15.1352C177.801 15.1352 177.801 15.1352 177.797 15.1485C177.769 15.3613 177.75 15.5475 177.727 15.7473C177.722 15.7606 177.722 15.7606 177.718 15.7739C177.571 17.296 177.659 18.8681 178.155 19.9408C178.304 20.2879 178.493 20.56 178.74 20.7921C178.644 20.5964 178.543 20.3247 178.452 19.9383C178.392 19.6358 178.328 19.258 178.29 18.8005C178.346 19.0719 178.424 19.4985 178.559 19.9297C178.681 20.3122 178.838 20.7219 179.059 21.0339C180.098 21.7281 181.55 23.1264 182.864 24.5815C183.156 24.9027 183.433 25.2198 183.707 25.5498C184.174 26.0942 184.602 26.625 184.954 27.1155C184.967 27.1201 184.963 27.1334 184.976 27.1379C185.623 28.0251 186.032 28.7421 186.003 29.0441C186.003 29.0441 186.521 28.5675 187.271 27.8884L187.459 26.8551C187.486 26.9085 187.503 26.9886 187.529 27.0862C187.528 27.2195 187.541 27.3573 187.549 27.5081C187.548 27.5525 187.548 27.5969 187.552 27.6281C188.681 26.6182 190.19 25.2775 191.301 24.365L191.338 21.1598Z" fill="#0E538B"/>
<path d="M179.197 21.1156C179.537 20.9606 179.352 18.0772 179.352 18.0772L182.225 17.5328C182.417 18.4783 182.299 20.1265 182.654 20.2002C182.666 20.2026 182.107 21.289 181.264 21.5114C180.368 21.7481 179.184 21.1213 179.197 21.1156Z" fill="#C88D94"/>
<path d="M182.139 12.057C182.139 12.057 180.668 10.6583 179.134 12.1681C179.134 12.1681 180.089 12.02 182.139 12.057Z" fill="#575BA3"/>
<path d="M182.346 17.2709C182.346 17.2709 183.15 16.0231 183.35 14.9519C183.492 14.1872 183.126 11.3451 180.27 11.7303C180.27 11.7303 179.441 11.805 178.657 12.3245C178.034 12.7377 177.133 13.6333 178.112 16.1189L178.365 16.9578L182.346 17.2709Z" fill="#0E538B"/>
<path d="M187.636 29.1691L185.239 29.155C185.15 28.5016 185.056 27.8174 184.971 27.1955C184.967 27.1645 184.958 27.1466 184.954 27.1154C184.907 26.7289 184.856 26.3557 184.814 26.0447C184.72 25.405 184.669 24.9873 184.669 24.9873L185.331 24.9155L187.325 24.7189C187.325 24.7189 187.339 24.7675 187.36 24.9231C187.385 25.1988 187.439 25.825 187.529 27.0861C187.528 27.2194 187.541 27.3573 187.549 27.508C187.548 27.5525 187.548 27.5969 187.552 27.6281C187.581 28.0677 187.613 28.5831 187.636 29.1691Z" fill="#DCABB0"/>
<path d="M176.954 20.0727L176.951 20.1037L176.635 24.0718C176.635 24.0718 175.959 24.7975 175.24 25.5375C175.227 25.5501 175.215 25.5628 175.203 25.5754L175.203 25.5757C174.702 26.0894 174.187 26.6039 173.867 26.8809C173.427 27.2626 171.989 28.2265 171.518 28.5402L171.551 24.5876C172.156 23.9193 173.071 22.9417 174.007 22.0667C175.116 21.0301 176.253 20.1376 176.937 20.0743C176.942 20.0734 176.947 20.0732 176.953 20.0726L176.954 20.0727Z" fill="#DCABB0"/>
<path d="M185.146 25.8991L187.503 24.858C187.051 22.5887 186.31 21.549 186.251 21.4681C186.252 21.4648 186.253 21.4625 186.253 21.4625C185.346 20.7693 183.778 20.1913 182.509 20.0421C182.499 20.0384 181.692 20.8319 180.929 20.8095C180.152 20.7829 179.43 19.9545 179.4 19.9143C179.12 19.9083 178.785 19.918 178.559 19.9297C178.528 19.9343 178.484 19.9337 178.452 19.9383C178.35 19.933 178.244 19.9412 178.155 19.9408C177.204 19.9884 176.951 20.0359 176.951 20.0359L176.95 20.0384C176.895 20.0301 176.148 19.9619 173.909 21.8324C173.909 21.8324 175.193 24.8489 175.203 25.5757L175.241 25.5482L175.24 25.5483C175.185 25.9299 175.143 26.3159 175.118 26.6931C175.108 26.9415 175.297 27.9551 175.539 29.1196L182.9 29.1455L184.84 29.1526C184.847 28.6953 184.867 28.2425 184.914 27.7988C184.924 27.5947 184.948 27.3949 184.971 27.1954C184.967 27.1643 184.971 27.151 184.976 27.1377C185.018 26.71 185.082 26.3044 185.146 25.8991Z" fill="#FFBE55"/>
<path d="M178.84 18.8328C178.84 18.8328 182.424 18.9218 182.445 16.6889C182.466 14.456 182.943 12.9637 180.655 12.8125C178.368 12.6613 177.915 13.5091 177.727 14.2527C177.538 14.9963 177.908 18.7521 178.84 18.8328Z" fill="#DAA9AE"/>
<path d="M181.66 12.8716C180.885 12.4501 179.586 11.915 179.053 12.6986C178.819 12.4953 178.402 12.3461 177.844 13.0119C177.004 14.0123 177.729 15.7989 177.729 15.7989C178.07 15.8416 178.16 14.6717 178.343 14.1046C178.482 13.6769 178.935 13.2427 179.15 13.055C179.456 13.7623 180.303 15.4569 181.486 15.7717C182.989 16.1715 183.645 15.7734 183.645 15.7734C183.645 15.7734 182.747 15.0473 182.383 13.7688C182.274 13.3849 182.011 13.0625 181.66 12.8716Z" fill="#0E538B"/>
<path opacity="0.2" d="M184.84 29.1529L182.9 29.1457C182.626 28.0299 182.466 26.7147 182.606 25.5167C182.676 25.0064 182.762 24.7098 182.864 24.5816C183.133 24.1835 183.51 24.994 183.707 25.5499C183.794 25.7725 184.312 26.7343 184.914 27.7991C184.867 28.2428 184.847 28.6955 184.84 29.1529Z" fill="#D1872B"/>
<path opacity="0.2" d="M190.713 32.341L176.72 32.3486C176.377 32.3487 176.096 32.0678 176.095 31.7242C176.095 31.3806 176.376 31.0993 176.72 31.0991L190.713 31.0916C191.056 31.0914 191.337 31.3723 191.338 31.7159C191.338 32.0595 191.057 32.3408 190.713 32.341Z" fill="#2994F3"/>
<path d="M174.104 30.6484H171.816C171.651 30.6484 171.518 30.7822 171.518 30.9472V32.4325C171.518 32.5974 171.651 32.7312 171.816 32.7312H172.262C172.347 32.7312 172.406 32.815 172.378 32.895L172.291 33.1434L173.277 32.7989C173.405 32.7541 173.54 32.7312 173.676 32.7312H174.104C174.269 32.7312 174.403 32.5974 174.403 32.4325V30.9472C174.403 30.7822 174.269 30.6484 174.104 30.6484Z" fill="#0E538B"/>
<defs>
<linearGradient id="paint0_linear" x1="71.5409" y1="48.3016" x2="87.4715" y2="48.3016" gradientUnits="userSpaceOnUse">
<stop offset="0.0831" stop-color="#DEADB2"/>
<stop offset="0.9665" stop-color="#C08790"/>
<stop offset="1" stop-color="#BF8690"/>
</linearGradient>
</defs>
</svg>
