<svg width="200" height="136" viewBox="0 0 200 136" fill="none" xmlns="http://www.w3.org/2000/svg">
<g filter="url(#filter0_d)">
<path d="M171.007 35.5807H16.8701V122.136H171.007V35.5807Z" fill="#E6E6E6"/>
<path d="M171.007 21.116H16.8701V35.5806H171.007V21.116Z" fill="#C9C9C9"/>
<path opacity="0.08" d="M159.781 45.479H125.843V65.5777H159.781V45.479Z" fill="black"/>
<path opacity="0.08" d="M159.781 68.8794H125.843V88.9781H159.781V68.8794Z" fill="black"/>
<path opacity="0.08" d="M159.781 92.2869H125.843V112.386H159.781V92.2869Z" fill="black"/>
<path d="M117.652 45.0154H30.1055V112.041H117.652V45.0154Z" fill="#F3BF1E"/>
<path d="M117.652 105.101H30.1055V112.041H117.652V105.101Z" fill="#24285B"/>
<path opacity="0.46" d="M113.17 108.114H34.5874V109.035H113.17V108.114Z" fill="white"/>
<path d="M52.712 111.241C54.1863 111.241 55.3815 110.045 55.3815 108.571C55.3815 107.097 54.1863 105.901 52.712 105.901C51.2377 105.901 50.0425 107.097 50.0425 108.571C50.0425 110.045 51.2377 111.241 52.712 111.241Z" fill="#FFD200"/>
<path opacity="0.44" d="M64.8865 94.1205V59.9015L90.8581 77.0075L64.8865 94.1205Z" fill="white"/>
<path d="M26.0871 30.8949C27.348 30.8949 28.3702 29.8727 28.3702 28.6118C28.3702 27.3508 27.348 26.3286 26.0871 26.3286C24.8262 26.3286 23.804 27.3508 23.804 28.6118C23.804 29.8727 24.8262 30.8949 26.0871 30.8949Z" fill="#24285B"/>
<path d="M33.6882 30.8949C34.9491 30.8949 35.9713 29.8727 35.9713 28.6118C35.9713 27.3508 34.9491 26.3286 33.6882 26.3286C32.4272 26.3286 31.405 27.3508 31.405 28.6118C31.405 29.8727 32.4272 30.8949 33.6882 30.8949Z" fill="#FFD200"/>
<path d="M41.2892 30.8949C42.5502 30.8949 43.5724 29.8727 43.5724 28.6118C43.5724 27.3508 42.5502 26.3286 41.2892 26.3286C40.0283 26.3286 39.0061 27.3508 39.0061 28.6118C39.0061 29.8727 40.0283 30.8949 41.2892 30.8949Z" fill="#F3BF1E"/>
<path opacity="0.08" d="M171.014 72.8417H130.522V122.066H171.014V72.8417Z" fill="black"/>
<path d="M194 75.5322H136.739V127.728H194V75.5322Z" fill="#F4F4F4"/>
<path d="M157.962 91.8795H150.747C150.072 91.8786 149.403 92.0108 148.779 92.2684C148.156 92.5261 147.589 92.9042 147.111 93.3811C146.633 93.8581 146.255 94.4245 145.996 95.048C145.737 95.6715 145.604 96.3399 145.604 97.0149V101.75C145.604 103.114 146.146 104.422 147.111 105.386C148.075 106.35 149.383 106.892 150.747 106.892H151.449L153.866 118.238L157.709 117.423L155.468 106.885H157.983L180.709 112.744V86.0206L157.962 91.8795Z" fill="#F3BF1E"/>
<path d="M183.898 85.0231H183.174C182.476 85.0231 181.91 85.5892 181.91 86.2876V112.484C181.91 113.182 182.476 113.749 183.174 113.749H183.898C184.596 113.749 185.163 113.182 185.163 112.484V86.2876C185.163 85.5892 184.596 85.0231 183.898 85.0231Z" fill="#F3BF1E"/>
<path opacity="0.08" d="M157.631 94.1345H150.395V95.9681H157.631V94.1345Z" fill="black"/>
<path opacity="0.08" d="M58.7957 94.2468H16.8701V121.968H58.7957V94.2468Z" fill="black"/>
<path d="M55.8241 96.4808H7V130.335H55.8241V96.4808Z" fill="#F4F4F4"/>
<path d="M24.0357 116.011H18.5421V123.036H24.0357V116.011Z" fill="#C1C1C1"/>
<path d="M34.3063 110.601H28.8127V123.036H34.3063V110.601Z" fill="#FFD200"/>
<path d="M44.3803 105.094H38.8867V123.035H44.3803V105.094Z" fill="#F3BF1E"/>
<path opacity="0.08" d="M171.007 21.0948V57.4003C165.907 61.2358 159.626 63.1667 153.252 62.8583C146.878 62.55 140.813 60.022 136.107 55.7121C131.401 51.4023 128.351 45.5821 127.485 39.2599C126.619 32.9376 127.991 26.5116 131.365 21.0948H171.007Z" fill="black"/>
<path d="M185.528 33.3747C185.527 34.4311 185.466 35.4866 185.345 36.536C184.531 43.5975 181.004 50.066 175.51 54.5757C170.015 59.0853 162.983 61.283 155.898 60.7046C148.814 60.1262 142.231 56.8169 137.541 51.4757C132.851 46.1345 130.42 39.1795 130.762 32.0795C131.104 24.9795 134.192 18.2904 139.374 13.4247C144.556 8.55904 151.426 5.89781 158.533 6.003C165.641 6.1082 172.429 8.9716 177.465 13.9885C182.5 19.0054 185.389 25.783 185.521 32.89C185.528 33.0375 185.528 33.2132 185.528 33.3747Z" fill="#E6E6E6"/>
<path d="M158.186 52.6797C168.848 52.6797 177.491 44.0366 177.491 33.3748C177.491 22.713 168.848 14.0699 158.186 14.0699C147.524 14.0699 138.881 22.713 138.881 33.3748C138.881 44.0366 147.524 52.6797 158.186 52.6797Z" fill="#F3BF1E"/>
<path d="M158.186 45.142C164.685 45.142 169.953 39.8737 169.953 33.375C169.953 26.8763 164.685 21.608 158.186 21.608C151.688 21.608 146.419 26.8763 146.419 33.375C146.419 39.8737 151.688 45.142 158.186 45.142Z" fill="#E6E6E6"/>
<path d="M158.186 39.051C161.321 39.051 163.863 36.5096 163.863 33.3747C163.863 30.2398 161.321 27.6985 158.186 27.6985C155.051 27.6985 152.51 30.2398 152.51 33.3747C152.51 36.5096 155.051 39.051 158.186 39.051Z" fill="#F3BF1E"/>
<path d="M187.389 16.2756L178.636 20.5749L179.065 15.3483L187.818 11.049L187.389 16.2756Z" fill="#FFD200"/>
<path d="M188.443 18.4183L179.69 22.7177L184.088 25.5769L192.841 21.2705L188.443 18.4183Z" fill="#FFD200"/>
<path d="M188.748 15.6219L157.116 31.1661L158.17 33.3098L189.801 17.7656L188.748 15.6219Z" fill="#24285B"/>
<path opacity="0.27" d="M188.748 15.6219L157.116 31.1661L158.17 33.3098L189.801 17.7656L188.748 15.6219Z" fill="white"/>
<path opacity="0.08" d="M48.1035 42.8727H16.8701V68.0435H48.1035V42.8727Z" fill="black"/>
<path d="M45.7643 40.3436H9.45178V65.5144H45.7643V40.3436Z" fill="#F4F4F4"/>
<path d="M31.4402 60.646C30.0639 61.3502 28.5314 61.6934 26.9863 61.6436C22.8907 61.6436 19.3782 58.6369 19.3782 53.8317C19.3782 48.6683 22.961 44.2074 28.5107 44.2074C32.8663 44.2074 35.7957 47.2633 35.7957 51.4502C35.7957 55.2086 33.6882 57.4145 31.3418 57.4145C30.3373 57.4145 29.41 56.712 29.4872 55.2086H29.3819C29.0606 55.8675 28.5613 56.4233 27.9406 56.8131C27.3198 57.203 26.6023 57.4113 25.8693 57.4145C24.4151 57.4145 23.1577 56.2343 23.1577 54.2532C23.1558 53.4726 23.3083 52.6992 23.6064 51.9777C23.9045 51.2562 24.3423 50.6008 24.8947 50.0491C25.447 49.4974 26.103 49.0604 26.8248 48.7631C27.5467 48.4659 28.3202 48.3143 29.1009 48.3171C30.0201 48.3028 30.9321 48.4823 31.7774 48.8439L30.9414 53.4102C30.5691 55.314 30.8641 56.2202 31.6931 56.2202C32.9717 56.2202 34.3977 54.5413 34.3977 51.6329C34.3977 48.0009 32.22 45.3946 28.3351 45.3946C24.2536 45.3946 20.8183 48.6262 20.8183 53.7123C20.8183 57.9273 23.5511 60.4774 27.2603 60.4774C28.5739 60.5075 29.8739 60.2055 31.0398 59.5993L31.4402 60.646ZM30.0352 49.8204C29.6295 49.6994 29.208 49.6402 28.7847 49.6448C26.5789 49.6448 24.8015 51.7523 24.8015 54.1549C24.8015 55.2578 25.3495 56.0587 26.4524 56.0587C27.9066 56.0587 29.2624 54.2041 29.5083 52.6515L30.0352 49.8204Z" fill="#C1C1C1"/>
</g>
<defs>
<filter id="filter0_d" x="4.34716" y="6" width="192.306" height="129.64" filterUnits="userSpaceOnUse" color-interpolation-filters="sRGB">
<feFlood flood-opacity="0" result="BackgroundImageFix"/>
<feColorMatrix in="SourceAlpha" type="matrix" values="0 0 0 0 0 0 0 0 0 0 0 0 0 0 0 0 0 0 127 0" result="hardAlpha"/>
<feOffset dy="2.65284"/>
<feGaussianBlur stdDeviation="1.32642"/>
<feColorMatrix type="matrix" values="0 0 0 0 0 0 0 0 0 0 0 0 0 0 0 0 0 0 0.25 0"/>
<feBlend mode="normal" in2="BackgroundImageFix" result="effect1_dropShadow"/>
<feBlend mode="normal" in="SourceGraphic" in2="effect1_dropShadow" result="shape"/>
</filter>
</defs>
</svg>
