<svg width="200" height="136" viewBox="0 0 200 136" fill="none" xmlns="http://www.w3.org/2000/svg">
<path opacity="0.45" d="M142.681 97.399C142.681 97.399 187.056 97.399 179.917 66.924C169.051 20.6458 94.7826 42.9945 58.6719 58.7201C20.5644 75.3221 3.52416 30.6081 36.6117 15.4539" stroke="#C9C9C9" stroke-width="1.83539" stroke-linecap="round" stroke-linejoin="round" stroke-dasharray="1.84 7.34"/>
<path opacity="0.45" d="M107.946 136C147.281 136 179.168 131.416 179.168 125.76C179.168 120.105 147.281 115.521 107.946 115.521C68.6103 115.521 36.7227 120.105 36.7227 125.76C36.7227 131.416 68.6103 136 107.946 136Z" fill="#E6E6E6"/>
<path d="M159.859 117.44H125.502V126.487H159.859V117.44Z" fill="#E6E6E6"/>
<path opacity="0.43" d="M152.349 108.593H117.991V117.64H152.349V108.593Z" fill="#E6E6E6"/>
<g filter="url(#filter0_d)">
<path d="M135.17 4.48755H67.1477V126.487H135.17V4.48755Z" fill="#C9C9C9"/>
</g>
<path d="M129.085 18.3937H72.7778V104.255H129.085V18.3937Z" fill="white"/>
<path opacity="0.56" d="M101.367 121.905C105.043 121.905 108.023 118.925 108.023 115.249C108.023 111.573 105.043 108.593 101.367 108.593C97.6905 108.593 94.7104 111.573 94.7104 115.249C94.7104 118.925 97.6905 121.905 101.367 121.905Z" fill="white"/>
<path opacity="0.12" d="M114.474 9.25793H95.4039V12.037H114.474V9.25793Z" fill="black"/>
<path d="M88.4979 14.0558C90.2135 14.0558 91.6042 12.6651 91.6042 10.9496C91.6042 9.234 90.2135 7.84326 88.4979 7.84326C86.7823 7.84326 85.3916 9.234 85.3916 10.9496C85.3916 12.6651 86.7823 14.0558 88.4979 14.0558Z" fill="white"/>
<path d="M123.793 34.5297H78.6466V85.789H123.793V34.5297Z" fill="#E6E6E6"/>
<path opacity="0.12" d="M82.0191 30.5471C83.8818 30.5471 85.3917 29.0372 85.3917 27.1745C85.3917 25.3119 83.8818 23.802 82.0191 23.802C80.1565 23.802 78.6466 25.3119 78.6466 27.1745C78.6466 29.0372 80.1565 30.5471 82.0191 30.5471Z" fill="black"/>
<path opacity="0.12" d="M104.972 79.0828H123.793V85.7835H102.687L104.972 79.0828Z" fill="black"/>
<path d="M97.7946 24.5785H87.9765V26.3147H97.7946V24.5785Z" fill="#E6E6E6"/>
<path opacity="0.56" d="M97.7946 28.0342H87.9765V29.7704H97.7946V28.0342Z" fill="#E6E6E6"/>
<path opacity="0.58" d="M48.0329 118.794C48.0329 118.794 42.2086 117.202 40.9383 111.777C40.9383 111.777 49.9688 109.952 50.2295 119.271L48.0329 118.794Z" fill="#F3BF1E"/>
<path opacity="0.73" d="M48.7484 118.217C48.7484 118.217 44.6769 111.777 48.2602 105.758C48.2602 105.758 55.1274 110.118 52.0765 118.228L48.7484 118.217Z" fill="#F3BF1E"/>
<path d="M49.7968 118.222C49.7968 118.222 51.949 111.422 58.4556 110.135C58.4556 110.135 59.6759 114.572 54.2455 118.239L49.7968 118.222Z" fill="#F3BF1E"/>
<path d="M45.57 118.067L46.7515 126.149L54.1955 126.182L55.2938 118.106L45.57 118.067Z" fill="#24285B"/>
<g opacity="0.12">
<path opacity="0.12" d="M89.0082 89.3615C88.519 89.3591 88.0436 89.5234 87.6603 89.8274C87.3362 90.087 87.0683 90.4097 86.8726 90.776C86.6769 90.4097 86.409 90.087 86.0849 89.8274C85.7016 89.5234 85.2262 89.3591 84.737 89.3615C84.4034 89.3676 84.0744 89.4412 83.7699 89.5777C83.4654 89.7143 83.1917 89.9111 82.9653 90.1562C82.7388 90.4013 82.5643 90.6897 82.4522 91.004C82.3401 91.3183 82.2927 91.6521 82.313 91.9852C82.313 93.6049 83.611 94.7143 85.5802 96.3895L86.6895 97.338C86.7414 97.3844 86.8085 97.4101 86.8781 97.4101C86.9474 97.4082 87.0139 97.3827 87.0667 97.338L88.1761 96.3895C90.1397 94.7254 91.4377 93.616 91.4377 91.9852C91.458 91.6516 91.4105 91.3174 91.2981 91.0027C91.1856 90.688 91.0106 90.3994 90.7836 90.1542C90.5565 89.909 90.2821 89.7124 89.977 89.5761C89.6719 89.4399 89.3423 89.3669 89.0082 89.3615Z" fill="black"/>
</g>
<path d="M120.077 90.3707H94.8159V92.6838H120.077V90.3707Z" fill="#C9C9C9"/>
<path d="M109.637 85.7835C109.865 85.7835 119.1 68.3217 119.1 68.3217L115.695 66.9349L102.265 85.7946L109.637 85.7835Z" fill="#F3BF1E"/>
<path opacity="0.34" d="M120.077 94.0818H94.8159V96.3949H120.077V94.0818Z" fill="#C9C9C9"/>
<path d="M94.2944 45.8844C94.2944 45.8844 95.4704 49.3291 95.4537 51.8197C95.4523 52.0607 95.4031 52.2991 95.309 52.5211C95.2149 52.743 95.0778 52.9442 94.9055 53.1128C94.7333 53.2815 94.5293 53.4143 94.3054 53.5037C94.0815 53.5931 93.8421 53.6372 93.601 53.6335C92.3474 53.6335 90.6612 53.2064 89.8069 51.4147L87.9709 48.5858C87.6654 47.9818 87.5546 47.2979 87.654 46.6283C87.7533 45.9587 88.0578 45.3364 88.5256 44.8471C90.1897 42.9445 93.6842 43.7488 94.2944 45.8844Z" fill="#F4A28C"/>
<path d="M88.7141 49.2903L86.8725 59.1639L93.074 61.7654L92.0645 53.1565L88.7141 49.2903Z" fill="#F4A28C"/>
<path d="M94.9213 48.092L96.2415 49.2014C96.3168 49.2647 96.3749 49.346 96.4104 49.4378C96.4458 49.5295 96.4574 49.6288 96.4442 49.7263C96.4309 49.8238 96.3931 49.9163 96.3344 49.9952C96.2756 50.0742 96.1979 50.1369 96.1083 50.1777L94.8159 50.8045L94.9213 48.092Z" fill="#F4A28C"/>
<path opacity="0.31" d="M92.0924 53.4004C91.3186 53.1699 90.6225 52.7326 90.0788 52.1357C90.0788 52.1357 89.3633 54.6485 92.3864 55.8633L92.0924 53.4004Z" fill="#CE8172"/>
<path d="M88.8917 51.2482C88.8917 51.2482 90.8942 54.3267 92.708 54.3655C94.5219 54.4044 97.0236 54.0216 96.0362 51.1816C95.4205 49.4121 93.5179 50.577 91.2326 51.6586C91.2326 51.6586 89.5685 49.6784 89.3854 48.1973C89.3854 48.1973 90.8498 47.5317 90.3284 46.206C90.3284 46.206 94.2945 47.2765 94.5552 45.1631C94.8159 43.0498 94.3999 41.9792 92.5916 41.6963C90.7832 41.4134 86.3069 42.9998 85.669 45.3462C85.0311 47.6926 88.8917 51.2482 88.8917 51.2482Z" fill="#24285B"/>
<path d="M89.0803 50.6712C89.088 50.3734 89.0113 50.0795 88.8592 49.8233C88.7071 49.5672 88.4857 49.3592 88.2205 49.2235C88.034 49.1266 87.8227 49.088 87.614 49.1128C87.4053 49.1375 87.2088 49.2244 87.0501 49.3621C86.0073 50.1997 87.4273 52.3297 89.0748 51.5532L89.0803 50.6712Z" fill="#F4A28C"/>
<path d="M119.1 68.3217C119.1 68.3217 121.624 63.0798 118.546 61.7652C115.467 60.4506 116.388 67.0847 116.388 67.0847L119.1 68.3217Z" fill="#E59383"/>
<path d="M78.6466 58.8143C78.6466 58.8143 91.3103 57.7714 99.5087 63.2851C107.707 68.7988 104.573 85.7835 104.573 85.7835H78.6466V58.8143Z" fill="#F3BF1E"/>
<path opacity="0.12" d="M83.9604 60.4951C83.9604 60.4951 89.9678 62.9136 90.345 69.692C90.7222 76.4703 92.0091 83.404 98.2438 83.404C104.479 83.404 118.291 68.1555 118.291 68.1555L119.1 68.3219L109.637 85.7837H92.6525C92.6525 85.7837 81.5253 85.939 83.9604 60.4951Z" fill="black"/>
<path d="M96.541 82.4552L112.599 68.1552L115.778 71.6275L104.656 85.7834H92.6525L96.541 82.4552Z" fill="#F3BF1E"/>
<path opacity="0.46" d="M96.541 82.4552L112.599 68.1552L115.778 71.6275L104.656 85.7834H92.6525L96.541 82.4552Z" fill="white"/>
<path d="M113.093 68.6934C113.093 68.6934 114.397 65.7535 115.778 65.4873C117.159 65.221 120.875 67.3788 115.367 71.184L113.093 68.6934Z" fill="#F4A28C"/>
<path d="M84.9089 58.8862C84.9089 58.8862 85.5856 56.3901 89.0802 56.9503C92.5748 57.5106 94.7492 57.7547 94.8158 60.9275L84.9089 58.8862Z" fill="white"/>
<path d="M117.104 62.7583L116.083 62.8026V62.2091L117.098 62.1647C117.392 62.1515 117.669 62.0219 117.868 61.8045C118.067 61.5871 118.171 61.2996 118.157 61.0054C118.144 60.7112 118.015 60.4343 117.797 60.2356C117.58 60.0369 117.292 59.9327 116.998 59.9459L115.983 59.9903V59.3968L116.998 59.3524C117.228 59.334 117.459 59.362 117.677 59.4348C117.896 59.5077 118.097 59.6238 118.27 59.7763C118.443 59.9287 118.583 60.1144 118.682 60.3223C118.781 60.5301 118.838 60.7559 118.848 60.986C118.858 61.2161 118.821 61.4459 118.741 61.6616C118.66 61.8774 118.537 62.0746 118.378 62.2416C118.219 62.4086 118.029 62.5418 117.817 62.6335C117.606 62.7251 117.378 62.7732 117.148 62.7749L117.104 62.7583Z" fill="#FFD200"/>
<path opacity="0.46" d="M117.104 62.7583L116.083 62.8026V62.2091L117.098 62.1647C117.392 62.1515 117.669 62.0219 117.868 61.8045C118.067 61.5871 118.171 61.2996 118.157 61.0054C118.144 60.7112 118.015 60.4343 117.797 60.2356C117.58 60.0369 117.292 59.9327 116.998 59.9459L115.983 59.9903V59.3968L116.998 59.3524C117.228 59.334 117.459 59.362 117.677 59.4348C117.896 59.5077 118.097 59.6238 118.27 59.7763C118.443 59.9287 118.583 60.1144 118.682 60.3223C118.781 60.5301 118.838 60.7559 118.848 60.986C118.858 61.2161 118.821 61.4459 118.741 61.6616C118.66 61.8774 118.537 62.0746 118.378 62.2416C118.219 62.4086 118.029 62.5418 117.817 62.6335C117.606 62.7251 117.378 62.7732 117.148 62.7749L117.104 62.7583Z" fill="white"/>
<path d="M116.26 63.5014L112.688 63.6567L111.385 58.193L116.893 57.9545L116.26 63.5014Z" fill="#FFD200"/>
<path d="M110.347 63.6569H119.1L117.575 65.4874H112.022L110.347 63.6569Z" fill="#FFD200"/>
<path opacity="0.31" d="M110.347 63.6569H119.1L117.575 65.4874H112.022L110.347 63.6569Z" fill="#CE8172"/>
<path opacity="0.54" d="M116.294 57.982C116.294 57.982 118.096 54.7537 115.695 53.8606C113.293 52.9676 111.812 55.5857 110.869 52.1355C109.926 48.6853 108.151 47.6037 104.795 48.4579C101.439 49.3121 104.534 53.6166 100.773 54.0049C97.0124 54.3931 97.7668 59.9734 100.929 59.8624C104.09 59.7515 106.475 53.8163 107.74 55.8686C109.005 57.921 111.873 58.1762 111.873 58.1762L116.294 57.982Z" fill="white"/>
<path d="M78.6466 58.8144C78.6466 58.8144 85.6469 57.9213 86.318 66.0254C86.9892 74.1295 84.3821 83.3097 92.6526 85.767H78.6466V58.8144Z" fill="#F3BF1E"/>
<path opacity="0.46" d="M78.6466 58.8144C78.6466 58.8144 85.6469 57.9213 86.318 66.0254C86.9892 74.1295 84.3821 83.3097 92.6526 85.767H78.6466V58.8144Z" fill="white"/>
<path d="M31.3589 12.9909L23.8816 8.63098L54.057 5.26953L40.2562 25.6768L35.3416 15.1708L31.3589 12.9909Z" fill="#FFD200"/>
<path d="M31.3587 12.9909L33.4444 20.6124L35.3414 15.1708L54.0569 5.26953L31.3587 12.9909Z" fill="#FFD200"/>
<path opacity="0.46" d="M31.3587 12.9909L33.4444 20.6124L35.3414 15.1708L54.0569 5.26953L31.3587 12.9909Z" fill="white"/>
<path d="M33.4443 20.6126L36.7781 18.244L35.3414 15.171L33.4443 20.6126Z" fill="#24285B"/>
<g filter="url(#filter1_d)">
<path d="M161.995 0H121.502V24.0793H161.995V0Z" fill="#24285B"/>
</g>
<path d="M136.34 7.43863C135.695 7.43547 135.068 7.65049 134.56 8.0488C134.135 8.39175 133.782 8.81604 133.523 9.29686C133.265 8.81485 132.912 8.39023 132.485 8.0488C131.979 7.65129 131.354 7.43629 130.71 7.43863C128.891 7.43863 127.521 8.92522 127.521 10.8944C127.521 13.0244 129.229 14.4833 131.82 16.6909C132.258 17.0681 132.757 17.4897 133.278 17.9446C133.345 18.005 133.432 18.0386 133.523 18.0389C133.614 18.0389 133.703 18.0054 133.772 17.9446C134.288 17.4897 134.787 17.0681 135.225 16.6909C137.816 14.4722 139.53 13.0244 139.53 10.8944C139.558 8.92522 138.154 7.43863 136.34 7.43863Z" fill="#F3BF1E"/>
<path d="M144.433 14.3944C144.47 14.6779 144.614 14.9365 144.836 15.1163C145.058 15.2961 145.341 15.3833 145.626 15.3595C146.491 15.3595 146.868 14.7105 146.868 12.9799C146.672 13.2178 146.423 13.4068 146.141 13.5319C145.859 13.657 145.551 13.7149 145.243 13.701C144.918 13.7196 144.592 13.6682 144.289 13.5501C143.985 13.432 143.71 13.25 143.483 13.0164C143.256 12.7829 143.081 12.5032 142.972 12.1964C142.862 11.8896 142.819 11.5628 142.847 11.2381C142.823 10.8931 142.875 10.5471 142.997 10.2237C143.12 9.90041 143.311 9.60747 143.558 9.36505C143.804 9.12262 144.101 8.93646 144.426 8.81934C144.751 8.70222 145.098 8.65692 145.443 8.68655C147.534 8.68655 148.178 10.101 148.178 12.5361C148.178 15.1543 147.595 16.5688 145.559 16.5688C145.251 16.5976 144.94 16.5636 144.645 16.4687C144.35 16.3738 144.077 16.2201 143.843 16.0169C143.609 15.8136 143.419 15.565 143.284 15.2861C143.149 15.0072 143.072 14.7039 143.058 14.3944H144.433ZM146.73 11.2492C146.75 11.079 146.733 10.9064 146.68 10.7435C146.626 10.5806 146.538 10.4314 146.42 10.3066C146.303 10.1817 146.159 10.0841 146 10.0208C145.841 9.95752 145.67 9.92998 145.498 9.94016C145.174 9.96697 144.871 10.1165 144.653 10.3584C144.434 10.6003 144.316 10.9163 144.323 11.2422C144.329 11.568 144.459 11.8792 144.687 12.1124C144.915 12.3455 145.223 12.4832 145.548 12.4973C145.712 12.5093 145.877 12.4847 146.03 12.4253C146.184 12.3658 146.322 12.273 146.435 12.1536C146.548 12.0341 146.633 11.891 146.684 11.7346C146.735 11.5782 146.751 11.4124 146.73 11.2492Z" fill="white"/>
<path d="M151.034 14.3944C151.07 14.6779 151.215 14.9365 151.437 15.1163C151.659 15.2961 151.942 15.3833 152.227 15.3595C153.092 15.3595 153.475 14.7105 153.475 12.9799C153.278 13.2175 153.029 13.4062 152.747 13.5313C152.465 13.6564 152.158 13.7145 151.85 13.701C151.524 13.7196 151.199 13.6682 150.895 13.5501C150.591 13.432 150.317 13.25 150.089 13.0164C149.862 12.7829 149.688 12.5032 149.578 12.1964C149.468 11.8896 149.426 11.5628 149.453 11.2381C149.43 10.8931 149.481 10.5471 149.604 10.2237C149.726 9.90041 149.918 9.60747 150.164 9.36505C150.411 9.12262 150.707 8.93646 151.033 8.81934C151.358 8.70222 151.705 8.65692 152.049 8.68655C154.141 8.68655 154.784 10.101 154.784 12.5361C154.784 15.1543 154.202 16.5688 152.166 16.5688C151.857 16.5976 151.546 16.5636 151.251 16.4687C150.956 16.3738 150.684 16.2201 150.45 16.0169C150.216 15.8136 150.026 15.565 149.891 15.2861C149.756 15.0072 149.679 14.7039 149.664 14.3944H151.034ZM153.336 11.2492C153.334 11.0028 153.258 10.7626 153.118 10.5597C152.978 10.3567 152.781 10.2002 152.551 10.1101C152.322 10.0201 152.071 10.0006 151.83 10.0543C151.59 10.1079 151.37 10.2322 151.201 10.4112C151.032 10.5902 150.919 10.8157 150.879 11.0589C150.839 11.302 150.872 11.5517 150.974 11.7759C151.077 12 151.244 12.1885 151.454 12.317C151.665 12.4456 151.909 12.5083 152.155 12.4973C152.319 12.5093 152.483 12.4847 152.637 12.4253C152.79 12.3658 152.928 12.273 153.042 12.1536C153.155 12.0341 153.24 11.891 153.291 11.7346C153.342 11.5782 153.357 11.4124 153.336 11.2492Z" fill="white"/>
<defs>
<filter id="filter0_d" x="64.1477" y="2.48755" width="76.0222" height="130" filterUnits="userSpaceOnUse" color-interpolation-filters="sRGB">
<feFlood flood-opacity="0" result="BackgroundImageFix"/>
<feColorMatrix in="SourceAlpha" type="matrix" values="0 0 0 0 0 0 0 0 0 0 0 0 0 0 0 0 0 0 127 0" result="hardAlpha"/>
<feOffset dx="1" dy="2"/>
<feGaussianBlur stdDeviation="2"/>
<feColorMatrix type="matrix" values="0 0 0 0 0 0 0 0 0 0 0 0 0 0 0 0 0 0 0.25 0"/>
<feBlend mode="normal" in2="BackgroundImageFix" result="effect1_dropShadow"/>
<feBlend mode="normal" in="SourceGraphic" in2="effect1_dropShadow" result="shape"/>
</filter>
<filter id="filter1_d" x="121.502" y="0" width="44.4927" height="28.0793" filterUnits="userSpaceOnUse" color-interpolation-filters="sRGB">
<feFlood flood-opacity="0" result="BackgroundImageFix"/>
<feColorMatrix in="SourceAlpha" type="matrix" values="0 0 0 0 0 0 0 0 0 0 0 0 0 0 0 0 0 0 127 0" result="hardAlpha"/>
<feOffset dx="2" dy="2"/>
<feGaussianBlur stdDeviation="1"/>
<feColorMatrix type="matrix" values="0 0 0 0 0 0 0 0 0 0 0 0 0 0 0 0 0 0 0.25 0"/>
<feBlend mode="normal" in2="BackgroundImageFix" result="effect1_dropShadow"/>
<feBlend mode="normal" in="SourceGraphic" in2="effect1_dropShadow" result="shape"/>
</filter>
</defs>
</svg>
