<svg width="200" height="144" viewBox="0 0 200 144" fill="none" xmlns="http://www.w3.org/2000/svg">
<g filter="url(#filter0_d)">
<path opacity="0.2" d="M54.4797 79.3602C54.4797 79.3602 54.8749 87.2642 38.0131 97.0124C38.0131 97.0124 37.9931 97.0555 161.447 97.0124C161.447 97.0124 147.352 87.0007 146.43 75.8033" fill="black"/>
<path d="M145.908 73.7096V7.29171C146.703 7.08587 147.407 6.62189 147.909 5.9726C148.412 5.32332 148.685 4.5255 148.685 3.70442C148.685 3.21794 148.589 2.73624 148.403 2.2868C148.216 1.83736 147.944 1.42898 147.6 1.08499C147.256 0.741006 146.847 0.468143 146.398 0.281979C145.948 0.0958153 145.467 -1.12224e-06 144.98 0H56.0739C55.5874 -8.41675e-07 55.1057 0.0958152 54.6562 0.281979C54.2068 0.468143 53.7984 0.741009 53.4544 1.085C53.1104 1.42898 52.8376 1.83736 52.6514 2.2868C52.4653 2.73624 52.3694 3.21794 52.3694 3.70442C52.3694 4.68689 52.7597 5.62913 53.4544 6.32385C54.1492 7.01856 55.0914 7.40884 56.0739 7.40884H56.0747L54.0164 73.7684L37.4911 94.9187C37.4911 94.9187 37.3522 94.9191 160.925 94.9187C160.925 94.9187 160.838 95.1328 145.908 73.7096Z" fill="#E6E6E6"/>
<path opacity="0.2" d="M103.871 87.4569C118.903 87.4569 131.09 86.5195 131.09 85.3631C131.09 84.2067 118.903 83.2693 103.871 83.2693C88.8376 83.2693 76.651 84.2067 76.651 85.3631C76.651 86.5195 88.8376 87.4569 103.871 87.4569Z" fill="black"/>
<path opacity="0.2" d="M56.0739 7.40889L145.908 10.0252L145.947 7.2478L56.0739 7.40889Z" fill="black"/>
<path d="M120.981 30.7018V38.8677C120.981 38.9432 120.951 39.0155 120.897 39.0688C120.844 39.1222 120.772 39.1522 120.696 39.1524H120.494V81.6914C120.494 82.8686 120.026 83.9975 119.194 84.8299C118.361 85.6622 117.232 86.1299 116.055 86.13H89.475C88.8922 86.1299 88.3152 86.015 87.7767 85.792C87.2383 85.5689 86.7491 85.2419 86.3371 84.8297C85.925 84.4176 85.5982 83.9283 85.3753 83.3898C85.1523 82.8513 85.0376 82.2742 85.0377 81.6914V40.6444H84.891C84.8378 40.6445 84.7867 40.6234 84.749 40.5859C84.7112 40.5484 84.6899 40.4974 84.6896 40.4442V35.7968C84.6896 35.7704 84.6948 35.7442 84.7049 35.7197C84.7151 35.6953 84.7299 35.6731 84.7486 35.6544C84.7673 35.6357 84.7895 35.6208 84.8139 35.6107C84.8384 35.6006 84.8646 35.5954 84.891 35.5954H85.0377V33.8449H84.8898C84.8339 33.8447 84.7804 33.8223 84.741 33.7826C84.7016 33.743 84.6796 33.6894 84.6797 33.6335V29.0495C84.6798 28.9938 84.702 28.9405 84.7414 28.9011C84.7808 28.8617 84.8341 28.8395 84.8898 28.8394H85.0377V26.4498H84.8873C84.8628 26.4498 84.8385 26.445 84.8159 26.4357C84.7932 26.4263 84.7727 26.4126 84.7554 26.3952C84.738 26.3779 84.7243 26.3574 84.7149 26.3347C84.7056 26.3121 84.7008 26.2878 84.7008 26.2633V23.7618C84.7007 23.7122 84.7203 23.6646 84.7552 23.6294C84.7902 23.5942 84.8377 23.5743 84.8873 23.5741H85.0377V18.5089C85.0378 17.3321 85.5053 16.2035 86.3375 15.3714C87.1696 14.5392 88.2982 14.0717 89.475 14.0717H116.055C117.232 14.0717 118.361 14.5391 119.193 15.3712C120.026 16.2033 120.493 17.332 120.494 18.5089V30.4171H120.696C120.772 30.4173 120.844 30.4474 120.897 30.5007C120.951 30.5541 120.981 30.6264 120.981 30.7018Z" fill="#3F3D56"/>
<path d="M104.046 16.3477H99.7267C99.5521 16.3477 99.4106 16.4891 99.4106 16.6637V17.037C99.4106 17.2115 99.5521 17.353 99.7267 17.353H104.046C104.22 17.353 104.362 17.2115 104.362 17.037V16.6637C104.362 16.4891 104.22 16.3477 104.046 16.3477Z" fill="#E6E8EC"/>
<path d="M105.68 17.4205C105.995 17.4205 106.251 17.1652 106.251 16.8503C106.251 16.5353 105.995 16.28 105.68 16.28C105.366 16.28 105.11 16.5353 105.11 16.8503C105.11 17.1652 105.366 17.4205 105.68 17.4205Z" fill="#E6E8EC"/>
<path d="M118.368 19.3866V82.0593C118.368 82.806 118.071 83.5219 117.543 84.0497C117.015 84.5776 116.299 84.8741 115.552 84.8741H90.1084C89.7385 84.8748 89.3721 84.8024 89.0303 84.6612C88.6884 84.52 88.3778 84.3127 88.1162 84.0512C87.8546 83.7897 87.6471 83.4792 87.5058 83.1374C87.3644 82.7956 87.2919 82.4292 87.2924 82.0593V19.3866C87.2923 19.0168 87.3652 18.6506 87.5067 18.3089C87.6482 17.9673 87.8556 17.6568 88.1171 17.3953C88.3786 17.1338 88.6891 16.9264 89.0307 16.7849C89.3724 16.6434 89.7386 16.5705 90.1084 16.5706H93.9166V17.0592C93.9166 17.6741 94.1609 18.2639 94.5957 18.6987C95.0306 19.1336 95.6204 19.3779 96.2353 19.3779H109.175C109.79 19.3779 110.38 19.1336 110.815 18.6987C111.25 18.2639 111.494 17.6741 111.494 17.0592V16.5706H115.552C115.922 16.5704 116.288 16.6432 116.63 16.7847C116.972 16.9261 117.282 17.1336 117.544 17.3951C117.805 17.6566 118.013 17.9671 118.154 18.3088C118.296 18.6505 118.368 19.0167 118.368 19.3866Z" fill="white"/>
<path d="M115.812 57.8301H89.952V61.1869H115.812V57.8301Z" fill="#E6E6E6"/>
<path d="M115.812 63.798H89.952V67.1548H115.812V63.798Z" fill="#E6E6E6"/>
<path d="M115.812 69.7656H89.952V73.1225H115.812V69.7656Z" fill="#E6E6E6"/>
<path d="M115.76 33.7103H89.9001V50.8677H115.76V33.7103Z" fill="#E6E6E6"/>
<path d="M54.5256 9.86755L41.2639 9.94993C41.2639 9.94993 19.4356 21.5642 34.7566 45.6165C34.7566 45.6165 41.0168 44.1339 47.9359 49.2409C47.9359 49.2409 51.9721 10.7736 54.5256 9.86755Z" fill="#F3BF1E"/>
<path opacity="0.2" d="M50.5807 9.98788C48.2048 19.9124 45.5189 45.5097 45.5189 45.5097C39.3371 40.947 33.6853 41.6438 32.55 41.8442C33.2197 43.1701 33.9561 44.4611 34.7566 45.7124C34.7566 45.7124 41.0167 44.2297 47.9359 49.3367C47.9359 49.3367 51.9721 10.8695 54.5256 9.96338L50.5807 9.98788Z" fill="black"/>
<path d="M34.6742 22.3055L33.5209 27.9069L19.0286 25.2726L19.0237 25.2709L18.6942 18.6813H21.4949L34.6742 22.3055Z" fill="#3F3D56"/>
<path opacity="0.2" d="M21.2609 18.6813L19.0286 25.2726L19.0237 25.2709L18.6942 18.6813H21.2609Z" fill="black"/>
<path d="M34.1801 28.5658C35.09 28.5658 35.8276 26.8694 35.8276 24.7767C35.8276 22.6841 35.09 20.9877 34.1801 20.9877C33.2703 20.9877 32.5327 22.6841 32.5327 24.7767C32.5327 26.8694 33.2703 28.5658 34.1801 28.5658Z" fill="#3F3D56"/>
<path d="M25.6134 104.851C25.5473 104.851 25.4818 104.838 25.4207 104.812C25.3596 104.787 25.3041 104.75 25.2573 104.703C25.2106 104.656 25.1735 104.601 25.1482 104.54C25.1229 104.479 25.1099 104.413 25.1099 104.347V24.7767C25.1099 24.6432 25.1629 24.5151 25.2573 24.4207C25.3518 24.3262 25.4799 24.2732 25.6134 24.2732C25.747 24.2732 25.875 24.3262 25.9695 24.4207C26.0639 24.5151 26.117 24.6432 26.117 24.7767V104.347C26.117 104.413 26.1039 104.479 26.0786 104.54C26.0533 104.601 26.0163 104.656 25.9695 104.703C25.9227 104.75 25.8672 104.787 25.8061 104.812C25.745 104.838 25.6796 104.851 25.6134 104.851Z" fill="#3F3D56"/>
<path d="M32.5321 118.854C32.4154 118.854 32.3023 118.813 32.2123 118.739C32.1223 118.664 32.0608 118.561 32.0385 118.447L25.1193 82.9758C25.097 82.8612 25.1151 82.7425 25.1706 82.6398C25.2262 82.5372 25.3156 82.457 25.4237 82.413C25.5318 82.369 25.6518 82.3639 25.7633 82.3986C25.8747 82.4333 25.9706 82.5056 26.0346 82.6032L44.3209 110.496C44.3942 110.608 44.42 110.744 44.3929 110.875C44.3657 111.005 44.2876 111.12 44.176 111.193C44.0643 111.266 43.9281 111.292 43.7973 111.265C43.6665 111.238 43.5519 111.16 43.4787 111.048L26.5988 85.301L33.0269 118.254C33.0395 118.319 33.0393 118.386 33.0262 118.45C33.013 118.515 32.9873 118.577 32.9503 118.632C32.9134 118.687 32.866 118.734 32.8109 118.77C32.7557 118.807 32.694 118.832 32.6291 118.845C32.5971 118.851 32.5646 118.854 32.5321 118.854Z" fill="#3F3D56"/>
<path d="M6.50286 112.593C6.4121 112.593 6.32307 112.569 6.24516 112.522C6.16726 112.476 6.10338 112.409 6.06028 112.329C6.01719 112.249 5.99647 112.159 6.00033 112.068C6.00419 111.978 6.03248 111.89 6.08221 111.814L25.1923 82.6546C25.2656 82.5432 25.3801 82.4654 25.5107 82.4383C25.6413 82.4113 25.7773 82.4371 25.8889 82.5102C26.0004 82.5833 26.0784 82.6977 26.1058 82.8283C26.1331 82.9588 26.1075 83.0949 26.0346 83.2066L6.92448 112.366C6.87867 112.436 6.81613 112.493 6.74251 112.533C6.66889 112.573 6.58652 112.593 6.50286 112.593Z" fill="#3F3D56"/>
<path d="M145.801 9.86755L159.063 9.94993C159.063 9.94993 180.891 21.5642 165.57 45.6165C165.57 45.6165 159.31 44.1339 152.391 49.2409C152.391 49.2409 148.355 10.7736 145.801 9.86755Z" fill="#F3BF1E"/>
<path opacity="0.2" d="M149.746 9.98788C152.122 19.9124 154.808 45.5097 154.808 45.5097C160.99 40.947 166.642 41.6438 167.777 41.8442C167.107 43.1701 166.371 44.4611 165.57 45.7124C165.57 45.7124 159.31 44.2297 152.391 49.3367C152.391 49.3367 148.355 10.8695 145.801 9.96338L149.746 9.98788Z" fill="black"/>
<path d="M165.653 22.3055L166.806 27.9069L181.298 25.2726L181.303 25.2709L181.633 18.6813H178.832L165.653 22.3055Z" fill="#3F3D56"/>
<path opacity="0.2" d="M179.066 18.6813L181.298 25.2726L181.303 25.2709L181.632 18.6813H179.066Z" fill="black"/>
<path d="M166.147 28.5658C167.057 28.5658 167.794 26.8694 167.794 24.7767C167.794 22.6841 167.057 20.9877 166.147 20.9877C165.237 20.9877 164.5 22.6841 164.5 24.7767C164.5 26.8694 165.237 28.5658 166.147 28.5658Z" fill="#3F3D56"/>
<path d="M174.714 104.851C174.647 104.851 174.582 104.838 174.521 104.812C174.46 104.787 174.404 104.75 174.357 104.703C174.311 104.656 174.274 104.601 174.248 104.54C174.223 104.479 174.21 104.413 174.21 104.347V24.7767C174.21 24.6432 174.263 24.5151 174.357 24.4207C174.452 24.3262 174.58 24.2732 174.714 24.2732C174.847 24.2732 174.975 24.3262 175.07 24.4207C175.164 24.5151 175.217 24.6432 175.217 24.7767V104.347C175.217 104.413 175.204 104.479 175.179 104.54C175.153 104.601 175.116 104.656 175.07 104.703C175.023 104.75 174.967 104.787 174.906 104.812C174.845 104.838 174.78 104.851 174.714 104.851Z" fill="#3F3D56"/>
<path d="M167.795 118.854C167.762 118.854 167.73 118.851 167.698 118.845C167.567 118.819 167.451 118.742 167.377 118.632C167.302 118.521 167.274 118.385 167.3 118.254L173.728 85.3007L156.848 111.048C156.812 111.104 156.765 111.151 156.71 111.188C156.656 111.226 156.594 111.252 156.53 111.265C156.465 111.279 156.398 111.279 156.333 111.267C156.268 111.254 156.206 111.229 156.151 111.193C156.096 111.157 156.048 111.11 156.011 111.055C155.974 111.001 155.947 110.939 155.934 110.875C155.921 110.81 155.92 110.743 155.932 110.678C155.945 110.613 155.97 110.551 156.006 110.496L174.292 82.6032C174.356 82.5056 174.452 82.4333 174.564 82.3986C174.675 82.3639 174.795 82.369 174.903 82.413C175.011 82.457 175.101 82.5372 175.156 82.6398C175.212 82.7425 175.23 82.8612 175.208 82.9758L168.289 118.447C168.266 118.561 168.205 118.664 168.115 118.739C168.025 118.813 167.912 118.854 167.795 118.854Z" fill="#3F3D56"/>
<path d="M193.824 112.593C193.74 112.593 193.658 112.573 193.584 112.533C193.511 112.493 193.448 112.436 193.402 112.366L174.292 83.2066C174.219 83.0949 174.194 82.9588 174.221 82.8283C174.248 82.6977 174.326 82.5833 174.438 82.5102C174.55 82.4371 174.686 82.4113 174.816 82.4383C174.947 82.4654 175.061 82.5432 175.135 82.6546L194.245 111.814C194.294 111.89 194.323 111.978 194.327 112.068C194.33 112.159 194.31 112.249 194.267 112.329C194.223 112.409 194.16 112.476 194.082 112.522C194.004 112.569 193.915 112.593 193.824 112.593Z" fill="#3F3D56"/>
<path d="M88.6859 69.9233L92.2938 68.9188C92.2938 68.9188 93.7069 68.6366 92.8434 65.8767C91.9799 63.1167 90.2673 63.8892 90.2673 63.8892L87.0668 64.819L85.8032 65.2092L87.5812 67.7035L87.7302 69.366L88.6859 69.9233Z" fill="#3F3D56"/>
<path d="M81.7144 62.6309L80.5825 67.1524L86.3823 72.7734L86.881 72.8984L88.2111 72.5247L89.3432 68.0034L88.1966 66.7976L89.3686 66.4905L86.8675 64.0625L85.5624 64.3364L84.5155 63.297L85.222 63.0146L85.2887 62.7486L84.4328 62.075L81.7144 62.6309Z" fill="#3F3D56"/>
<path d="M87.1484 69.0084L86.3991 72.0005L82.9424 68.7326L83.8081 65.6989L87.1484 69.0084Z" fill="#F3BF1E"/>
<path d="M81.7144 62.6309L81.5557 63.2649L87.323 68.8755L87.8216 69.0002L89.1103 68.6516L89.1813 68.6501L89.3432 68.0034L88.1966 66.7976L89.3686 66.4905L86.8675 64.0625L85.5623 64.3364L84.5155 63.297L85.222 63.0146L85.2887 62.7486L84.4328 62.075L81.7144 62.6309Z" stroke="#3F3D56" stroke-width="0.215542" stroke-miterlimit="10"/>
<path d="M84.844 62.6903C84.8876 62.5159 84.7146 62.3223 84.4576 62.2579C84.2005 62.1936 83.9567 62.2828 83.9131 62.4572C83.8694 62.6317 84.0424 62.8252 84.2994 62.8896C84.5565 62.954 84.8003 62.8647 84.844 62.6903Z" fill="#F3BF1E"/>
<path d="M88.5079 67.5293C88.5516 67.3549 88.3786 67.1613 88.1215 67.0969C87.8645 67.0326 87.6207 67.1218 87.577 67.2962C87.5333 67.4707 87.7063 67.6642 87.9634 67.7286C88.2204 67.793 88.4642 67.7037 88.5079 67.5293Z" fill="#F3BF1E"/>
<path d="M91.083 75.5557L90.2962 72.8807C90.2962 72.8807 92.3418 68.0026 89.9815 67.5305C87.6211 67.0584 87.4637 72.0939 87.4637 72.0939L88.4079 75.0837L91.083 75.5557Z" fill="#FFB6B6"/>
<path d="M76.4751 70.3544C79.9272 70.3544 82.7257 67.5559 82.7257 64.1037C82.7257 60.6516 79.9272 57.853 76.4751 57.853C73.0229 57.853 70.2244 60.6516 70.2244 64.1037C70.2244 67.5559 73.0229 70.3544 76.4751 70.3544Z" fill="#FFB6B6"/>
<path d="M78.4975 68.5159C78.4975 68.5159 78.8651 73.112 79.7844 73.4797C80.7036 73.8474 69.8568 76.4212 69.8568 76.4212L72.6145 73.2958C72.6145 73.2958 73.166 68.5159 71.8791 67.4128L78.4975 68.5159Z" fill="#FFB6B6"/>
<path d="M87.3064 74.1395L89.8241 73.8248C89.8241 73.8248 92.8139 75.3984 92.8139 77.4441C92.8139 79.4897 94.5449 82.7942 94.5449 82.7942C94.5449 82.7942 95.8037 87.2002 92.9713 87.515C90.1388 87.8297 87.6211 82.7942 87.6211 82.7942L87.3064 74.1395Z" fill="#F3BF1E"/>
<path d="M88.7226 99.1593C88.7226 99.1593 94.2301 93.9665 95.8037 94.2812C97.3773 94.5959 100.524 95.068 100.524 97.4284C100.524 99.7887 95.3316 105.296 95.3316 105.296C95.3316 105.296 91.3977 113.951 87.6211 114.266C85.1368 114.491 82.6675 114.859 80.2253 115.367C80.2253 115.367 81.9562 121.661 81.0121 123.392C80.0679 125.123 76.4487 127.169 76.134 127.012C75.8193 126.854 71.4133 122.763 69.525 116.941C67.6367 111.118 66.3778 106.712 68.1087 106.398C69.8397 106.083 88.7226 99.1593 88.7226 99.1593Z" fill="#2F2E41"/>
<path d="M100.052 96.9563C100.052 96.9563 101.154 96.799 100.996 99.4741C100.839 102.149 100.367 111.748 99.5802 113.636C98.7935 115.525 98.6361 117.728 98.9508 118.514C99.2655 119.301 99.895 120.56 98.7935 120.717C97.6919 120.875 93.1286 120.245 92.6565 120.088C92.1844 119.931 91.7124 117.255 92.0271 117.255C92.3418 117.255 93.1286 117.098 92.8139 115.997C92.4991 114.895 92.3418 114.895 92.8139 114.58C93.2859 114.266 94.5448 113.794 94.2301 113.479C93.9154 113.164 93.6007 105.768 93.6007 105.768L100.052 96.9563Z" fill="#2F2E41"/>
<path d="M98.4789 120.245C98.4789 120.245 101.154 119.459 101.469 121.189C101.469 121.189 101.941 123.865 99.8951 124.809C98.575 125.433 97.3114 126.17 96.1185 127.012C96.1185 127.012 92.814 128.271 92.6567 126.697C92.4993 125.123 93.2861 119.458 93.2861 119.458L98.4789 120.245Z" fill="#2F2E41"/>
<path d="M80.6973 122.134L75.6618 118.042C75.6618 118.042 76.606 123.078 75.3471 124.022L74.7721 125.703L76.3823 127.02C76.3823 127.02 81.3267 126.225 80.6973 122.134Z" fill="#2F2E41"/>
<path d="M73.6163 115.21C73.6163 115.21 76.9208 116.154 76.4487 119.459C75.9766 122.763 75.3714 126.353 75.3714 126.353C75.3714 126.353 75.1898 135.194 72.8295 135.824C70.4691 136.453 69.8397 135.194 69.8397 135.194C69.8397 135.194 67.1566 128.286 67.9514 126.225C68.9134 123.731 70.2997 120.93 69.8397 120.088C69.387 119.259 70.1544 114.738 73.6163 115.21Z" fill="#2F2E41"/>
<path d="M71.728 71.7792C71.728 71.7792 72.9869 71.9365 75.0325 72.2513C77.0782 72.566 78.4944 70.9924 79.5959 71.3071C80.6974 71.6218 89.8242 73.8248 89.8242 73.8248L88.4079 84.6825C88.4079 84.6825 90.1389 97.2711 89.8242 99.4741C89.5094 101.677 93.6007 101.362 91.2404 104.038C88.88 106.713 84.7887 109.073 76.4487 108.286C68.1088 107.499 67.0073 107.657 67.0073 106.398C67.0073 105.139 68.8956 94.4387 68.2661 93.4946C67.6367 92.5504 66.3778 91.4489 67.0073 90.3474C67.6367 89.2459 68.2661 88.6165 67.322 87.6723C66.3778 86.7282 65.9058 85.784 65.9058 85.312C65.9058 84.8399 63.7028 77.1293 63.7028 77.1293C63.7028 77.1293 64.6469 73.3528 65.7484 73.1954C66.8499 73.038 67.794 72.2513 68.5808 72.2513C69.3676 72.2513 69.8397 72.4086 70.3118 72.2513L71.728 71.7792Z" fill="#F3BF1E"/>
<path d="M86.8179 61.9113C86.7369 61.5476 86.3406 60.3316 85.535 60.035C84.9455 59.8179 83.8487 60.2765 83.3024 60.2004L83.2319 60.0004C83.1852 59.6064 83.087 59.2202 82.9398 58.8517C82.6512 58.1149 82.2168 57.444 81.6627 56.8791C81.1085 56.3143 80.446 55.8671 79.7149 55.5644C77.9156 54.8123 75.0696 54.1903 72.6005 56.1613C69.2089 58.8684 69.8065 62.9193 70.053 64.0432C70.0941 64.2307 70.1293 64.4194 70.1586 64.6093C70.3106 65.5993 70.7486 65.7174 70.7486 65.7174C70.7486 65.7174 70.7392 65.6889 70.7238 65.6368L73.7872 65.935L75.4433 65.6524C75.471 65.8143 75.4818 65.9101 75.4818 65.9101C80.3147 65.1713 83.1272 62.6257 83.5839 62.1843C83.9854 62.4504 84.7331 62.8851 85.4583 62.9804C86.5204 63.1201 86.8988 62.275 86.8179 61.9113ZM74.3653 64.3451L70.4735 64.2035C70.4183 63.1412 70.6927 61.8991 72.257 61.8357C73.7653 61.7745 74.5885 63.0008 75.0248 64.1236L74.3653 64.3451Z" fill="#2F2E41"/>
<path d="M75.3823 55.2617C75.7571 55.1977 76.0413 55.0309 76.0171 54.889C75.9929 54.7472 75.6695 54.6841 75.2946 54.7481C74.9198 54.812 74.6356 54.9789 74.6598 55.1207C74.684 55.2625 75.0075 55.3256 75.3823 55.2617Z" fill="#2F2E41"/>
</g>
<defs>
<filter id="filter0_d" x="1.99988" y="0" width="196.327" height="144" filterUnits="userSpaceOnUse" color-interpolation-filters="sRGB">
<feFlood flood-opacity="0" result="BackgroundImageFix"/>
<feColorMatrix in="SourceAlpha" type="matrix" values="0 0 0 0 0 0 0 0 0 0 0 0 0 0 0 0 0 0 127 0" result="hardAlpha"/>
<feOffset dy="4"/>
<feGaussianBlur stdDeviation="2"/>
<feColorMatrix type="matrix" values="0 0 0 0 0 0 0 0 0 0 0 0 0 0 0 0 0 0 0.25 0"/>
<feBlend mode="normal" in2="BackgroundImageFix" result="effect1_dropShadow"/>
<feBlend mode="normal" in="SourceGraphic" in2="effect1_dropShadow" result="shape"/>
</filter>
</defs>
</svg>
