<svg width="208" height="139" viewBox="0 0 208 139" fill="none" xmlns="http://www.w3.org/2000/svg">
<g filter="url(#filter0_d)">
<path d="M194.747 130.316H26.2187C24.72 130.316 23.2827 129.72 22.223 128.66C21.1632 127.601 20.5679 126.163 20.5679 124.665C81.6592 117.565 141.602 117.565 200.397 124.665C200.397 126.163 199.802 127.601 198.742 128.66C197.683 129.72 196.245 130.316 194.747 130.316Z" fill="#CCCCCC"/>
<path d="M200.397 124.997L20.5679 124.665L41.4095 89.5963L41.5092 89.4301V12.1433C41.5091 11.2052 41.6938 10.2763 42.0528 9.4096C42.4118 8.54289 42.9379 7.75539 43.6013 7.09206C44.2646 6.42872 45.0521 5.90255 45.9188 5.54359C46.7855 5.18464 47.7144 4.99992 48.6525 5H171.316C172.254 4.99992 173.183 5.18464 174.049 5.54359C174.916 5.90255 175.704 6.42872 176.367 7.09206C177.03 7.75539 177.556 8.54289 177.915 9.4096C178.274 10.2763 178.459 11.2052 178.459 12.1433V89.962L200.397 124.997Z" fill="#E6E6E6"/>
<path d="M48.4897 9.98596C47.8728 9.98665 47.2813 10.232 46.8451 10.6682C46.4089 11.1044 46.1635 11.6959 46.1628 12.3128V82.782C46.1636 83.3989 46.4089 83.9903 46.8451 84.4265C47.2813 84.8627 47.8728 85.1081 48.4897 85.1088H172.476C173.093 85.1081 173.684 84.8627 174.12 84.4265C174.556 83.9903 174.802 83.3989 174.802 82.782V12.3128C174.802 11.6959 174.556 11.1045 174.12 10.6683C173.684 10.2321 173.093 9.98668 172.476 9.98596H48.4897Z" fill="white"/>
<path d="M49.3045 94.4161C49.1139 94.4165 48.9273 94.4713 48.7668 94.5741C48.6063 94.6769 48.4785 94.8235 48.3985 94.9965L41.9766 108.957C41.9067 109.109 41.8761 109.276 41.8876 109.443C41.8992 109.61 41.9526 109.771 42.0428 109.912C42.133 110.053 42.2572 110.169 42.4039 110.249C42.5506 110.329 42.7152 110.371 42.8824 110.371H177.933C178.103 110.371 178.27 110.328 178.418 110.245C178.567 110.162 178.691 110.043 178.781 109.898C178.87 109.754 178.921 109.589 178.929 109.419C178.936 109.249 178.9 109.08 178.824 108.928L171.844 94.9673C171.762 94.8014 171.634 94.6618 171.477 94.5644C171.319 94.4669 171.137 94.4156 170.952 94.4162L49.3045 94.4161Z" fill="#CCCCCC"/>
<path d="M109.984 8.82267C110.81 8.82267 111.48 8.15298 111.48 7.32686C111.48 6.50075 110.81 5.83105 109.984 5.83105C109.158 5.83105 108.488 6.50075 108.488 7.32686C108.488 8.15298 109.158 8.82267 109.984 8.82267Z" fill="white"/>
<path d="M96.7097 113.031C96.4905 113.031 96.2775 113.103 96.1035 113.237C95.9295 113.37 95.8042 113.557 95.7469 113.768L94.136 119.752C94.0962 119.9 94.0909 120.054 94.1206 120.205C94.1503 120.355 94.2142 120.496 94.3073 120.618C94.4004 120.739 94.5202 120.838 94.6575 120.905C94.7947 120.973 94.9458 121.008 95.0988 121.008H125.734C125.893 121.008 126.05 120.97 126.191 120.897C126.332 120.825 126.454 120.719 126.546 120.589C126.639 120.46 126.699 120.31 126.721 120.153C126.744 119.996 126.728 119.835 126.676 119.685L124.605 113.702C124.537 113.506 124.41 113.336 124.241 113.216C124.072 113.095 123.87 113.031 123.663 113.031H96.7097Z" fill="#CCCCCC"/>
<path d="M178.459 88.2666V89.5964H41.4095L41.5126 89.4301V88.2666H178.459Z" fill="#CCCCCC"/>
<path d="M161.543 91.3125C161.489 91.3126 161.438 91.3302 161.395 91.3627C161.353 91.3951 161.322 91.4406 161.308 91.4922L160.916 92.9492C160.906 92.9852 160.905 93.0229 160.912 93.0595C160.92 93.096 160.935 93.1305 160.958 93.16C160.98 93.1896 161.01 93.2136 161.043 93.2301C161.076 93.2466 161.113 93.2552 161.151 93.2552H168.611C168.649 93.2552 168.688 93.2459 168.722 93.2282C168.756 93.2104 168.786 93.1847 168.808 93.1532C168.831 93.1216 168.846 93.0852 168.851 93.0469C168.857 93.0086 168.853 92.9695 168.84 92.9329L168.336 91.4759C168.319 91.4282 168.288 91.3868 168.247 91.3575C168.206 91.3283 168.157 91.3125 168.106 91.3125H161.543Z" fill="#CCCCCC"/>
<path d="M150.65 91.3125C150.597 91.3126 150.545 91.3302 150.502 91.3627C150.46 91.3951 150.43 91.4406 150.416 91.4922L150.023 92.9492C150.014 92.9852 150.012 93.0229 150.02 93.0595C150.027 93.096 150.042 93.1305 150.065 93.16C150.088 93.1896 150.117 93.2136 150.15 93.2301C150.184 93.2466 150.221 93.2552 150.258 93.2552H157.718C157.757 93.2552 157.795 93.2459 157.829 93.2282C157.864 93.2104 157.893 93.1847 157.916 93.1532C157.938 93.1216 157.953 93.0852 157.958 93.0469C157.964 93.0086 157.96 92.9695 157.947 92.9329L157.443 91.4759C157.427 91.4282 157.396 91.3868 157.354 91.3575C157.313 91.3283 157.264 91.3125 157.214 91.3125H150.65Z" fill="#CCCCCC"/>
<path d="M119.091 100.57H119.676L118.507 22.4174H117.922L117.945 23.9765H104.841L104.864 22.4174H104.279L103.11 100.57H103.695L103.77 95.5031H119.016L119.091 100.57ZM118.249 44.2456H104.537L104.68 34.6958H118.106L118.249 44.2456ZM118.257 44.8303L118.4 54.3802H104.386L104.529 44.8303H118.257ZM118.409 54.9649L118.552 64.5147H104.234L104.377 54.9649H118.409ZM118.561 65.0994L118.704 74.6493H104.083L104.225 65.0994H118.561ZM118.712 75.2339L118.855 84.7838H103.931L104.074 75.2339H118.712ZM117.954 24.5612L118.097 34.1111H104.689L104.832 24.5612H117.954ZM103.779 94.9184L103.922 85.3685H118.864L119.007 94.9184H103.779Z" fill="#3F3D56"/>
<path d="M108.497 49.3359C113.762 49.3359 118.031 45.0674 118.031 39.8019C118.031 34.5364 113.762 30.2679 108.497 30.2679C103.231 30.2679 98.9626 34.5364 98.9626 39.8019C98.9626 45.0674 103.231 49.3359 108.497 49.3359Z" fill="#2F2E41"/>
<path d="M114.105 46.3907L111.255 46.9066L112.179 52.013L115.029 51.4971L114.105 46.3907Z" fill="#2F2E41"/>
<path d="M108.404 47.4224L105.554 47.9384L106.479 53.0447L109.329 52.5288L108.404 47.4224Z" fill="#2F2E41"/>
<path d="M107.992 54.1194C109.009 53.2579 109.572 52.2503 109.249 51.8688C108.926 51.4873 107.839 51.8765 106.822 52.738C105.805 53.5995 105.242 54.6071 105.565 54.9886C105.888 55.37 106.974 54.9809 107.992 54.1194Z" fill="#2F2E41"/>
<path d="M113.573 53.1091C114.59 52.2476 115.153 51.24 114.83 50.8585C114.507 50.4771 113.42 50.8662 112.403 51.7277C111.386 52.5892 110.823 53.5968 111.146 53.9783C111.469 54.3598 112.556 53.9706 113.573 53.1091Z" fill="#2F2E41"/>
<path d="M107.829 40.7283C109.629 40.7283 111.088 39.2695 111.088 37.4699C111.088 35.6703 109.629 34.2114 107.829 34.2114C106.03 34.2114 104.571 35.6703 104.571 37.4699C104.571 39.2695 106.03 40.7283 107.829 40.7283Z" fill="white"/>
<path d="M106.49 37.3881C107.09 37.3881 107.576 36.9018 107.576 36.302C107.576 35.7021 107.09 35.2158 106.49 35.2158C105.89 35.2158 105.404 35.7021 105.404 36.302C105.404 36.9018 105.89 37.3881 106.49 37.3881Z" fill="#3F3D56"/>
<path d="M116.018 29.43C116.161 25.9004 113.119 22.9108 109.223 22.7525C105.327 22.5943 102.053 25.3273 101.909 28.8569C101.766 32.3865 104.474 33.1885 108.37 33.3467C112.266 33.505 115.874 32.9596 116.018 29.43Z" fill="#F3BF1E"/>
<path d="M104.34 39.13C104.524 38.3244 102.594 37.1945 100.028 36.6063C97.4615 36.0181 95.2315 36.1943 95.0468 36.9999C94.8622 37.8055 96.7928 38.9355 99.3589 39.5237C101.925 40.1119 104.155 39.9356 104.34 39.13Z" fill="#2F2E41"/>
<path d="M123.055 42.2422C123.239 41.4366 121.309 40.3067 118.742 39.7185C116.176 39.1303 113.946 39.3065 113.762 40.1121C113.577 40.9177 115.508 42.0476 118.074 42.6358C120.64 43.2241 122.87 43.0478 123.055 42.2422Z" fill="#2F2E41"/>
<path d="M111.115 43.559C111.166 43.8398 111.162 44.1279 111.102 44.407C111.042 44.686 110.927 44.9505 110.765 45.1853C110.603 45.42 110.396 45.6205 110.156 45.7753C109.916 45.93 109.648 46.036 109.367 46.0871C109.087 46.1382 108.798 46.1335 108.519 46.0732C108.24 46.0129 107.976 45.8982 107.741 45.7357C107.507 45.5732 107.306 45.366 107.152 45.126C106.997 44.8861 106.892 44.618 106.841 44.3371L106.84 44.333C106.626 43.1524 107.539 42.7347 108.72 42.521C109.9 42.3072 110.901 42.3785 111.115 43.559Z" fill="white"/>
<path d="M76.2054 72.1828C77.1689 69.6618 77.3085 67.3729 76.5171 67.0704C75.7257 66.7679 74.303 68.5664 73.3394 71.0873C72.3759 73.6083 72.2363 75.8972 73.0277 76.1997C73.8191 76.5022 75.2418 74.7037 76.2054 72.1828Z" fill="#2F2E41"/>
<path d="M75.3862 80.5809C76.2508 75.2529 72.6325 70.2328 67.3045 69.3682C61.9765 68.5036 56.9564 72.1219 56.0918 77.4499C55.2272 82.7779 58.8454 87.798 64.1734 88.6626C69.5014 89.5272 74.5215 85.9089 75.3862 80.5809Z" fill="#2F2E41"/>
<path d="M64.2544 86.6857H61.2853V92.0054H64.2544V86.6857Z" fill="#2F2E41"/>
<path d="M70.1926 86.6857H67.2235V92.0054H70.1926V86.6857Z" fill="#2F2E41"/>
<path d="M63.7596 92.9951C65.1261 92.9951 66.2338 92.5797 66.2338 92.0673C66.2338 91.5548 65.1261 91.1394 63.7596 91.1394C62.3931 91.1394 61.2853 91.5548 61.2853 92.0673C61.2853 92.5797 62.3931 92.9951 63.7596 92.9951Z" fill="#2F2E41"/>
<path d="M69.6978 92.8713C71.0643 92.8713 72.1721 92.4559 72.1721 91.9435C72.1721 91.431 71.0643 91.0156 69.6978 91.0156C68.3313 91.0156 67.2235 91.431 67.2235 91.9435C67.2235 92.4559 68.3313 92.8713 69.6978 92.8713Z" fill="#2F2E41"/>
<path d="M56.2584 69.9264C55.4692 66.3922 57.9918 62.821 61.8928 61.95C65.7938 61.0789 69.5959 63.2379 70.385 66.7721C71.1742 70.3063 68.5889 71.6097 64.6879 72.4808C60.7869 73.3518 57.0475 73.4606 56.2584 69.9264Z" fill="#F3BF1E"/>
<path d="M59.1461 76.5747C59.5092 75.8092 57.8267 74.251 55.3883 73.0945C52.9498 71.938 50.6787 71.621 50.3156 72.3865C49.9525 73.152 51.635 74.7101 54.0735 75.8667C56.512 77.0232 58.7831 77.3402 59.1461 76.5747Z" fill="#2F2E41"/>
<path d="M23.421 98.6847C28.8187 98.6847 33.1944 94.309 33.1944 88.9113C33.1944 83.5136 28.8187 79.1379 23.421 79.1379C18.0233 79.1379 13.6476 83.5136 13.6476 88.9113C13.6476 94.309 18.0233 98.6847 23.421 98.6847Z" fill="#2F2E41"/>
<path d="M21.9364 96.5818H18.9673V101.901H21.9364V96.5818Z" fill="#2F2E41"/>
<path d="M27.8746 96.5818H24.9055V101.901H27.8746V96.5818Z" fill="#2F2E41"/>
<path d="M21.4416 102.891C22.8081 102.891 23.9158 102.476 23.9158 101.963C23.9158 101.451 22.8081 101.035 21.4416 101.035C20.0751 101.035 18.9673 101.451 18.9673 101.963C18.9673 102.476 20.0751 102.891 21.4416 102.891Z" fill="#2F2E41"/>
<path d="M27.3798 102.767C28.7463 102.767 29.8541 102.352 29.8541 101.84C29.8541 101.327 28.7463 100.912 27.3798 100.912C26.0133 100.912 24.9055 101.327 24.9055 101.84C24.9055 102.352 26.0133 102.767 27.3798 102.767Z" fill="#2F2E41"/>
<path d="M23.6684 89.7773C25.5132 89.7773 27.0087 88.2819 27.0087 86.4371C27.0087 84.5923 25.5132 83.0968 23.6684 83.0968C21.8236 83.0968 20.3281 84.5923 20.3281 86.4371C20.3281 88.2819 21.8236 89.7773 23.6684 89.7773Z" fill="white"/>
<path d="M23.6684 87.5505C24.2833 87.5505 24.7818 87.052 24.7818 86.437C24.7818 85.8221 24.2833 85.3236 23.6684 85.3236C23.0534 85.3236 22.5549 85.8221 22.5549 86.437C22.5549 87.052 23.0534 87.5505 23.6684 87.5505Z" fill="#3F3D56"/>
<path d="M13.9404 79.8224C13.1512 76.2882 15.6739 72.717 19.5748 71.846C23.4758 70.9749 27.2779 73.1339 28.067 76.6681C28.8562 80.2023 26.2709 81.5057 22.3699 82.3768C18.4689 83.2478 14.7296 83.3566 13.9404 79.8224Z" fill="#E6E6E6"/>
<path d="M30.5472 53.9959C31.5107 51.4749 31.6503 49.186 30.8589 48.8835C30.0675 48.581 28.6448 50.3795 27.6812 52.9005C26.7176 55.4214 26.5781 57.7103 27.3695 58.0128C28.1609 58.3153 29.5836 56.5169 30.5472 53.9959Z" fill="#2F2E41"/>
<path d="M29.728 62.3939C30.5926 57.0659 26.9743 52.0458 21.6463 51.1812C16.3183 50.3166 11.2982 53.9348 10.4336 59.2628C9.56895 64.5908 13.1872 69.6109 18.5152 70.4756C23.8432 71.3402 28.8633 67.7219 29.728 62.3939Z" fill="#2F2E41"/>
<path d="M18.5961 68.4987H15.627V73.8183H18.5961V68.4987Z" fill="#2F2E41"/>
<path d="M24.5344 68.4987H21.5653V73.8183H24.5344V68.4987Z" fill="#2F2E41"/>
<path d="M18.1012 74.808C19.4677 74.808 20.5755 74.3926 20.5755 73.8801C20.5755 73.3677 19.4677 72.9523 18.1012 72.9523C16.7347 72.9523 15.627 73.3677 15.627 73.8801C15.627 74.3926 16.7347 74.808 18.1012 74.808Z" fill="#2F2E41"/>
<path d="M24.0396 74.6843C25.4061 74.6843 26.5139 74.2689 26.5139 73.7565C26.5139 73.244 25.4061 72.8286 24.0396 72.8286C22.6731 72.8286 21.5653 73.244 21.5653 73.7565C21.5653 74.2689 22.6731 74.6843 24.0396 74.6843Z" fill="#2F2E41"/>
<path d="M20.3282 61.6945C22.173 61.6945 23.6685 60.199 23.6685 58.3542C23.6685 56.5094 22.173 55.0139 20.3282 55.0139C18.4834 55.0139 16.9879 56.5094 16.9879 58.3542C16.9879 60.199 18.4834 61.6945 20.3282 61.6945Z" fill="white"/>
<path d="M20.3281 59.4676C20.9431 59.4676 21.4416 58.9691 21.4416 58.3541C21.4416 57.7392 20.9431 57.2407 20.3281 57.2407C19.7132 57.2407 19.2147 57.7392 19.2147 58.3541C19.2147 58.9691 19.7132 59.4676 20.3281 59.4676Z" fill="#3F3D56"/>
<path d="M10.6002 51.7394C9.81102 48.2052 12.3336 44.634 16.2346 43.763C20.1356 42.8919 23.9377 45.0508 24.7268 48.585C25.516 52.1193 22.9307 53.4227 19.0297 54.2938C15.1287 55.1648 11.3893 55.2736 10.6002 51.7394Z" fill="#F3BF1E"/>
<path d="M13.4879 58.3875C13.851 57.622 12.1686 56.0639 9.73007 54.9074C7.29158 53.7508 5.02047 53.4339 4.6574 54.1994C4.29433 54.9649 5.97679 56.523 8.41527 57.6795C10.8538 58.8361 13.1249 59.1531 13.4879 58.3875Z" fill="#2F2E41"/>
<path d="M15.2802 64.3542C15.2802 65.3107 17.7431 67.1996 20.4761 67.1996C23.2091 67.1996 25.7716 64.5066 25.7716 63.55C25.7716 62.5935 23.2091 63.7356 20.4761 63.7356C17.7431 63.7356 15.2802 63.3976 15.2802 64.3542Z" fill="white"/>
<path d="M29.6895 23.5106C29.509 23.5108 29.3359 23.5826 29.2083 23.7102C29.0807 23.8379 29.0089 24.0109 29.0087 24.1914V52.3311C29.0089 52.5116 29.0807 52.6846 29.2083 52.8123C29.3359 52.9399 29.509 53.0117 29.6895 53.0119H94.8192C94.9997 53.0117 95.1727 52.9399 95.3004 52.8123C95.428 52.6846 95.4998 52.5116 95.5 52.3311V24.1914C95.4998 24.0109 95.428 23.8379 95.3004 23.7102C95.1727 23.5826 94.9997 23.5108 94.8192 23.5106H29.6895Z" fill="#F3BF1E"/>
<path d="M47.2755 44.8698C50.9253 44.8698 53.8841 41.911 53.8841 38.2612C53.8841 34.6115 50.9253 31.6527 47.2755 31.6527C43.6257 31.6527 40.667 34.6115 40.667 38.2612C40.667 41.911 43.6257 44.8698 47.2755 44.8698Z" fill="white"/>
<path d="M62.1907 37.3819C61.988 37.3853 61.7947 37.4682 61.6525 37.6127C61.5104 37.7572 61.4307 37.9519 61.4307 38.1546C61.4307 38.3574 61.5104 38.552 61.6525 38.6965C61.7947 38.8411 61.988 38.9239 62.1907 38.9273H83.0562C83.1577 38.929 83.2586 38.9107 83.3531 38.8735C83.4475 38.8362 83.5337 38.7807 83.6067 38.7102C83.6797 38.6396 83.738 38.5553 83.7785 38.4622C83.8189 38.369 83.8405 38.2688 83.8422 38.1673C83.8439 38.0658 83.8255 37.9649 83.7882 37.8705C83.7508 37.7761 83.6953 37.6899 83.6246 37.617C83.554 37.5441 83.4697 37.4858 83.3765 37.4454C83.2833 37.4051 83.1831 37.3835 83.0816 37.3819C83.0731 37.3818 83.0647 37.3818 83.0562 37.3819H62.1907Z" fill="white"/>
<path d="M62.1907 32.9053C61.988 32.9086 61.7947 32.9915 61.6525 33.136C61.5104 33.2805 61.4307 33.4752 61.4307 33.6779C61.4307 33.8807 61.5104 34.0753 61.6525 34.2199C61.7947 34.3644 61.988 34.4473 62.1907 34.4506H72.6105C72.712 34.4523 72.8129 34.4341 72.9073 34.3968C73.0018 34.3596 73.088 34.3041 73.161 34.2335C73.234 34.1629 73.2923 34.0786 73.3327 33.9855C73.3732 33.8923 73.3948 33.7921 73.3965 33.6906C73.3981 33.5891 73.3798 33.4882 73.3425 33.3938C73.3051 33.2994 73.2496 33.2133 73.1789 33.1403C73.1083 33.0674 73.024 33.0091 72.9308 32.9688C72.8376 32.9284 72.7374 32.9068 72.6359 32.9053C72.6274 32.9051 72.6189 32.9051 72.6105 32.9053H62.1907Z" fill="white"/>
<path d="M62.1907 42.0719C61.988 42.0752 61.7947 42.1581 61.6525 42.3026C61.5104 42.4472 61.4307 42.6418 61.4307 42.8446C61.4307 43.0473 61.5104 43.2419 61.6525 43.3865C61.7947 43.531 61.988 43.6139 62.1907 43.6172H83.0562C83.1577 43.619 83.2586 43.6007 83.3531 43.5634C83.4475 43.5262 83.5337 43.4707 83.6067 43.4001C83.6797 43.3295 83.738 43.2453 83.7785 43.1521C83.8189 43.059 83.8405 42.9588 83.8422 42.8573C83.8439 42.7557 83.8255 42.6549 83.7882 42.5605C83.7508 42.466 83.6953 42.3799 83.6246 42.307C83.554 42.234 83.4697 42.1757 83.3765 42.1354C83.2833 42.0951 83.1831 42.0735 83.0816 42.0719C83.0731 42.0717 83.0647 42.0717 83.0562 42.0719H62.1907Z" fill="white"/>
<path d="M163.527 94.122C164.318 93.8195 164.179 91.5306 163.215 89.0096C162.252 86.4886 160.829 84.6902 160.038 84.9927C159.246 85.2952 159.386 87.5841 160.349 90.105C161.313 92.626 162.736 94.4245 163.527 94.122Z" fill="#2F2E41"/>
<path d="M170.339 108.627C175.667 107.763 179.285 102.743 178.421 97.4147C177.556 92.0867 172.536 88.4684 167.208 89.333C161.88 90.1977 158.262 95.2178 159.126 100.546C159.991 105.874 165.011 109.492 170.339 108.627Z" fill="#2F2E41"/>
<path d="M173.227 106.65H170.258L170.839 113.021L173.232 112.371L173.227 106.65Z" fill="#2F2E41"/>
<path d="M166.754 106.667H163.785L164.366 113.038L166.651 112.371L166.754 106.667Z" fill="#2F2E41"/>
<path d="M164.282 113.337C165.644 113.237 166.719 112.742 166.682 112.231C166.644 111.72 165.509 111.387 164.146 111.486C162.783 111.586 161.709 112.081 161.746 112.592C161.784 113.103 162.919 113.437 164.282 113.337Z" fill="#2F2E41"/>
<path d="M168.526 99.8461C170.371 99.8461 171.866 98.3506 171.866 96.5058C171.866 94.661 170.371 93.1655 168.526 93.1655C166.681 93.1655 165.186 94.661 165.186 96.5058C165.186 98.3506 166.681 99.8461 168.526 99.8461Z" fill="white"/>
<path d="M168.526 97.6192C169.141 97.6192 169.639 97.1207 169.639 96.5058C169.639 95.8908 169.141 95.3923 168.526 95.3923C167.911 95.3923 167.413 95.8908 167.413 96.5058C167.413 97.1207 167.911 97.6192 168.526 97.6192Z" fill="#3F3D56"/>
<path d="M180.335 93.0874C181.938 90.9166 182.686 88.7487 182.004 88.2453C181.322 87.7419 179.47 89.0937 177.867 91.2646C176.263 93.4355 175.516 95.6034 176.197 96.1067C176.879 96.6101 178.731 95.2583 180.335 93.0874Z" fill="#2F2E41"/>
<path d="M164.005 104.019C164.005 103.231 166.035 101.674 168.287 101.674C170.54 101.674 172.652 103.894 172.652 104.682C172.652 105.471 170.54 104.529 168.287 104.529C166.035 104.529 164.005 104.808 164.005 104.019Z" fill="white"/>
<path d="M196.179 90.9036L142.681 83.4872C142.264 83.4288 141.887 83.2075 141.633 82.8716C141.379 82.5357 141.268 82.1128 141.326 81.6956L147.34 38.3124C147.398 37.8953 147.62 37.5184 147.955 37.2643C148.291 37.0102 148.714 36.8997 149.131 36.9571L202.63 44.3735C203.047 44.4318 203.424 44.6532 203.678 44.989C203.932 45.3249 204.042 45.7479 203.985 46.1651L197.971 89.5482C197.913 89.9653 197.691 90.3423 197.355 90.5963C197.02 90.8504 196.597 90.9609 196.179 90.9036Z" fill="#F3BF1E"/>
<path d="M177.014 77.3643L149.702 73.578C149.667 73.5737 149.633 73.5662 149.601 73.5557L165.62 52.9715C165.718 52.8431 165.849 52.743 165.998 52.6816C166.148 52.6201 166.311 52.5994 166.471 52.6216C166.631 52.6438 166.782 52.7081 166.909 52.8079C167.036 52.9077 167.135 53.0395 167.194 53.1898L173.782 69.4069L174.098 70.183L177.014 77.3643Z" fill="white"/>
<path opacity="0.2" d="M177.014 77.3642L167.689 76.0715L173.188 70.0569L173.584 69.6237L173.782 69.407L174.098 70.1831L177.014 77.3642Z" fill="black"/>
<path d="M192.221 79.4724L168.598 76.1976L174.098 70.1829L174.494 69.7496L181.66 61.9113C181.784 61.7936 181.931 61.7032 182.092 61.646C182.253 61.5889 182.424 61.5662 182.595 61.5795C182.765 61.5928 182.931 61.6418 183.081 61.7233C183.231 61.8048 183.363 61.917 183.467 62.0526C183.493 62.0907 183.516 62.1305 183.538 62.1716L192.221 79.4724Z" fill="white"/>
<path d="M177.346 59.9594C179.602 59.9594 181.431 58.1306 181.431 55.8746C181.431 53.6186 179.602 51.7898 177.346 51.7898C175.09 51.7898 173.261 53.6186 173.261 55.8746C173.261 58.1306 175.09 59.9594 177.346 59.9594Z" fill="white"/>
<path d="M154.989 40.9776L150.044 40.292L149.358 45.2372L154.304 45.9228L154.989 40.9776Z" fill="#3F3D56"/>
<path d="M178.254 89.8911C179.043 86.3569 176.521 82.7858 172.62 81.9147C168.719 81.0437 164.917 83.2026 164.127 86.7368C163.338 90.271 165.924 91.5745 169.824 92.4455C173.725 93.3165 177.465 93.4253 178.254 89.8911Z" fill="#F2F2F2"/>
<path d="M170.793 113.321C172.156 113.222 173.23 112.727 173.193 112.216C173.156 111.704 172.02 111.371 170.658 111.471C169.295 111.57 168.22 112.065 168.258 112.576C168.295 113.087 169.43 113.421 170.793 113.321Z" fill="#2F2E41"/>
</g>
<defs>
<filter id="filter0_d" x="0.608154" y="5" width="207.392" height="133.316" filterUnits="userSpaceOnUse" color-interpolation-filters="sRGB">
<feFlood flood-opacity="0" result="BackgroundImageFix"/>
<feColorMatrix in="SourceAlpha" type="matrix" values="0 0 0 0 0 0 0 0 0 0 0 0 0 0 0 0 0 0 127 0" result="hardAlpha"/>
<feOffset dy="4"/>
<feGaussianBlur stdDeviation="2"/>
<feColorMatrix type="matrix" values="0 0 0 0 0 0 0 0 0 0 0 0 0 0 0 0 0 0 0.25 0"/>
<feBlend mode="normal" in2="BackgroundImageFix" result="effect1_dropShadow"/>
<feBlend mode="normal" in="SourceGraphic" in2="effect1_dropShadow" result="shape"/>
</filter>
</defs>
</svg>
