<svg width="203" height="143" viewBox="0 0 203 143" fill="none" xmlns="http://www.w3.org/2000/svg">
<g filter="url(#filter0_d)">
<path d="M126.178 115.807H89.9806V134.048H126.178V115.807Z" fill="white"/>
<path d="M121.901 120.477H94.2571V121.414H121.901V120.477Z" fill="#F3BF1E"/>
<path d="M121.901 124.459H94.2571V125.396H121.901V124.459Z" fill="#F3BF1E"/>
<path d="M121.901 128.442H94.2571V129.379H121.901V128.442Z" fill="#F3BF1E"/>
<path d="M126.463 134.333H89.6954V115.522H126.463V134.333ZM90.2655 133.763H125.893V116.092H90.2655V133.763Z" fill="#3F3D56"/>
<path d="M100.166 93.1506C92.5031 93.1569 84.9901 91.0241 78.4731 86.9922L78.3076 86.8897L78.41 86.7241L100.058 51.6888H141.433V51.8837C141.433 74.6384 122.921 93.1506 100.166 93.1506Z" fill="#F3BF1E"/>
<path d="M73.6205 78.2748L73.4875 78.1925C66.1836 73.6764 60.9182 66.5011 58.8009 58.1789C56.6836 49.8567 57.8799 41.0375 62.1375 33.58L62.2152 33.4445L91.1163 49.9593L73.6205 78.2748Z" fill="#E4E4E4"/>
<path d="M141.433 46.161H99.9237L108.872 5.62207L109.062 5.66383C118.24 7.69239 126.451 12.7924 132.337 20.1207C138.223 27.449 141.432 36.5667 141.433 45.9662V46.161Z" fill="#F3BF1E"/>
<path d="M93.3123 39.7768L65.1873 23.7053L65.2629 23.5733C68.6726 17.617 73.8952 12.9052 80.1697 10.1243C86.4443 7.34334 93.443 6.63871 100.146 8.11303L100.294 8.14567L93.3123 39.7768Z" fill="#E4E4E4"/>
<path d="M198.574 2.76685H162.376V21.0081H198.574V2.76685Z" fill="white"/>
<path d="M194.297 7.43616H166.653V8.37325H194.297V7.43616Z" fill="#F3BF1E"/>
<path d="M194.297 11.4188H166.653V12.3559H194.297V11.4188Z" fill="#F3BF1E"/>
<path d="M194.297 15.4014H166.653V16.3385H194.297V15.4014Z" fill="#F3BF1E"/>
<path d="M198.859 21.2929H162.092V2.48157H198.859V21.2929ZM162.662 20.7228H198.289V3.05161H162.662V20.7228Z" fill="#3F3D56"/>
<path d="M108.442 68.597H107.872V115.522H108.442V68.597Z" fill="#3F3D56"/>
<path d="M162.236 11.9085L119.443 31.264L119.678 31.7834L162.471 12.4279L162.236 11.9085Z" fill="#3F3D56"/>
</g>
<defs>
<filter id="filter0_d" x="53.7778" y="2.48157" width="149.081" height="139.852" filterUnits="userSpaceOnUse" color-interpolation-filters="sRGB">
<feFlood flood-opacity="0" result="BackgroundImageFix"/>
<feColorMatrix in="SourceAlpha" type="matrix" values="0 0 0 0 0 0 0 0 0 0 0 0 0 0 0 0 0 0 127 0" result="hardAlpha"/>
<feOffset dy="4"/>
<feGaussianBlur stdDeviation="2"/>
<feColorMatrix type="matrix" values="0 0 0 0 0 0 0 0 0 0 0 0 0 0 0 0 0 0 0.25 0"/>
<feBlend mode="normal" in2="BackgroundImageFix" result="effect1_dropShadow"/>
<feBlend mode="normal" in="SourceGraphic" in2="effect1_dropShadow" result="shape"/>
</filter>
</defs>
</svg>
